<svg id="OBJECTS" xmlns="http://www.w3.org/2000/svg" xmlns:xlink="http://www.w3.org/1999/xlink" viewBox="0 0 500 500"><defs><style>.cls-1{fill:#d5ab95;}.cls-2{fill:#ffdc80;}.cls-3,.cls-4{fill:#c21c54;}.cls-4{font-size:69.77px;font-family:Nunito-Bold, Nunito;font-weight:700;}.cls-5{fill:#443335;}.cls-6{fill:#0b090a;}.cls-7{fill:#fff;}.cls-8{fill:#6d4d4e;}.cls-9{fill:#b78075;}.cls-10{fill:#a81d52;}.cls-11,.cls-17,.cls-21,.cls-22,.cls-25,.cls-26{fill:none;}.cls-11{stroke:#6d4d4e;}.cls-11,.cls-17,.cls-21,.cls-22,.cls-25{stroke-miterlimit:10;}.cls-11,.cls-17{stroke-width:0.74px;}.cls-12{fill:#a0685f;}.cls-13{fill:#1f2326;}.cls-14{fill:#302627;}.cls-15{fill:#050006;}.cls-16{fill:#232322;}.cls-17,.cls-22{stroke:#191718;}.cls-18{fill:#cd9380;}.cls-19{fill:#2d1e1b;}.cls-20{fill:#412f2a;}.cls-21{stroke:#4228b2;}.cls-21,.cls-22,.cls-25{stroke-width:0.75px;}.cls-23{clip-path:url(#clip-path);}.cls-24{fill:#141934;}.cls-25{stroke:#1d1c21;}.cls-26{stroke:#141934;stroke-linecap:round;stroke-linejoin:round;stroke-width:1.3px;}</style><clipPath id="clip-path"><path class="cls-1" d="M351.31,84.36a13.4,13.4,0,1,0,5.06-18.26A13.39,13.39,0,0,0,351.31,84.36Z"/></clipPath></defs><rect class="cls-2" x="92.1" y="172.46" width="342.28" height="203.64" rx="23.76"/><polygon class="cls-2" points="219.73 371.87 263.94 417.59 306.73 371.87 219.73 371.87"/><path class="cls-3" d="M210.76,253.49c-4.91-5.57-12.11-13.11-20.12-13.11-.32,0-.63,0-.92,0a23,23,0,0,0-18.51,10.22,24.22,24.22,0,0,0,2.5,29.9l36.9,40a.59.59,0,0,0,.85,0l36.9-40a24.18,24.18,0,0,0,2.5-29.9,23.07,23.07,0,0,0-18.51-10.22c-.31,0-.6,0-.92,0C223.26,240.38,215.68,247.73,210.76,253.49Z"/><text class="cls-4" transform="translate(274.63 296.53)">8k</text><path class="cls-5" d="M405.92,403.45l.74,7.77,2.42,4.55a5.32,5.32,0,0,1-1,6.32l-.79.78L390,401.79l8.66-7.11Z"/><polyline class="cls-5" points="389.82 401.82 407.24 423.07 409.12 421.53 391.69 400.28 389.82 401.82"/><polygon class="cls-5" points="398.69 394.68 408 386.67 415.01 395.04 405.92 403.45 398.69 394.68"/><polygon class="cls-5" points="425.42 335.21 428.66 362.26 402.15 388.8 413.15 401.28 446.03 372.89 432.97 330.87 425.42 335.21"/><path class="cls-6" d="M469.22,409.59l7.16,3.11,5.15.08a5.33,5.33,0,0,1,5.06,3.91l.3,1.07-26.82,4.93-2-11Z"/><polyline class="cls-7" points="460 422.89 487.03 417.92 486.59 415.53 459.56 420.5 460 422.89"/><polygon class="cls-7" points="458.05 411.67 455.54 399.65 466.25 397.57 469.22 409.59 458.05 411.67"/><path class="cls-8" d="M450.54,324.63l21,79.44-18.1,3.53-13.61-46.41S424.16,332.72,422.79,323Z"/><path class="cls-9" d="M484.37,261.33a6.06,6.06,0,1,1-8.56-.23A6.05,6.05,0,0,1,484.37,261.33Z"/><path d="M487.47,248.28h0a1.18,1.18,0,0,1,.39,1.6l-9.52,15.62a1.16,1.16,0,0,1-1.6.38h0a1.17,1.17,0,0,1-.39-1.6l9.52-15.62A1.16,1.16,0,0,1,487.47,248.28Z"/><polygon class="cls-9" points="471.06 280 477.01 267.93 482.97 270.77 478.07 282.94 471.06 280"/><path class="cls-10" d="M445.73,266s5.9,1.91,13.66,14.71l5.33,8.45L472,273.09l12,3.84-11,24.71a7.84,7.84,0,0,1-12.35,2.7l-5.73-5Z"/><path class="cls-10" d="M419,343.73s7.85,3.85,7.82,3.44-1.17-9.72-1.17-9.72Z"/><path class="cls-3" d="M442.24,265s9.89,0,11.77,17.43,6,55.23,6,55.23l-11.19,2.63-6.91-66.41Z"/><path class="cls-7" d="M428.65,265.26s3.82-1.89,10.45-1.06,9.54,9.08,10,14.7,2.24,48.21,2.24,48.21l-23-.11Z"/><path class="cls-3" d="M432.48,264.23s-5-.26-12.33,7.13a2.68,2.68,0,0,0-.78,1.87l-.33,70.5a58.19,58.19,0,0,0,24.25-3.48Z"/><path class="cls-9" d="M390.51,343.77a6.06,6.06,0,1,1,8.54-.64A6.05,6.05,0,0,1,390.51,343.77Z"/><polygon class="cls-9" points="394.58 321.63 390.95 334.23 397.52 335.5 403.01 322.7 394.58 321.63"/><path class="cls-3" d="M426.32,266.39S400,281.87,388.89,329.22l15.68,2.17s8.22-32.08,24.11-45.27C428.68,286.12,434.22,274.83,426.32,266.39Z"/><path class="cls-11" d="M419.19,297.2s5.1-8.54,9.49-11.08"/><path class="cls-9" d="M433,264.2l.06-13.73,9.84,0,0,13.73a4.93,4.93,0,0,1-5,4.91h0A4.93,4.93,0,0,1,433,264.2Z"/><path class="cls-12" d="M432.7,251.2s1,12.92,10.14,12.73v-7Z"/><path class="cls-13" d="M448.17,235.93s9.48,1.64,1.75,11.19l-1.75-5.8Z"/><path class="cls-9" d="M441.12,260.75h0c5.27,0,9.59-3.18,9.59-8.45V241.78a4.19,4.19,0,0,0-4.18-4.17H435.7a4.19,4.19,0,0,0-4.17,4.17v9C431.53,256.09,436.67,260.75,441.12,260.75Z"/><path class="cls-13" d="M433.1,247.24h0a7,7,0,0,0,2.6-9.63h-5.38a2.65,2.65,0,0,0-2.66,1.19c-1.18,1.56,1.7,8.44,1.7,8.44Z"/><circle class="cls-9" cx="430.74" cy="248.46" r="3.43"/><path class="cls-13" d="M445.48,230.07a6,6,0,0,0-7.55.21,6,6,0,0,0-3.29-1,5.37,5.37,0,0,0-5.49,4.3,3.76,3.76,0,0,0,.33,7.46,3.51,3.51,0,0,0,3.18-2.16,6.14,6.14,0,0,0,2,.34,6,6,0,0,0,2-.35c4.22.29,16.07.77,16.38-3A5.74,5.74,0,0,0,445.48,230.07Z"/><path class="cls-13" d="M435.16,243.47s-.68,7,.79,9.1,3.08-.26,8.67-.86,6.35,1.95,6.35,1.95-.78,7.4-8.07,7.4c-5.66,0-11.37-1.6-9.84-10.59s-2.74-12.86-2.74-12.86Z"/><polygon class="cls-8" points="149.85 138.1 171.07 133.04 170.21 138.82 151.04 148.58 149.85 138.1"/><path class="cls-14" d="M144.17,110s4,2.73,5.35,9.77,4.19,29.09,4.19,29.09L142.43,154Z"/><path class="cls-10" d="M184.8,126.44a29.54,29.54,0,0,0-2.29-2.18,7.62,7.62,0,0,0-9.74-.1l-18.6,15.12-18,20a10.86,10.86,0,0,0,5.08,4.55,14.93,14.93,0,0,0,16-2.48l20.92-19.27,6.68-15.61"/><polygon class="cls-1" points="188.72 157.65 192.39 165.94 199.46 164.99 195.75 156.84 188.72 157.65"/><path class="cls-15" d="M200,163.85l7,3.48,4.32.73A4.53,4.53,0,0,1,215,172l.11.93-22.72.71-.71-9.53Z"/><path class="cls-15" d="M192.3,173.8l22.91-.71,0-1.52a.55.55,0,0,0-.56-.53l-22.37.7.06,2.06"/><path class="cls-10" d="M187.94,161.39,170.36,133.6a8.56,8.56,0,0,1,5.44-11h0a8.57,8.57,0,0,1,10.93,5.94L201.17,158Z"/><path class="cls-8" d="M126.21,109.43a5,5,0,0,0-1.36.32l-.23.09a11.14,11.14,0,0,0-6.68,9.58l2.22,37.49c23.43-.21,29.36-3.29,29.36-3.29l-3.15-38c-.29-3.62-1.94-7-6.06-7.36h0Z"/><path class="cls-16" d="M156,114.52l5.27,1.91a2.46,2.46,0,0,0,3-1l6.31-12.07a1.79,1.79,0,0,0-1.17-2.5L164.13,99a2.46,2.46,0,0,0-3,1L154.84,112A1.8,1.8,0,0,0,156,114.52Z"/><path class="cls-1" d="M159.49,118.79c2.11,1.74,4.39,1.13,6.13-1s2.26-4.92.15-6.66a4.94,4.94,0,0,0-6.28,7.63Z"/><path class="cls-1" d="M159.45,123.24l3.63-4.4a2.72,2.72,0,0,0-.37-3.82h0a2.72,2.72,0,0,0-3.82.37l-3.63,4.41a2.72,2.72,0,0,0,.37,3.81h0A2.72,2.72,0,0,0,159.45,123.24Z"/><path class="cls-8" d="M162.51,124.05l-6.76-7-12.34,13.76L128.08,113.7c-3.36-2.93-6.91,0-8.43,1.93h0c-1.52,1.91-1.37,5.46.54,7l19.37,20.68a4.43,4.43,0,0,0,4.77.48Z"/><polyline class="cls-17" points="133.16 119.04 143.33 130.1 147.8 125.2"/><path class="cls-17" d="M150.24,138.16l-4.63,4.66A4.36,4.36,0,0,1,139,143L120.67,127.4"/><polygon class="cls-1" points="165.24 204.13 164.77 212.09 171.88 212.65 172.28 204.81 165.24 204.13"/><path class="cls-15" d="M172.61,211.63l6.1,4.87,4.07,1.62a4.54,4.54,0,0,1,2.84,4.63l-.09.94-23.42-4.28,2.35-9.25Z"/><path class="cls-15" d="M162,219.54l23.6,4.32.28-1.5a.56.56,0,0,0-.44-.63l-23.07-4.22-.37,2"/><path class="cls-3" d="M147.67,154l24,1.09a7.61,7.61,0,0,1,7.2,6.56,29.44,29.44,0,0,1,.26,3.15c.26,7.38-2.9,42.85-2.9,42.85l-13.85-2.41.66-32.44-27.73-.34a14.91,14.91,0,0,1-13.59-8.79,10.85,10.85,0,0,1-.76-6.77Z"/><path class="cls-1" d="M129.91,108.73l.91-12.24,9,.67-.9,12.24c-.2,2.63-2.3,3.69-4.79,3.51h0C131.64,112.72,129.72,111.36,129.91,108.73Z"/><path class="cls-18" d="M130.12,94.11s.21,11.45,9.08,11.41l.42-5.69Z"/><path class="cls-13" d="M129.66,76.83s-3.16-12.91-12.94-7.9c-7.23,3.71-4.88,13.44,7,14.6Z"/><path class="cls-8" d="M124.71,85.69s-3.82-3.33-.25-7.88,7.67-.32,7.67-.32Z"/><path class="cls-13" d="M148.19,88.08a12.64,12.64,0,1,1-11.67-13.54A12.65,12.65,0,0,1,148.19,88.08Z"/><path class="cls-1" d="M131,81.55h12.79a3.59,3.59,0,0,1,3.59,3.59v10.2a7.76,7.76,0,0,1-7.76,7.76h-2.86A7.76,7.76,0,0,1,129,95.33V83.55a2,2,0,0,1,2-2Z" transform="translate(6.29 -8.78) rotate(3.72)"/><path class="cls-13" d="M134.32,85.51s-.25,5.15-3.7,5.46-1.15-5.82-1.15-5.82Z"/><path class="cls-1" d="M131.57,91.21A3,3,0,1,1,128.73,88,3,3,0,0,1,131.57,91.21Z"/><path class="cls-13" d="M146.64,83.18S140.05,90,131,87.07c0,0-3.5-.64-1.73-5.94S145.57,76.43,146.64,83.18Z"/><path class="cls-13" d="M145.6,82.74s3.18,1,2.15,7.46c0,0,4.31-6.43,2.48-9.81-2.94-5.46-9.61-1.92-9.61-1.92Z"/><path class="cls-19" d="M104.07,358.52l-4.49,5-8.27,7.24,26.63,39.45c2,3.15,13.65,13.69,21.1,11.06,4.63-1.64,9.1-5.4,11.53-13.24Z"/><polygon class="cls-7" points="92.09 401.12 87.58 418.77 77.95 417.38 82.5 399.91 92.09 401.12"/><path class="cls-6" d="M78.38,416.45l-7.87,4-5.12.79a5.37,5.37,0,0,0-4.5,4.6L60.74,427l28.16,1.23-.28-11.29Z"/><polyline class="cls-7" points="89 428.39 60.63 427.16 60.73 424.72 89.11 425.96 89 428.39"/><path class="cls-19" d="M86.91,365.56l-11,44.22,18.16.47,13-42.67a10.16,10.16,0,0,0-9.68-11.83h0C92.09,355.42,88.12,360,86.91,365.56Z"/><path class="cls-20" d="M113.79,394.58l-27-4,3.23,20,43.24,12.51c3.42,1.48,13.26,1.35,17.91-5,2.9-4,4.46-9.6,2-17.44Z"/><polygon class="cls-7" points="47.29 419.53 31.19 425.23 28.61 415.85 44.57 410.25 47.29 419.53"/><path class="cls-6" d="M29.64,415.88l-6.85-5.61L20,405.9a5.37,5.37,0,0,0-6-2.28l-1.07.3,10.14,26.3,10.23-4.77Z"/><polyline class="cls-7" points="22.94 430.39 12.72 403.89 15 403.01 25.22 429.51 22.94 430.39"/><path class="cls-20" d="M84.36,391.31l-47.77,20,6.69,15.2,47.31-15.85a10.16,10.16,0,0,0,7-13.6h0A10.16,10.16,0,0,0,84.36,391.31Z"/><path class="cls-1" d="M128.81,342.14,138.9,336,145,351.74c1.16,2.91-.88,5.16-3.78,6.35h0c-2.91,1.2-5.61.88-6.82-2Z"/><path class="cls-18" d="M131.09,347.8s4.76-1.71,5.7-4.54a12.93,12.93,0,0,1-4.55,7.39Z"/><path class="cls-1" d="M123.88,327.45l-1.61,11.14c-1.18,4.63,2.67,10.55,7.34,9.55l1.28-.32a7,7,0,0,0,5.19-7.74l-1.89-13.36C133.74,326,125.87,322.88,123.88,327.45Z"/><path class="cls-1" d="M123.54,333.44l-2.77,3.43a1.09,1.09,0,0,0,.11,1.51l1.34.78Z"/><path class="cls-6" d="M136.34,337.58s-2,5.64,5.77,5.71l3.59-6.61a10.41,10.41,0,0,0,1.37-8.7c-.72-2.38-2.13-4.36-5.58-6-8.75-4.21-18.05,1.74-18.73,5.34,0,0,2.92,1.57,9,.44Z"/><path class="cls-6" d="M131.19,325.51s-2.19,6.09,3.18,7.81Z"/><path class="cls-6" d="M132.3,331.3l-.27,2.2a2.27,2.27,0,0,0,1.88,2.53l1.56.27-.6-4.23Z"/><path class="cls-1" d="M133.73,334.32a3.53,3.53,0,1,0,3.25-2.18A3.53,3.53,0,0,0,133.73,334.32Z"/><path class="cls-8" d="M140.57,319.05c9.31,4.14,8.47,11.4,6.86,15.74l-21.68-11.68C127.85,320.07,132.82,315.6,140.57,319.05Z"/><path class="cls-8" d="M147.43,334.79c-.18.48-.37.93-.58,1.36l-31-16.49a.83.83,0,0,1-.3-1.2h0a.84.84,0,0,1,1.09-.27Z"/><path class="cls-3" d="M140.24,349.63s7.48-1.38,12.72,14.27c6,17.94,3.75,45.78,3.75,45.78s-18.8,2.08-30.61-13c0,0,6-25.93,6.27-38.23C132.37,358.49,132.12,350.13,140.24,349.63Z"/><path class="cls-3" d="M135.12,351.61l-25.8,20a7.39,7.39,0,0,0-.87,10.93h0a7.4,7.4,0,0,0,9.28,1.19l26.17-16.32a8.89,8.89,0,0,0,1.83-12.91h0C142.69,350.81,138.94,348.68,135.12,351.61Z"/><polygon class="cls-1" points="101.64 348.79 93.65 338.4 87.73 340.43 94.37 351.29 101.64 348.79"/><path class="cls-1" d="M92.83,328.68c-3.44-.39-6.44,4.38-6.47,7.79a6.09,6.09,0,0,0,6.21,6.13,6.38,6.38,0,0,0,6.32-6.25C98.92,332.93,97.78,329.24,92.83,328.68Z"/><path class="cls-6" d="M97.76,318.3h0a1.34,1.34,0,0,0-1.51,1.12l-2.57,16.09a1.29,1.29,0,0,0,1.1,1.48h0a1.35,1.35,0,0,0,1.51-1.12l2.56-16.1A1.28,1.28,0,0,0,97.76,318.3Z"/><path class="cls-3" d="M121.94,376l-21.41-32.47L88.3,348.23l19.61,33.38a6.21,6.21,0,0,0,9,2.17h0C119.69,381.85,122.67,378.58,121.94,376Z"/><line class="cls-21" x1="130.28" y1="375.94" x2="140.51" y2="369.56"/><line class="cls-22" x1="130.28" y1="375.94" x2="140.51" y2="369.56"/><path class="cls-1" d="M378,102.5l.9-.51a6.18,6.18,0,0,0,2.34-8.44L370,73.76l-10.73,6.08,12.23,21C372.93,103.28,375.38,103.56,378,102.5Z"/><path class="cls-18" d="M368.85,96.2a7.58,7.58,0,0,0,3-6.47A8.2,8.2,0,0,1,370.5,99Z"/><path class="cls-1" d="M351.31,84.36a13.4,13.4,0,1,0,5.06-18.26A13.39,13.39,0,0,0,351.31,84.36Z"/><path class="cls-1" d="M368.26,96.58h0a6.36,6.36,0,0,0,2.41-8.67l-6.32-11.17-13.14,7.44,5.15,9.1A8.73,8.73,0,0,0,368.26,96.58Z"/><path class="cls-1" d="M353.12,86.78,352.7,92a1.06,1.06,0,0,0,1.62.88l3.27-1.11Z"/><path class="cls-1" d="M351.31,84.36a13.4,13.4,0,1,0,5.06-18.26A13.39,13.39,0,0,0,351.31,84.36Z"/><g class="cls-23"><path class="cls-13" d="M364.7,83.49s-4.67.58-5.88-6.6c0,0-7.82,5.69-11.26,3.83,0,0-2.26-20.4,14.69-20.71s19.38,17.87,19.38,17.87l-9,9.14Z"/></g><path class="cls-1" d="M364,83.83a3.68,3.68,0,1,0,1.39-5A3.68,3.68,0,0,0,364,83.83Z"/><path class="cls-13" d="M374.2,80.48l2.87,5.71s-5.25,4.77-8.38-.76l3.94-1.38Z"/><path class="cls-13" d="M358.82,76.89s-10.52,9.19-15.29,2.32c-3.82-5.49-.19-9.42,5.45-8.83,2.43.25,3.52-1.45,5.33-2.84Z"/><path class="cls-24" d="M334.09,166s-5.19,2.75-3.57,7.44,8,3,8,3l18.07-3.35s1.84-2.63,0-3.78S334.09,166,334.09,166Z"/><path class="cls-8" d="M364.82,151.88h-34c-3.56,0-5.51,2.77-6,6.29h0c-.55,3.65.68,7,4.25,7.87l29.08,7.48s30.65,6.31,34.25-10.12S364.82,151.88,364.82,151.88Z"/><path class="cls-3" d="M368.12,108.13s2-5.84,4-7.49c1.38-1.18,6.29-4.88,8.84-5.51a2.5,2.5,0,0,1,2.16.46,36.42,36.42,0,0,1,12.76,21.1c2.53,11.83-.53,47-.53,47l-30-12.54C368.09,130.93,363.49,126.79,368.12,108.13Z"/><path class="cls-1" d="M347.52,143.33l-9-4.4a2.34,2.34,0,0,0-2.29.13L331.63,142a2.12,2.12,0,0,0,.11,3.63h0a2.11,2.11,0,0,0,2.25-.11l2.2-1.54s6.46,4.71,9.85,4Z"/><path class="cls-3" d="M376.14,104.17l-5.06,30.65-25.79,3.73v9.5l31,.19a8.39,8.39,0,0,0,7.31-3.69l7.7-33.08Z"/><polyline class="cls-25" points="366.26 135.51 371.08 134.82 375.15 110.17"/><path class="cls-25" d="M365.33,148.17l13.93-.09a4.75,4.75,0,0,0,4.6-3.71L389.11,121"/><path class="cls-24" d="M321.39,152.09h36.33a2,2,0,0,0,2-2h0a2,2,0,0,0-2-2H321.39a2,2,0,0,0-2,2h0A2,2,0,0,0,321.39,152.09Z"/><line class="cls-26" x1="305.1" y1="121.73" x2="322.11" y2="149.49"/></svg>