<svg id="OBJECTS" xmlns="http://www.w3.org/2000/svg" xmlns:xlink="http://www.w3.org/1999/xlink" viewBox="0 0 500 500"><defs><style>.cls-1,.cls-13,.cls-14,.cls-15,.cls-33{fill:none;}.cls-2{fill:#f7f9fc;}.cls-3{clip-path:url(#clip-path);}.cls-4{fill:#5c5f60;}.cls-5{fill:#565656;}.cls-6,.cls-7{fill:#070707;}.cls-6{opacity:0.05;}.cls-27,.cls-7{opacity:0.07;}.cls-8{fill:#c9c9c9;}.cls-9{opacity:0.8;}.cls-10{fill:#515151;}.cls-11{fill:#545454;}.cls-12{fill:#a0a0a0;}.cls-13,.cls-14,.cls-15,.cls-33{stroke:#fff;}.cls-13,.cls-15,.cls-33{stroke-miterlimit:10;}.cls-13,.cls-14,.cls-15{stroke-width:1.96px;}.cls-14,.cls-15{stroke-linecap:round;}.cls-14{stroke-linejoin:round;}.cls-16{clip-path:url(#clip-path-2);}.cls-17{fill:#777;}.cls-18{fill:#faf7eb;}.cls-19{fill:#414547;}.cls-20{clip-path:url(#clip-path-3);}.cls-21{clip-path:url(#clip-path-4);}.cls-22{fill:#fcffff;}.cls-23{fill:#f8b986;}.cls-24{fill:#0e251f;}.cls-25{fill:#d98d49;}.cls-26{fill:#e28c53;opacity:0.4;}.cls-28{fill:#cd1e59;}.cls-29{clip-path:url(#clip-path-5);}.cls-30{fill:#101010;opacity:0.08;}.cls-31{clip-path:url(#clip-path-6);}.cls-32{clip-path:url(#clip-path-7);}.cls-33{stroke-width:2.16px;}</style><clipPath id="clip-path"><path class="cls-1" d="M429.47,314.91c-5.06-22-3-39.17,6.54-61.49,17.9-42.1,30.39-85.62-29.07-108.67-24.79-9.62-62.13-5.33-87.9-51.77-29.47-53.14-83.72-63.37-117.49-35.66s-15.88,40.14-42.38,52.6c-29.46,13.86-39.3,12-73.93,31.93-41.64,23.92-51.37,99-7.07,126.72S116.94,342.43,105,379.5c-3.66,11.4,4,33.56,12.64,46.23,26.77,39.13,98.67,41.58,145,11.1s97.71,20.72,142.56-10.46C454.45,392.15,434.53,336.9,429.47,314.91Z"/></clipPath><clipPath id="clip-path-2"><circle class="cls-1" cx="163.76" cy="221.05" r="96.87"/></clipPath><clipPath id="clip-path-3"><circle class="cls-1" cx="351.71" cy="237.56" r="95.03"/></clipPath><clipPath id="clip-path-4"><circle class="cls-1" cx="245.39" cy="250.59" r="114.32"/></clipPath><clipPath id="clip-path-5"><circle class="cls-1" cx="337.95" cy="353.42" r="99.25" transform="translate(-150.92 342.48) rotate(-45)"/></clipPath><clipPath id="clip-path-6"><path class="cls-1" d="M57.87,359.34c0,57,60.18,113.47,117.13,113.47s89.12-56.52,89.12-113.47a103.13,103.13,0,1,0-206.25,0Z"/></clipPath><clipPath id="clip-path-7"><circle class="cls-1" cx="247.87" cy="376.07" r="103.84" transform="translate(-193.32 285.42) rotate(-45)"/></clipPath></defs><path class="cls-2" d="M429.47,314.91c-5.06-22-3-39.17,6.54-61.49,17.9-42.1,30.39-85.62-29.07-108.67-24.79-9.62-62.13-5.33-87.9-51.77-29.47-53.14-83.72-63.37-117.49-35.66s-15.88,40.14-42.38,52.6c-29.46,13.86-39.3,12-73.93,31.93-41.64,23.92-51.37,99-7.07,126.72s35.65,73,26.86,110.93c-4.53,19.56,4,33.56,12.64,46.23,26.77,39.13,98.67,41.58,145,11.1s97.71,20.72,142.56-10.46C454.45,392.15,434.53,336.9,429.47,314.91Z"/><g class="cls-3"><ellipse class="cls-4" cx="250.37" cy="302.83" rx="109.34" ry="143.37"/><path class="cls-5" d="M303.09,118.62s6.34,41,8.13,46.75.33,22.9-16.57,32.65c-12.71,7.34-21.19-7.32-28-14.18s-5.94-18.54,1.5-46.39,18.61-38.51,18.61-38.51Z"/><path class="cls-4" d="M272.76,161.14l24.55,9.68-2.24,20.82-6.43-.87,26.6,72.08S258,277.42,226.31,265.1c0,0-.87-83,3.52-90.5,7.1-12.07,15-12.32,15-12.32s9,3.5,16.16,3.08C270.43,164.8,272.76,161.14,272.76,161.14Z"/><path class="cls-6" d="M229.13,194.4l-2.71,71c9.73,3.79,23.92,5.4,35.86,5.59C262.28,270.94,225.81,251.21,229.13,194.4Z"/><polygon class="cls-7" points="287.45 180.68 290.64 191.28 288.74 191.03 287.45 180.68"/><path class="cls-8" d="M272.89,161.45a27.92,27.92,0,0,1-1.45-5.24c-11.82,1.6-25.56-15.26-25.55,1.57,0,1.46.81,3-1,4.5a47.06,47.06,0,0,0,16.26,3.4c8.33,0,11.75-4.28,11.75-4.28"/><path class="cls-7" d="M272.21,159.45s-17.75,2-23.2-.51c0,0,6.64,4.39,23.86,2.46Z"/><path class="cls-8" d="M246.88,78.83a64.55,64.55,0,0,0-15.7,6.53c-8.24,4.81-16.87,12.65-18,24.62a51.13,51.13,0,0,0,1.76,19.65c4.45,14.84,16.18,26.36,34.84,29.86,13.17,2.47,27.43.65,38-7.14s16.94-24.33,14.3-38.09-9-21.07-18.75-27.43S260.92,77.8,246.88,78.83Z"/><g class="cls-9"><path class="cls-10" d="M283.43,116.9c0,.6.36,2.75,1.31,2.5s.44-2.34.26-3a1.13,1.13,0,0,1,.92-1.27,1.14,1.14,0,0,1,1.27.92c.57,2,.44,5.2-2.28,5.54-2.56.31-3.8-2.9-3.69-5,.08-1.43,2.29-1.18,2.21.24Z"/></g><g class="cls-9"><path class="cls-5" d="M244.47,118.44c0,.6.37,2.75,1.32,2.49s.44-2.34.26-3a1.12,1.12,0,0,1,.92-1.27,1.14,1.14,0,0,1,1.27.92c.57,2,.44,5.2-2.28,5.54-2.56.31-3.8-2.9-3.69-5,.08-1.42,2.28-1.18,2.2.25Z"/></g><path class="cls-11" d="M264.17,137.69c1-3.23,4.93-5.68,7.4-2.21.82,1.16,2.69,0,1.86-1.2a6.09,6.09,0,0,0-6.16-2.6c-2.77.58-4.47,3-5.26,5.52-.42,1.36,1.74,1.85,2.16.49Z"/><path class="cls-11" d="M268,128.61h.08a12.35,12.35,0,0,0,2-.32,3.4,3.4,0,0,0,2.58-2.11c.22-.71.23-1.87-1-3.38-1.09-1.34-1.28-4-1.26-5a.89.89,0,0,0-.88-.91h0a.89.89,0,0,0-.89.87c0,.16-.06,4,1.67,6.14a2.14,2.14,0,0,1,.67,1.72c-.11.37-.6.71-1.36.93a11.06,11.06,0,0,1-1.63.25.9.9,0,0,0-.81,1A.88.88,0,0,0,268,128.61Z"/><path class="cls-12" d="M228,129.16c.12,3.15,3.76,5.58,8.13,5.43s7.82-2.83,7.7-6-3.76-5.58-8.13-5.43S227.88,126,228,129.16Z"/><path class="cls-12" d="M285.66,127c.12,3.15,3.76,5.58,8.13,5.43s7.81-2.83,7.7-6-3.76-5.58-8.13-5.43S285.55,123.89,285.66,127Z"/><path class="cls-5" d="M297.84,140.38c8.57-12.06,7.36-48.75-8.77-64.88S239.53,65,239.53,65c-30.64,6.37-38.94,26.07-40.67,51.91-1.18,17.76,3.27,28.57-2.34,59.36-2.81,15.36,2.11,24.6,7.53,27.71l.19.12c8.65,5,22,1.21,22,1.21s48.53-22.14,19.69-47.52c-11.26-9.9-15.34-23.33-13.13-33.24,1-4.6,2.21-9.91,2.21-9.91,28.7-1.28,55.63-22.17,55.63-22.17,8.35,8.16,10.07,35.7,8.2,44.84A16.77,16.77,0,0,1,297.84,140.38Z"/><path class="cls-13" d="M260.63,120.82a12.2,12.2,0,1,1-9.83-14.18A12.2,12.2,0,0,1,260.63,120.82Z"/><path class="cls-13" d="M298.91,120.33a12.2,12.2,0,1,1-9.82-14.19A12.19,12.19,0,0,1,298.91,120.33Z"/><path class="cls-14" d="M260.63,120.82s6.21-10.24,14.14-1.41"/><line class="cls-15" x1="235.8" y1="119.34" x2="221.73" y2="121.06"/><g class="cls-16"><path class="cls-8" d="M139.27,268.91c-1,10.13,43.92.47,43.66-8-.25-8-3.94-24.9-5.49-30.31-4.37-15.33-12.18,3.39-23.38,1.89C149.8,240.94,144.91,243.91,139.27,268.91Z"/><path class="cls-7" d="M152.25,235.79a42.63,42.63,0,0,0,8.56.6,35.94,35.94,0,0,0,13.75-3s-8.38,6.49-23,3.54Z"/><path class="cls-17" d="M151.36,237.1s-8.43,4.91-12.11,11.28c-2.37,4.11-4.52,10.41-5.94,19.59-.4,2.57-6.19,67.09-6.19,67.09S209,341.13,238,329.81c0,0-14.78-69.3-38.72-88.32-5.3-4.2-20.34-5.14-20.34-5.14s-5.39,5-17.59,4.61C152.7,240.69,151.36,237.1,151.36,237.1Z"/><path class="cls-8" d="M120.35,193.27c1-14.75,1.31-22.55,10.36-30.88s21.72-13.33,36.49-14.73a68.23,68.23,0,0,1,17.48,4c9.42,3.56,19.78,10.19,23.08,22.44a53.93,53.93,0,0,1,1.63,20.75c-2,16.21-12.2,30.26-31,37.18-13.26,4.88-28.41,5.5-40.8-.75C133.09,229,118.69,218.33,120.35,193.27Z"/><path class="cls-18" d="M164.17,213.81s2.24-2.88-.32-5.17a5,5,0,0,0-6-.54,4.28,4.28,0,0,0-2,3.72"/><path class="cls-19" d="M111,159c1.87-17.27,2.62-21.36,22.64-17.38-.45-1.29,66.15-16.84,79.25,23.25,7,23.61-1.48,52.12-20.51,59.69,8-8,20-35.75,4.33-28.17,3.05-12.65,3.26-18.15-3.92-20.78-5.78-2.11-47.64,8.69-65.71-.27-6.15,12-6.36,14.77-6,30.27C115,201.79,110.19,179.33,111,159Z"/><path class="cls-5" d="M172.68,190.65c.06,2,1.25,3.58,2.67,3.53s2.5-1.7,2.44-3.69-1.26-3.58-2.67-3.53S172.62,188.65,172.68,190.65Z"/><path class="cls-5" d="M132.22,193.15c.06,2,1.25,3.58,2.66,3.53s2.51-1.69,2.45-3.69-1.26-3.57-2.67-3.53S132.15,191.16,132.22,193.15Z"/><path class="cls-11" d="M154.86,204.16h-.09a15.86,15.86,0,0,1-2.34-.26c-2.08-.5-2.87-1.55-3.17-2.35s-.38-2.19,1-4.05c1.21-1.65,1.28-4.85,1.2-5.94a1.05,1.05,0,0,1,1-1.13,1,1,0,0,1,1.13,1c0,.19.32,4.74-1.6,7.34a2.56,2.56,0,0,0-.7,2.07c.16.45.76.81,1.67,1a13.19,13.19,0,0,0,1.94.21,1.05,1.05,0,0,1,1,1.09A1.06,1.06,0,0,1,154.86,204.16Z"/><path class="cls-12" d="M175.34,201.73c.1,3.23,3.81,5.74,8.28,5.62s8-2.84,7.94-6.07-3.81-5.74-8.29-5.62S175.24,198.5,175.34,201.73Z"/><path class="cls-12" d="M121.06,204.88c.09,3.23,3.8,5.75,8.28,5.62s8-2.83,7.93-6.06-3.8-5.75-8.28-5.62S121,201.66,121.06,204.88Z"/><path class="cls-5" d="M166.83,185.56s-2.28.34-2.28-1.62,5-6,8.56-6,7.08,2.2,6.61,3-3.15-.09-5.71,1.39S169.2,185.56,166.83,185.56Z"/><path class="cls-5" d="M142.16,185.41a1,1,0,0,0-.15-1.14,8.51,8.51,0,0,0-6.8-2.53c-4.69.4-5.89,1.33-5.56,1.9s5.27,1,6.57,1.92C138.84,187.52,141,187.37,142.16,185.41Z"/><path class="cls-8" d="M199.64,199.58a6.45,6.45,0,1,0,4.93-7.67A6.45,6.45,0,0,0,199.64,199.58Z"/><path class="cls-12" d="M204,194.8a2.84,2.84,0,0,1,3.51.06c2.1,1.35,2.44,3.5,1.29,4.15-1.52.85-1.17-1.23-2.79-1.48s-2.27.95-3.33-.22S204,194.8,204,194.8Z"/><path class="cls-19" d="M198.41,189.46s-3.87,10-5.81,13.63c-2.41,4.55,1.92,6.46,4,5.27s2.6-8.73,3.47-11.63c.64-2.12,1.9-7.27,1.9-7.27Z"/></g><g class="cls-20"><path class="cls-8" d="M300.7,213.1a8,8,0,0,0-3.25,4.24,4.52,4.52,0,0,0,0,2,11.15,11.15,0,0,0,3.17,4.66,7.4,7.4,0,0,0,2.53,1.29,5,5,0,0,0,4.42-1.34c.85-1.09.57-3.38.53-4.77a7.12,7.12,0,0,0-1.35-3.56,6.61,6.61,0,0,0-3.84-3,2.18,2.18,0,0,0-2.17.54"/><path class="cls-8" d="M397.47,203.74c1.63.69,3.41,1.73,4.19,3.32a4.54,4.54,0,0,1,.52,1.9,11.22,11.22,0,0,1-1.94,5.29,7.8,7.8,0,0,1-2.14,1.87,5,5,0,0,1-4.62-.23c-1.09-.85-1.38-3.14-1.67-4.49a7.05,7.05,0,0,1,.44-3.79,6.67,6.67,0,0,1,3-3.88,2.2,2.2,0,0,1,2.23,0"/><path class="cls-8" d="M344.07,171.24s-37.95-1-39.15,34,21.11,42.57,38.27,45.44,49.23-10.71,51.94-29.07C397.76,203.77,392.42,164,344.07,171.24Z"/><path class="cls-11" d="M347.6,226.8c.15-1.76.57-3.05,2.52-3.41,2.46-.46,3.94,1.2,4.39,3.46.27,1.36,2.35.78,2.08-.58-.64-3.23-3.14-5.52-6.52-5-3.21.45-4.37,2.59-4.63,5.57-.12,1.38,2,1.37,2.16,0Z"/><path class="cls-19" d="M306.88,220.65c1.66-2.27,1.8-8.8-.29-10.69,4.31-3.18,4.59-10.5.53-14,2.46.17,4.6-2,5.25-4.36s.17-4.91-.38-7.31c2.69,2.29,6.6,3.38,9.85,2s5.27-5.56,3.64-8.69c2.69,1.82,5.84,3.27,9.07,2.93s6.37-3,6.3-6.23c4.5,7.16,13.62,9.76,22,10.72,5.36.61,11.78.32,14.8-4.16a10.68,10.68,0,0,0,10,9.37c-2.62,4.78.07,11.63,5.24,13.35-.1,4.81-.6,7.15,2.92,10.44a24.63,24.63,0,0,0,2-24.92c2.09.5,3.78-7.53,2.59-12-2.42-9.23-13.12-8.58-13.34-9.15-1.32-3.42-2.48-7-4.87-9.81s-6.45-4.55-9.82-3.07a18.18,18.18,0,0,0-15.81-6.84,13.42,13.42,0,0,1-2.28.13,8,8,0,0,1-2.89-1c-2.44-1.26-4.8-2.91-7.54-3.15s-5.91,1.68-5.72,4.42c.05.66.27,1.39-.11,1.93a1.94,1.94,0,0,1-1.38.62c-2.3.35-4.66.29-6.95.76s-4.59,1.58-5.74,3.61a4.9,4.9,0,0,1-1.4,2,3.77,3.77,0,0,1-1.77.35c-6.67.41-12,5.43-16.74,10.15-1.44,1.45-3,3.38-2.32,5.3.21.57.61,1.13.5,1.72a2.3,2.3,0,0,1-1,1.26,14.33,14.33,0,0,0-4.94,14.35,10.82,10.82,0,0,1,.5,2.63,9.56,9.56,0,0,1-.72,2.85,15.65,15.65,0,0,0-.06,10c.91,2.61,1.16,6,2.82,8.23,1.53,2.07,5.62,7,8.1,6.31"/><path class="cls-11" d="M348.93,217.58h0a13.25,13.25,0,0,0,2.09-.21,3.59,3.59,0,0,0,2.87-2.07c.28-.73.36-2-.84-3.64-1.07-1.48-1.09-4.35-1-5.33a1,1,0,0,0-1.9-.15c0,.17-.33,4.24,1.36,6.59a2.25,2.25,0,0,1,.61,1.85c-.15.4-.68.71-1.5.89a11.13,11.13,0,0,1-1.73.17,1,1,0,0,0,0,1.9Z"/><path class="cls-5" d="M367.1,205.83c.06,1.95,1.23,3.51,2.61,3.46s2.46-1.66,2.4-3.62-1.23-3.51-2.62-3.46S367,203.87,367.1,205.83Z"/><path class="cls-5" d="M327.4,208.28c.06,2,1.23,3.51,2.62,3.47s2.45-1.67,2.39-3.62-1.23-3.51-2.61-3.47S327.34,206.33,327.4,208.28Z"/><path class="cls-12" d="M369.71,216.7c.09,3.16,3.73,5.63,8.13,5.51s7.87-2.78,7.78-6-3.74-5.63-8.13-5.51S369.61,213.53,369.71,216.7Z"/><path class="cls-12" d="M316.45,219.79c.1,3.17,3.74,5.64,8.13,5.52s7.88-2.79,7.78-5.95-3.73-5.64-8.13-5.52S316.36,216.63,316.45,219.79Z"/><path class="cls-5" d="M360.93,202.21s-2.24.32-2.24-1.6,5-5.92,8.4-5.92,7,2.15,6.49,3-3.09-.09-5.6,1.36S363.25,202.21,360.93,202.21Z"/><path class="cls-5" d="M336.72,202.05a.92.92,0,0,0-.14-1.11,8.3,8.3,0,0,0-6.67-2.48c-4.61.39-5.78,1.3-5.45,1.86s5.16.93,6.44,1.89C333.47,204.12,335.55,204,336.72,202.05Z"/><path class="cls-17" d="M362.57,252.42c23.05,2.34,28,33.24,28,33.24l6.37,71.51s-58.6,15.07-90.39,2.68c0,0-.88-83.46,3.53-91,7.14-12.14,24.44-15.33,24.44-15.33s9.08,3.53,16.24,3.1C360.22,256.1,359,255.62,362.57,252.42Z"/><path class="cls-8" d="M362.7,252.73a28,28,0,0,1-1.46-5.27c-11.88,1.61-25.69-15.33-25.68,1.58,0,1.47.81,3-1,4.52A47.28,47.28,0,0,0,350.87,257c8.37,0,11.8-4.3,11.8-4.3"/><path class="cls-7" d="M362,250.72s-17.83,2-23.31-.51c0,0,6.67,4.41,24,2.47Z"/></g><g class="cls-21"><path class="cls-22" d="M235.14,267.71s-11.24,0-18.94,11.49c-14.1,21-11.92,83.71-11.92,83.71s65,14.49,95.8,2.5c0,0-14.95-74-16.32-78.19a22.76,22.76,0,0,0-13.12-14.58c-12.83-5.47-11.56-4.27-11.56-4.27s-7,3.86-14,3.46C236,271.29,235.14,267.71,235.14,267.71Z"/><path class="cls-23" d="M257.3,180.08a67.86,67.86,0,0,1,16.69,6.4c8.8,4.83,18.1,12.81,19.66,25.35a54,54,0,0,1-1.27,20.71c-4.25,15.72-16.25,28.18-35.75,32.39-13.77,3-28.81,1.48-40.17-6.4S198,233.46,200.33,218.92s8.82-22.4,18.91-29.37S242.52,179.41,257.3,180.08Z"/><path class="cls-24" d="M218.16,224.85c0-.69.15-2.78,1.15-2.85,1.23-.09.68,2.45.54,3a1.17,1.17,0,0,0,2.25.62c.54-2.16.43-5.72-2.56-5.91-2.58-.17-3.89,3-3.7,5.16.12,1.49,2.45,1.5,2.32,0Z"/><path class="cls-24" d="M259.15,225.34c-.06-.69.15-2.78,1.14-2.85,1.23-.09.68,2.44.55,3a1.16,1.16,0,0,0,2.24.62c.54-2.16.43-5.73-2.56-5.92-2.58-.16-3.89,3-3.7,5.17.12,1.48,2.45,1.49,2.33,0Z"/><path class="cls-25" d="M241.16,236.79c-1.72,3.33-6.21,5.13-8.2.91-.64-1.35-2.65-.17-2,1.18a6.33,6.33,0,0,0,5.93,3.68c2.84-.11,5.05-2.2,6.29-4.6.68-1.33-1.33-2.51-2-1.17Z"/><path class="cls-25" d="M237.63,233.48a.91.91,0,0,0,.15-1.8,10.88,10.88,0,0,1-1.63-.4c-.75-.28-1.22-.66-1.3-1.05s.2-1,.83-1.69c1.93-2,2.18-5.91,2.19-6.07a.91.91,0,1,0-1.81-.11c-.05.94-.47,3.66-1.69,4.93-1.37,1.42-1.46,2.6-1.29,3.33a3.43,3.43,0,0,0,2.43,2.36,14,14,0,0,0,2,.49Z"/><path class="cls-26" d="M261.59,235.44c.16,3.38,4.1,5.95,8.79,5.74s8.36-3.12,8.2-6.5-4.09-6-8.78-5.74S261.43,232.06,261.59,235.44Z"/><path class="cls-26" d="M202.55,233.86c.16,3.38,4.09,5.95,8.78,5.74s8.36-3.12,8.2-6.5-4.09-5.95-8.78-5.74S202.39,230.48,202.55,233.86Z"/><g class="cls-27"><path class="cls-28" d="M216.2,197.66c-8.47,10.7-11.91,22.36-11.51,36,.21,7.22.71,15.58,9.52,23.39-1.94,3-6.09,3.34-9.64,3.05,0,0-5.57-11-5.95-21-.43-11.19.92-19,4.11-26C205.47,207,216.2,197.66,216.2,197.66Z"/></g><path class="cls-28" d="M314.14,227.39c1.09-.3,2.41-1.28,2.91-4a8.18,8.18,0,0,0-4.36-9l-3.12-.58s4.71-1.69,2.74-4.65c-1.76-2.64-5.88-4.23-7.12-4.17-.06-1.06,4.12-1.84,2.4-6-.6-1.44-4.65-1.38-5.74-1.62-1.58-2,1-.95.11-5.49s-8-4.82-8-4.82,4-3.59,2-5.62c-2.5-2.53-6.18.48-7.68,1.93,1.27-1.41,3.62-4.62.64-6.61-3.61-2.4-7.39,1.36-7.95,1.94,0,0,0,0,0,0,.45-.85,3.47-6.86-1-8.93-3.07-1.41-4.9-1.16-6.88,1.63a6.25,6.25,0,0,0-2.92-5.38c-4.09-2.39-7-.22-9,2.06.38-3.28.24-5.72-4.84-6.4-4.78-.64-5.6,5.77-5.6,5.77s-3-5.36-7.29-5.14c-5.83.3-8,6.44-8,6.44s-.38-6.11-5.28-5.57c-3.37.38-5.52,2.82-5.12,6.22-.64-.93-2.43-3.79-5.14-3.38a8.18,8.18,0,0,0-7,7.07l.12.77-.14-.11a8.75,8.75,0,0,0-4.87-.38,2.27,2.27,0,0,0-1.91.7,8.59,8.59,0,0,0-2.81,2.42,4.94,4.94,0,0,0-1.27,4.12,4,4,0,0,0-.47.22c-2.39-1.45-4.08-1-6.32,1.16-3.2,3.05.31,7.14,1.58,8.44l-.1.15c-1.23-.56-4.8-2.41-7.69,0s-1.77,6.49-1.77,6.49-5.12.15-6.89,4.43c-1.37,3.28,1.4,4.81,2.51,4.43-1.74.92-5.33,3.54-1.72,8.16l.1.12c-.5,1.08-2.39.58-2.22,4.1s2.82,3.83,3.86,4.27c-3.41.27-4.58,1.7-4.93,5.07-.56,5.28,7.28,5.43,7.28,5.43s-6.07,1.18-5.84,5.86c.19,3.58,4.15,3.21,6,2.83-2,.55-6.48,2.18-5.58,5.62.72,2.75,5.84,1.16,5.84,1.16s-5.36,6.67-1.92,9.77,4.71-1,4.71-1-.42,7.19,3.6,8.17,4.75-4.54,4.75-4.54a7.54,7.54,0,0,0,4,6.54c4.06,2.08,5.7-.65,7.44-4.06a6,6,0,0,0,.51-3.37,7.87,7.87,0,0,0,5.81-3.11c-8.8-7.81-9.48-16.07-9.69-23.29-.39-13.48,3-25,11.22-35.61-.68,1.68-1.27,3.65-.26,5.13a4.36,4.36,0,0,0,1.68,1.35c4.43,2.27,8.85-1.29,10.79-5.91h.1c-.4,3.23,1.94,6.47,5.24,7.65,3.67,1.31,8.21-1.78,9.6-5.51-.65,3.2,2.25,6.67,5.63,7.17,3.7.55,7.33-1.53,10-4.2-1.81,2.59-.88,6.45,1.52,8.5s5.85,2.5,8.95,1.91a30.17,30.17,0,0,0,8.7-3.6c-.49,3.16-3.49,8.11-2.33,11.09s4.13,4.88,7.1,3.71c-4.32,2.75-6.81,8.3-3.27,12-1.34,1.77-3.36,3-4.59,4.8s-1.2,4.91.86,5.73c-3.09,1.87-6,4.78-6.15,8.38s3.7,7.26,7,5.7a7,7,0,0,0,7.3,4.34,4.21,4.21,0,0,0,.51-.12c1.13,2.76,2.59,4.6,6.2,3.33a7.56,7.56,0,0,0,4.81-5.95s0,5.57,4.1,5.14,4.65-7.62,4.65-7.62.71,4.26,4.54,1.64-.6-9.94-.6-9.94,4.86,2.26,5.94-.37c1.35-3.29-2.86-5.5-4.78-6.31,1.79.62,5.67,1.52,6.33-2,.86-4.6-5-6.58-5-6.58s7.79.9,8-4.42C318.45,229.7,317.49,228.12,314.14,227.39Z"/><path class="cls-23" d="M232.54,260.92a21.51,21.51,0,0,1,2.91,9.79s14.85,4.48,23.63-2.34c0,0-1.15-12.45-1.15-14.72l-27,7.27"/><path class="cls-7" d="M234.61,265.65s15.47.88,21-1.68a56,56,0,0,1-20.47,3.74Z"/></g><g class="cls-29"><path class="cls-19" d="M383.79,353.42s.15,10,6.17,16.05,7.16,17.78-2,23.08c-5.71,3.29-10,.23-15.38,9.53s-12.22,8.53-12.22,8.53l-18.84-35.25,33.39-22.94Z"/><path class="cls-17" d="M285.19,485.28c.09-42.36,2-59.15,15.51-88.87,10.65-23.46,29.15-34.89,38.13-25.06,3.89,4.26,11.44,7.56,14.14,12.67,7.64,14.47,22,45.66,25,99.2Z"/><path class="cls-19" d="M370.05,366.22s56.29-64.23,6.54-93.87c-30.52-18.18-15.47,29.54-15.47,29.54Z"/><path class="cls-19" d="M393.55,303.1S398,268.5,348,264.3c-15-2.44-36.08,3.05-47.87,22-13.36,21.53-9.36,99.57,64.46,73.05C378.74,354.33,393.55,303.1,393.55,303.1Z"/><path class="cls-8" d="M327.1,326.62c6.71,23.16,58.39-2,62.27-8.39,1.08-1.78,1.11,4.18-.74,18.2-.41,3.07.75,7.49,0,11.22a37.44,37.44,0,0,1-7.34,15.85c-8.67,10.65-18.85,10.62-25.85,10.87-2.69.09-3.1,4.67-3.67,8.22-16.67,1.64-27-13.41-27-13.41a31.89,31.89,0,0,0,4-6.33c-5.68-9.44-7.65-16.17-7.63-26.11C321.17,322.52,327.1,326.62,327.1,326.62Z"/><path class="cls-12" d="M353.23,342c-.54,3.26,2.69,6.53,7.21,7.3s8.64-1.26,9.18-4.53-2.68-6.52-7.21-7.29S353.78,338.72,353.23,342Z"/><path class="cls-5" d="M373.35,332.32c-1.19-.31-2.49.79-2.92,2.46s.19,3.27,1.38,3.57,2.48-.79,2.91-2.46S374.53,332.62,373.35,332.32Z"/><path class="cls-30" d="M355.4,374.37c-2.85.08-21.87-5.88-25.55-10.92,0,0,5.85,7.7,22.75,14.21C352.9,376.65,353.4,374.65,355.4,374.37Z"/><path class="cls-8" d="M384.6,335.35a49.68,49.68,0,0,0,3.74,11.56c.46.95.43,2.06-.54,2.47-3,1.27-6.7-.84-6.68-1.21"/><path class="cls-11" d="M385.71,350.8a9.15,9.15,0,0,1-4.82-1.43,1.55,1.55,0,0,1-.8-1.24,1.07,1.07,0,0,1,1.06-1,1,1,0,0,1,.85.5c.53.4,3.2,1.72,5.4.79a.24.24,0,0,0,.17-.16,1.33,1.33,0,0,0-.15-.93,50.78,50.78,0,0,1-3.81-11.78,1,1,0,0,1,2-.45,48.87,48.87,0,0,0,3.66,11.34,3.29,3.29,0,0,1,.23,2.54,2.31,2.31,0,0,1-1.29,1.33A6.51,6.51,0,0,1,385.71,350.8Zm-3.57-2.6Z"/><path class="cls-11" d="M374.85,360.46a1.08,1.08,0,0,1-.67-.24,1,1,0,0,1-.1-1.45,5.88,5.88,0,0,1,4.25-2.4,4.14,4.14,0,0,1,3,1.23,1,1,0,0,1-1.49,1.41,2.39,2.39,0,0,0-1.53-.59,4.06,4.06,0,0,0-2.72,1.69A1,1,0,0,1,374.85,360.46Z"/><path class="cls-19" d="M337.17,369.77c-9.51-13.81-10.7-32.58-10.7-32.58l-16.26-10.91c-2.48-14-16-10.75-16-10.75s-.1,1.57-.37,4.15c-1,7.78-4.71,24.13-18.48,28-15.89,4.44-20.37,20.86-13.07,28.15s8.67,13,8.67,20h0c-.92,23.87,19.86,27.16,19.86,27.16s2.43-7.5,3.39-10.66c3.88-12.81,13.34-25.58,30.75-27,13.95-1.16,24.78,20.76,24.78,20.76C354.6,386.79,342.94,378.14,337.17,369.77Z"/><path class="cls-8" d="M325.58,340.88c4.08-.1,3.73-15-.35-14.91a7.46,7.46,0,0,0,.35,14.91Z"/></g><g class="cls-31"><path class="cls-8" d="M139.61,421.66c-1.08,10.89,49.35.5,49.07-8.63-.26-8.61-6.78-26.89-6.78-33.69,0-17.13-14,0-26-1.59C154,388.92,145.68,394.77,139.61,421.66Z"/><path class="cls-7" d="M155.57,379.38a29.59,29.59,0,0,0,11,2,67.47,67.47,0,0,0,11.35-.66s-8,5.39-22.7.11Z"/><path class="cls-5" d="M154.62,383.14S137.18,388,129.48,413c-6.14,19.93-11.17,69.38-11.17,69.38s74.13,17.71,106.34,5.15c0,0-7.54-62-18.05-80.07-8.53-14.68-23.91-22.32-23.91-22.32s-9,2.6-16.29,2.18C156.82,386.75,154.62,383.14,154.62,383.14Z"/><path class="cls-8" d="M187.7,293.85a70.15,70.15,0,0,1,16.38,8.58c8.46,6,17,15.32,17.15,28.4a55.68,55.68,0,0,1-3.8,21.12c-6.24,15.63-20.07,27-40.61,29-14.5,1.4-29.76-1.94-40.49-11.4s-16-28-11.81-42.63,11.74-21.95,23-27.9S172.6,291.38,187.7,293.85Z"/><path class="cls-19" d="M116.77,313c3.49-10.1,7.15-6,4.11-9.43-1.32-1.5-3.63-7.71,4.37-14.75,2.47-2.17,8.82-4.56,11.59-2.79.6-4.25,1.21-7.25,4.78-9.18,8.08-4.38,13.8-3.58,18.33,5.87,1.33.27,2.9-11.77,11.57-8.32,2.32.92,3.12,4,3.48,4.74a3.32,3.32,0,0,0,2.43,1.83,18.09,18.09,0,0,1,3.91-3.15c3.11-1.6,7-.85,9.9,1.18a19.39,19.39,0,0,1,6.15,8.35,25.59,25.59,0,0,1,9.78-2.15,11.42,11.42,0,0,1,8.86,4c2.44,3.18,2.44,7.54,2.33,11.55,4.18-2.06,9.73.46,11.32,4.84a17.37,17.37,0,0,1-1,14.58c-.18.37.13.85.42,1.14a2.12,2.12,0,0,0,1.43.41c2.18.13,4.51.79,5.83,2.53,1.75,2.31,1.65,8.11.66,10.84-1.62,4.5-4.55,6.22-7.6,9.91,1.35,6.7-3.71,14-10.46,15.1,1,2.21-.18,4.94-2.16,6.33a9.91,9.91,0,0,1-7,1.32,7.31,7.31,0,0,1-4.51-1.95c-2.29-2.44-1.3-6.38.07-9.43a6,6,0,0,1-3-5.07,12.14,12.14,0,0,1,1.53-5.88c.5-1,3.51-2-.7-5-2.06-1.48-2.16-4.79-1.09-7.09a6.4,6.4,0,0,1,2.07-2.46l-.51-.29A7,7,0,0,0,201,330a7.41,7.41,0,0,1-6-7.37,4.53,4.53,0,0,0-.28-2.72,2.93,2.93,0,0,0-2.7-1.17c-8.49.79-13.8-.85-16.59-8.61-1.24,3.39-8.3,5.17-11.82,4.4s-6.93-8.22-6.64-11.82c-2.12,3.12-6.77,14-15.66,6.05-9.26,10.33-18.68,23.64-14.76,47.7-5-5.32-6.46-20-4.28-27.29C117.78,324.85,114.3,320.18,116.77,313Z"/><path class="cls-18" d="M171,359.34s2.77-2.74.37-5.5a5.31,5.31,0,0,0-6.23-1.39,4.58,4.58,0,0,0-2.63,3.66"/><path class="cls-5" d="M183.11,336c-.2,2.11.85,3.94,2.34,4.09s2.88-1.45,3.08-3.57-.84-3.95-2.34-4.09S183.32,333.92,183.11,336Z"/><path class="cls-5" d="M140.05,333.18c-.2,2.12.84,3.95,2.34,4.09s2.87-1.45,3.08-3.56-.84-3.95-2.34-4.09S140.26,331.07,140.05,333.18Z"/><path class="cls-11" d="M162.47,347.88h-.1a16.68,16.68,0,0,1-2.43-.6c-2.14-.8-2.83-2-3-2.9s-.11-2.37,1.58-4.14c1.51-1.58,2-5,2.07-6.12a1.14,1.14,0,0,1,1.19-1.06,1.11,1.11,0,0,1,1.05,1.19c0,.2-.31,5-2.68,7.54-.77.8-1.14,1.57-1,2.09s.69.95,1.62,1.3a13.33,13.33,0,0,0,2,.48,1.12,1.12,0,0,1-.27,2.23Z"/><path class="cls-12" d="M184.42,348.1c-.33,3.42,3.24,6.58,8,7.06s8.86-1.91,9.19-5.33-3.23-6.58-8-7.06S184.76,344.68,184.42,348.1Z"/><path class="cls-12" d="M126.68,344.06c-.34,3.42,3.23,6.58,8,7.06s8.86-1.91,9.2-5.33-3.24-6.58-8-7.06S127,340.63,126.68,344.06Z"/><path class="cls-5" d="M177.63,329.87s-2.46,0-2.19-2,6.16-5.69,9.86-5.22,7.18,3.28,6.57,4.09-3.31-.53-6.21.69S180.13,330.19,177.63,329.87Z"/><path class="cls-5" d="M151.6,326.36a1,1,0,0,0,0-1.22,9,9,0,0,0-6.83-3.6c-5-.21-6.39.6-6.12,1.25s5.43,1.72,6.67,2.92C147.81,328.13,150.06,328.27,151.6,326.36Z"/></g><g class="cls-32"><path class="cls-8" d="M279.36,430c1,10.41-45.17.48-44.9-8.26.25-8.23,4-25.6,5.64-31.17,4.49-15.76,12.53,3.5,24,1.95C268.53,401.24,273.55,404.29,279.36,430Z"/><path class="cls-7" d="M264.83,393.93a27.79,27.79,0,0,1-9.56,1.37,44.17,44.17,0,0,1-13-1.84s9.26,6.7,23.3,1.65Z"/><path class="cls-17" d="M266.92,397.29s-1.37,3.69-10.26,4c-12.55.4-18.09-4.74-18.09-4.74s-15,2-20.91,10.61C197.6,436.45,192.5,516.06,192.5,516.06c29.84,11.64,107.66-3.63,107.66-3.63s.89-54-4.83-82.35C288.67,397,266.92,397.29,266.92,397.29Z"/><path class="cls-8" d="M297,347.72c-2.71-15-4-22.89-14.18-30.35s-23.74-11.09-39-10.79a69.86,69.86,0,0,0-17.39,6.15c-9.21,4.73-19,12.71-21,25.61a55.61,55.61,0,0,0,.76,21.4c3.95,16.32,12.07,29.86,36,34.37,14.29,2.7,29.67,2.31,41.61-5.51C288.12,385.75,301.59,373.13,297,347.72Z"/><path class="cls-5" d="M295.54,318.42c7.63-.77,6.85-14.08-3.85-9.63,4.25-3.47,9.13-9.2,4.31-15.11-5.8-7.11-21.61-4.69-23.23,5.86.3-1.37,3.29-10.3-1.81-13-11.88-6.21-16.66,6.29-15.48,9.91.13.39-45.07-8-56.38,32.95-3.15,14.95,1.93,30.9,11.59,32.89,3.27.67,8.34-.32,7.41-3.52-4.58-12.57-6.48-16.67.55-20.19,5.65-2.82,51.92,2.78,69.35-8.48,7.67,11.52,8.78,13.64,10.25,29.52C304,355.1,302.06,328.24,295.54,318.42Z"/><path class="cls-5" d="M243.2,351.14c.17,2-.86,3.8-2.31,3.92s-2.76-1.45-2.92-3.49.86-3.8,2.31-3.92S243,349.09,243.2,351.14Z"/><path class="cls-5" d="M284.84,349c.17,2-.87,3.8-2.32,3.92s-2.75-1.44-2.92-3.49.87-3.8,2.31-3.92S284.67,346.93,284.84,349Z"/><path class="cls-11" d="M263,362.86h.1a14.59,14.59,0,0,0,2.35-.54c2.08-.74,2.76-1.91,3-2.76s.13-2.29-1.47-4c-1.43-1.55-1.87-4.81-1.92-5.94a1.09,1.09,0,0,0-1.13-1,1.06,1.06,0,0,0-1,1.13c0,.2.23,4.88,2.49,7.32.73.79,1.08,1.53,1,2s-.68.91-1.59,1.24a14.65,14.65,0,0,1-1.95.44,1.08,1.08,0,0,0,.23,2.15Z"/><path class="cls-8" d="M216.2,362.88a6.63,6.63,0,1,1-5.93-7.27A6.65,6.65,0,0,1,216.2,362.88Z"/><path class="cls-12" d="M211.68,359a2.92,2.92,0,0,0-3.58.48c-2,1.62-2.09,3.86-.84,4.39,1.66.69,1.05-1.39,2.67-1.84s2.43.71,3.38-.61S211.68,359,211.68,359Z"/><path class="cls-11" d="M261.41,373.75c.17-1.92.63-3.33,2.76-3.72,2.68-.5,4.31,1.31,4.8,3.77.29,1.49,2.57.86,2.27-.63-.7-3.53-3.44-6-7.13-5.51-3.5.49-4.77,2.84-5.06,6.09-.13,1.51,2.23,1.5,2.36,0Z"/><path class="cls-12" d="M220.53,361.57c.1,3.45,4.08,6.15,8.88,6s8.6-3,8.5-6.5-4.08-6.16-8.88-6S220.42,358.11,220.53,361.57Z"/><path class="cls-12" d="M278.88,358.87c.11,3.46,4.08,6.15,8.88,6s8.61-3,8.5-6.5-4.07-6.16-8.87-6S278.78,355.41,278.88,358.87Z"/><path class="cls-33" d="M254,352a13.4,13.4,0,1,1-12-14.69A13.39,13.39,0,0,1,254,352Z"/><path class="cls-33" d="M295.86,348.16a13.4,13.4,0,1,1-12-14.68A13.4,13.4,0,0,1,295.86,348.16Z"/><path class="cls-33" d="M254,352s5.93-11.75,15.37-2.77"/><line class="cls-33" x1="226.68" y1="352.52" x2="211.42" y2="355.62"/></g></g></svg>