<svg id="Layer_1" data-name="Layer 1" xmlns="http://www.w3.org/2000/svg" viewBox="0 0 1208 1036"><defs><style>.cls-1{fill:#f5f5f5;}.cls-2{fill:#e0e0e0;}.cls-3{fill:#ebebeb;}.cls-4{fill:#263238;}.cls-5{fill:#c21e55;}.cls-6{opacity:0.2;}.cls-7{fill:#fff;}.cls-8{opacity:0.3;}.cls-9{fill:#455b64;}.cls-10{fill:#fbbd9d;}.cls-11{fill:#fafbfb;}.cls-12{fill:#ec996f;}.cls-13{fill:#b78876;}.cls-14{fill:#aa6551;}</style></defs><rect class="cls-1" x="973.43" y="228.06" width="148.86" height="186.2" transform="matrix(0.29, -0.96, 0.96, 0.29, 439.68, 1232.9)"/><path class="cls-2" d="M1158.39,276.55l-.87-.23-2.51-.72-9.71-2.85-36.55-10.81L979.88,223.62l.6-.33L937.85,365.9v0l-.36-.67,178.35,53.48-.56.31,31.19-103.37c3.77-12.43,6.74-22.19,8.76-28.87l2.34-7.61c.53-1.73.83-2.64.83-2.64s-.22.87-.71,2.57l-2.21,7.56L1147,315.53c-7.41,25-18,60.68-30.82,103.76l-.13.43-.43-.13-178.4-53.31-.52-.15.16-.52v0L979.55,223l.14-.47.46.14,129,38.88,36.37,11,9.59,2.92,2.44.76Z"/><rect class="cls-3" x="982.68" y="234.56" width="130.12" height="173.12" transform="translate(439.62 1232.76) rotate(-73.33)"/><polygon class="cls-2" points="946.16 358.63 1027.28 298.48 1048.65 357.7 1080.75 339.07 1112.01 408.28 946.16 358.63"/><path class="cls-2" d="M1081.24,304.29a13.63,13.63,0,1,1-9.15-17A13.63,13.63,0,0,1,1081.24,304.29Z"/><path class="cls-3" d="M174.68,288.44c10.93-4.33,18.86-15.36,19.18-28.53.41-17.26-12.37-31.57-28.55-32s-29.63,13.27-30,30.53c-.32,13.29,7.23,24.76,18.09,29.54-45.22,5.9-44.14,54.94-44.14,54.94l106.61,2.6S219.24,296.07,174.68,288.44Z"/><path class="cls-1" d="M1046.86,79.17l9.5-2L1071,43.89l-4-18.95s14.49-4,18,21.17S1089,64.58,1089,64.58s31.19-6.48,34.35-4.32c2.3,1.56,9.71,32.34,13.6,49.06,2,8.41-1.57,17.37-9,21a13.82,13.82,0,0,1-3.26,1.16c-7.77,1.65-48.82,3.75-48.82,3.75l-16.41,3.47Z"/><polygon class="cls-1" points="1018.58 79.73 1038.18 143.43 1054.44 139.99 1040.96 76.35 1018.58 79.73"/><path class="cls-1" d="M471.25,356.12A20.66,20.66,0,0,0,450.91,340c-9.32.34-17.81,8.06-19.08,17.3-1.35-9.23-9.9-16.88-19.23-17.13s-18.46,7.05-20.2,16.3c-1.26,6.74,1.05,13.76,4.85,19.47s9,10.33,14.09,14.89c7.18,6.39,13.81,12.39,21,18.78,7.12-6.45,13.18-12.51,20.3-19,5.08-4.6,10.22-9.27,14-15S472.57,362.85,471.25,356.12Z"/><path class="cls-1" d="M509.85,324.66a10,10,0,0,0-19.71.59,10,10,0,0,0-19.71-.42,13.47,13.47,0,0,0,2.42,9.73,40.1,40.1,0,0,0,7,7.45c3.59,3.2,6.9,6.2,10.49,9.39,3.56-3.22,6.59-6.25,10.15-9.48a40,40,0,0,0,7-7.51A13.49,13.49,0,0,0,509.85,324.66Z"/><path class="cls-4" d="M1164,962c0,.34-247.89.61-553.6.61S56.68,962.36,56.68,962s247.84-.61,553.67-.61S1164,961.68,1164,962Z"/><rect class="cls-3" x="279.85" y="171.32" width="168.29" height="134.55" transform="matrix(0.97, -0.25, 0.25, 0.97, -48.36, 99.38)"/><path class="cls-4" d="M428.49,152.3l-.79.23-2.28.61-8.83,2.36-33.32,8.79L265.73,195.11l.31-.53c10.1,38.75,21.68,83.17,33.94,130.18h0l-.59-.35,162.88-42.31-.29.5c-10.12-39.23-18.5-71.75-24.37-94.49-2.92-11.38-5.2-20.31-6.77-26.42l-1.77-7c-.39-1.58-.58-2.42-.58-2.42s.23.77.65,2.32,1,3.88,1.83,6.87c1.61,6.08,4,15,6.95,26.28l24.85,94.63.1.39-.39.11L299.63,325.37l-.47.12L299,325v0c-12.22-47-23.76-91.45-33.83-130.2l-.11-.43.42-.11,117.93-30.47,33.28-8.54,8.77-2.23,2.25-.56C428.24,152.34,428.49,152.3,428.49,152.3Z"/><rect class="cls-5" x="285.66" y="179.82" width="156.47" height="117.61" transform="matrix(0.97, -0.25, 0.25, 0.97, -48.37, 99.35)"/><polygon class="cls-5" points="302.99 315.24 337.47 230.72 381.75 266.46 397.81 237.01 454.42 275.82 302.99 315.24"/><path class="cls-5" d="M381.88,209.91a12.32,12.32,0,1,1-15-8.82A12.33,12.33,0,0,1,381.88,209.91Z"/><g class="cls-6"><polygon points="302.99 315.24 337.47 230.72 381.75 266.46 397.81 237.01 454.42 275.82 302.99 315.24"/></g><g class="cls-6"><path d="M381.88,209.91a12.32,12.32,0,1,1-15-8.82A12.33,12.33,0,0,1,381.88,209.91Z"/></g><rect class="cls-3" x="353.43" y="48.37" width="254.3" height="203.31" transform="translate(-9.36 34.16) rotate(-4.03)"/><path class="cls-4" d="M600.27,39.68s-.43.06-1.23.13l-3.55.29-13.78,1L529.79,45,346.65,58.22l.61-.7c4.27,60.36,9.18,129.55,14.37,202.77v0l-.79-.69,253.68-17.75-.57.65c-4.17-61.08-7.63-111.7-10.05-147.11-1.18-17.71-2.1-31.6-2.74-41.12-.3-4.72-.53-8.35-.69-10.85s-.2-3.77-.2-3.77.13,1.21.32,3.63.47,6,.83,10.73c.7,9.47,1.73,23.31,3,40.95l10.72,147.45,0,.62-.61,0L361,261.1l-.74.06,0-.74v0C355,187.17,350.17,118,345.94,57.61l-.05-.66.66,0L530.17,44.3,582,40.82l13.65-.88,3.49-.21Z"/><rect class="cls-5" x="362.2" y="61.18" width="236.43" height="177.71" transform="translate(-9.36 34.15) rotate(-4.03)"/><polygon class="cls-5" points="368.74 246.98 443.35 130.99 499.24 196.33 531.25 157.04 604.59 230.36 368.74 246.98"/><path class="cls-5" d="M515.09,112.37a18.62,18.62,0,1,1-19.88-17.26A18.63,18.63,0,0,1,515.09,112.37Z"/><g class="cls-6"><polygon points="368.74 246.98 443.35 130.99 499.24 196.33 531.25 157.04 604.59 230.36 368.74 246.98"/></g><g class="cls-6"><path d="M515.09,112.37a18.62,18.62,0,1,1-19.88-17.26A18.63,18.63,0,0,1,515.09,112.37Z"/></g><path class="cls-7" d="M947.81,29l-65.68,0c-8.81,0-16,7.46-16,16.66V57.49c0,9.21-7.14,16.67-15.95,16.66l-128-.07c-8.81,0-16-7.48-16-16.69V45.48c0-9.21-7.14-16.68-16-16.68l-23.1,0-57.49,0A51.67,51.67,0,0,0,558,80.42l-.16,829a51.68,51.68,0,0,0,51.65,51.69l338.1.2a51.69,51.69,0,0,0,51.71-51.67l.16-829A51.68,51.68,0,0,0,947.81,29Z"/><path class="cls-4" d="M947.81,29s.59,0,1.77.05a37.15,37.15,0,0,1,5.24.41,48.63,48.63,0,0,1,19.39,6.69A49.75,49.75,0,0,1,986,45.66a51.56,51.56,0,0,1,9.84,15.43,53.48,53.48,0,0,1,3.87,21q0,11.45,0,24.36c0,68.87.1,168.5.17,291.61s.05,269.71.08,432.49V908a55.41,55.41,0,0,1-2,15.76,52.48,52.48,0,0,1-6.6,14.57,56.38,56.38,0,0,1-10.77,11.95,52.32,52.32,0,0,1-29.85,11.58c-10.84.32-21.6.08-32.48.15l-65.82,0L717.4,961.9l-69.09,0-34.9,0a54.62,54.62,0,0,1-33.66-9.29,52.92,52.92,0,0,1-20.49-28.3c-1.82-5.65-2.16-11.68-2.15-17.49V889.34q0-34.8,0-69.11,0-68.62,0-135.13c0-88.58.07-174,.1-255.43s.07-158.75.11-231.15q0-54.28.06-104.75,0-6.3,0-12.53c0-2.09.18-4.19.29-6.27.36-2.06.52-4.15,1.06-6.16a52.71,52.71,0,0,1,10.87-21.9,53.74,53.74,0,0,1,19.17-14.33,54.33,54.33,0,0,1,23-4.35l45.06.05,21.67,0h10.62a16.55,16.55,0,0,1,10.17,2.85,17.15,17.15,0,0,1,6.33,8.3c1.32,3.32,1,6.9,1.05,10.21,0,1.68,0,3.36,0,5a36.44,36.44,0,0,0,.16,4.93,16.32,16.32,0,0,0,3.86,8.65,15.24,15.24,0,0,0,7.9,4.9,17.65,17.65,0,0,0,4.66.46H728l18.65,0,68.15.1,30,0c2.37,0,4.79.11,7-.09a15.28,15.28,0,0,0,6.33-2.22,16.36,16.36,0,0,0,7.24-10.41,28.72,28.72,0,0,0,.4-6.28c0-2.09,0-4.15,0-6.18a34.62,34.62,0,0,1,.27-6,17.33,17.33,0,0,1,2-5.54,16.27,16.27,0,0,1,8.25-7.29c3.39-1.48,7-1,10.26-1.1l33.53.09,20.61.09c4.65,0,7,.08,7,.08s-2.38.05-7,.07l-20.61.06-33.53.05c-3.29.08-6.82-.35-10.09,1.1a15.76,15.76,0,0,0-8,7.1,16.79,16.79,0,0,0-1.88,5.38,34.15,34.15,0,0,0-.25,5.94q0,3,0,6.18a29.49,29.49,0,0,1-.4,6.39A17,17,0,0,1,858.56,72,15.88,15.88,0,0,1,852,74.36c-2.39.21-4.71.06-7.11.11h-30l-68.15,0H723.26A18.31,18.31,0,0,1,718.4,74a16.15,16.15,0,0,1-8.35-5.17A17.29,17.29,0,0,1,706,59.75a37.14,37.14,0,0,1-.17-5c0-1.67,0-3.35,0-5,0-3.38.26-6.78-1-9.9a16.19,16.19,0,0,0-6-7.85,15.61,15.61,0,0,0-9.65-2.66H611.8A51.39,51.39,0,0,0,570.49,47.6a51.86,51.86,0,0,0-10.63,21.45c-.52,2-.67,4-1,6-.1,2-.25,4.08-.27,6.16V93.77q0,50.4,0,104.75c0,72.4,0,149.75,0,231.15s0,166.85,0,255.43q0,66.45,0,135.13,0,34.31,0,69.11v17.42c0,5.8.32,11.56,2.1,17.08a51.48,51.48,0,0,0,19.91,27.51,53.13,53.13,0,0,0,32.83,9l34.9,0,69.09.05,135.09.09,65.82,0c10.85-.06,21.73.18,32.4-.13a50.93,50.93,0,0,0,29-11.27,54.35,54.35,0,0,0,10.48-11.62,50.84,50.84,0,0,0,6.43-14.18A53.63,53.63,0,0,0,998.61,908V892.31q0-31.26,0-61.78c.09-162.78.17-309.37.24-432.49s.22-222.74.29-291.61q0-12.9,0-24.36a53.27,53.27,0,0,0-3.77-20.82,51.51,51.51,0,0,0-9.71-15.35,49.63,49.63,0,0,0-11.68-9.55,49,49,0,0,0-19.25-6.8,40.87,40.87,0,0,0-5.22-.47Z"/><path class="cls-4" d="M957.8,112.66c0,.22-8.54.47-19.08.56s-19.08,0-19.08-.25,8.54-.47,19.08-.56S957.8,112.43,957.8,112.66Z"/><path class="cls-4" d="M957.88,122.42c0,.22-8.54.47-19.07.56s-19.09,0-19.09-.25,8.54-.47,19.08-.56S957.88,122.2,957.88,122.42Z"/><path class="cls-4" d="M958,132.18c0,.22-8.54.48-19.07.56s-19.09,0-19.09-.24,8.54-.48,19.08-.56S958,132,958,132.18Z"/><path class="cls-4" d="M858,365.94c0,.34-35.59.61-79.47.61s-79.48-.27-79.48-.61,35.58-.61,79.48-.61S858,365.6,858,365.94Z"/><path class="cls-5" d="M660.05,397.75v19.56h-4.53V401.38h-3.91v-3.63Z"/><path class="cls-5" d="M663.45,407.53c0-6.46,3.58-10.12,8.39-10.12s8.38,3.66,8.38,10.12-3.55,10.12-8.38,10.12S663.45,414,663.45,407.53Zm12.21,0c0-4.44-1.56-6.29-3.82-6.29s-3.8,1.85-3.8,6.29,1.56,6.29,3.8,6.29S675.66,412,675.66,407.53Z"/><path class="cls-5" d="M690.77,409.63l-2.63,2.73v4.95h-4.49V397.75h4.49v9.14l8.67-9.14h5l-8.11,8.72,8.58,10.84H697Z"/><path class="cls-4" d="M637.66,433.8v5.95h7.42v.91h-7.42v6.15h-1V432.89H646v.91Z"/><path class="cls-4" d="M647.36,441.62a5.19,5.19,0,1,1,5.19,5.26A5.05,5.05,0,0,1,647.36,441.62Zm9.37,0a4.18,4.18,0,1,0-4.18,4.37A4.12,4.12,0,0,0,656.73,441.62Z"/><path class="cls-4" d="M660.82,432.05h1v14.76h-1Z"/><path class="cls-4" d="M666,432.05h1v14.76h-1Z"/><path class="cls-4" d="M670.07,441.62a5.19,5.19,0,1,1,5.19,5.26A5,5,0,0,1,670.07,441.62Zm9.36,0a4.18,4.18,0,1,0-4.17,4.37A4.12,4.12,0,0,0,679.43,441.62Z"/><path class="cls-4" d="M698.06,436.43l-3.94,10.38h-.93l-3.5-9-3.52,9h-.91l-3.94-10.38h.95l3.46,9.26,3.54-9.26h.86l3.52,9.24,3.5-9.24Z"/><path class="cls-4" d="M708.84,441.85h-8.93a4.45,4.45,0,0,0,7.72,2.69l.57.66a5,5,0,0,1-3.91,1.68,5.09,5.09,0,0,1-5.35-5.26,5,5,0,1,1,9.92,0C708.86,441.66,708.84,441.76,708.84,441.85Zm-8.91-.77h8a4,4,0,0,0-8,0Z"/><path class="cls-4" d="M716.85,436.35v1l-.24,0c-2.3,0-3.68,1.53-3.68,4.1v5.41h-1V436.43h.95v2.26A4,4,0,0,1,716.85,436.35Z"/><path class="cls-4" d="M718.16,445.55l.46-.79a6.09,6.09,0,0,0,3.74,1.25c2.19,0,3.06-.77,3.06-1.95,0-3-6.88-.79-6.88-4.87,0-1.57,1.31-2.84,3.94-2.84a6.37,6.37,0,0,1,3.56,1l-.46.8a5.32,5.32,0,0,0-3.12-.94c-2,0-2.92.84-2.92,1.95,0,3.12,6.87.92,6.87,4.87,0,1.69-1.45,2.84-4.09,2.84A6.51,6.51,0,0,1,718.16,445.55Z"/><path class="cls-5" d="M766.64,413.62v3.69H751.86v-2.93l7.55-7.13c1.73-1.65,2-2.65,2-3.6,0-1.54-1.07-2.44-3.13-2.44a4.82,4.82,0,0,0-4.06,2L751,401.05a9.08,9.08,0,0,1,7.76-3.64c4.37,0,7.27,2.24,7.27,5.79,0,1.9-.53,3.63-3.27,6.17l-4.5,4.25Z"/><path class="cls-5" d="M768.45,407.53c0-6.46,3.58-10.12,8.38-10.12s8.39,3.66,8.39,10.12-3.55,10.12-8.39,10.12S768.45,414,768.45,407.53Zm12.21,0c0-4.44-1.56-6.29-3.83-6.29s-3.8,1.85-3.8,6.29,1.57,6.29,3.8,6.29S780.66,412,780.66,407.53Z"/><path class="cls-5" d="M795.77,409.63l-2.63,2.73v4.95h-4.5V397.75h4.5v9.14l8.66-9.14h5l-8.1,8.72,8.58,10.84H802Z"/><path class="cls-4" d="M760.61,432.89h1v13h8v.92h-9Z"/><path class="cls-4" d="M771.6,433.11a.82.82,0,0,1,.82-.82.81.81,0,1,1-.82.82Zm.32,3.32h1v10.38h-1Z"/><path class="cls-4" d="M780.81,441.26l-2.7,2.46v3.09h-1V432.05h1v10.44l6.64-6.06H786l-4.48,4.19,4.92,6.19h-1.24Z"/><path class="cls-4" d="M797.15,441.85h-8.92a4.44,4.44,0,0,0,7.71,2.69l.58.66a5,5,0,0,1-3.92,1.68,5.09,5.09,0,0,1-5.35-5.26,5,5,0,0,1,5-5.27,4.91,4.91,0,0,1,4.95,5.23C797.17,441.66,797.15,441.76,797.15,441.85Zm-8.9-.77h8a4,4,0,0,0-8,0Z"/><path class="cls-4" d="M798.72,445.55l.46-.79a6.09,6.09,0,0,0,3.74,1.25c2.19,0,3.06-.77,3.06-1.95,0-3-6.88-.79-6.88-4.87,0-1.57,1.31-2.84,3.94-2.84a6.37,6.37,0,0,1,3.56,1l-.46.8a5.32,5.32,0,0,0-3.12-.94c-2,0-2.92.84-2.92,1.95,0,3.12,6.87.92,6.87,4.87,0,1.69-1.45,2.84-4.09,2.84A6.51,6.51,0,0,1,798.72,445.55Z"/><path class="cls-5" d="M866.91,411.33c0,3.3-2.54,6.32-8.1,6.32a13.45,13.45,0,0,1-7.46-2.1l1.76-3.47a9.46,9.46,0,0,0,5.58,1.77c2.27,0,3.67-.93,3.67-2.52s-1.1-2.4-3.67-2.4h-2.06v-3l4-4.56h-8.33v-3.63H866v2.93l-4.42,5C865.12,406.27,866.91,408.45,866.91,411.33Z"/><path class="cls-5" d="M868.86,414.8a2.71,2.71,0,0,1,5.42,0,2.71,2.71,0,1,1-5.42,0Z"/><path class="cls-5" d="M894.23,413.2H891v4.11h-4.42V413.2H876.09v-3l9.22-12.41h4.75l-8.55,11.76h5.25v-3.66H891v3.66h3.19Z"/><path class="cls-5" d="M910.28,411.16c0,3.47-2.54,6.49-8.13,6.49a13.53,13.53,0,0,1-7.46-2.1l1.79-3.47a9.4,9.4,0,0,0,5.56,1.77c2.26,0,3.66-1,3.66-2.55s-1-2.54-4.56-2.54h-5l1-11h11.93v3.63h-8.16l-.3,3.72h1.59C908,405.1,910.28,407.7,910.28,411.16Z"/><path class="cls-5" d="M928.27,411.13c0,4-3.27,6.52-7.41,6.52-5.39,0-8.74-3.39-8.74-9.7,0-6.76,4.08-10.54,10-10.54a10.53,10.53,0,0,1,5.45,1.35l-1.67,3.32a6.45,6.45,0,0,0-3.67-1c-3.26,0-5.36,1.93-5.5,5.68a6.59,6.59,0,0,1,4.84-1.74C925.31,405,928.27,407.45,928.27,411.13Zm-4.39.23c0-1.79-1.31-2.94-3.32-2.94s-3.39,1.23-3.39,2.94,1.26,2.9,3.44,2.9C922.54,414.26,923.88,413.15,923.88,411.36Z"/><path class="cls-4" d="M858,445l.46-.76a6.62,6.62,0,0,0,4.59,1.75c2.78,0,4-1.21,4-2.72,0-4.18-8.69-1.67-8.69-6.8,0-2,1.51-3.7,4.93-3.7A7.48,7.48,0,0,1,867.5,434l-.37.82a6.88,6.88,0,0,0-3.82-1.18c-2.71,0-3.92,1.26-3.92,2.79,0,4.17,8.69,1.71,8.69,6.76,0,2-1.57,3.68-5,3.68A7.14,7.14,0,0,1,858,445Z"/><path class="cls-4" d="M876.35,446.15a3.13,3.13,0,0,1-2.13.73,2.57,2.57,0,0,1-2.82-2.82v-6.78h-1.91v-.85h1.91v-2.27h1v2.27h3.3v.85h-3.3V444c0,1.33.66,2.07,1.93,2.07a2.36,2.36,0,0,0,1.61-.58Z"/><path class="cls-4" d="M877.6,441.62a5.19,5.19,0,1,1,5.19,5.26A5.05,5.05,0,0,1,877.6,441.62Zm9.37,0a4.18,4.18,0,1,0-4.18,4.37A4.12,4.12,0,0,0,887,441.62Z"/><path class="cls-4" d="M896,436.35v1l-.23,0c-2.31,0-3.68,1.53-3.68,4.1v5.41h-1V436.43h1v2.26A3.93,3.93,0,0,1,896,436.35Z"/><path class="cls-4" d="M898.4,433.11a.82.82,0,0,1,.82-.82.81.81,0,1,1-.82.82Zm.32,3.32h1v10.38h-1Z"/><path class="cls-4" d="M912.68,441.85h-8.93a4.44,4.44,0,0,0,7.71,2.69l.58.66a5,5,0,0,1-3.92,1.68,5.09,5.09,0,0,1-5.35-5.26,5,5,0,0,1,5-5.27,4.91,4.91,0,0,1,5,5.23C912.7,441.66,912.68,441.76,912.68,441.85Zm-8.91-.77h8a4,4,0,0,0-8,0Z"/><path class="cls-4" d="M914.25,445.55l.45-.79a6.09,6.09,0,0,0,3.74,1.25c2.19,0,3.07-.77,3.07-1.95,0-3-6.89-.79-6.89-4.87,0-1.57,1.32-2.84,3.94-2.84a6.32,6.32,0,0,1,3.56,1l-.46.8a5.3,5.3,0,0,0-3.12-.94c-2,0-2.92.84-2.92,1.95,0,3.12,6.88.92,6.88,4.87,0,1.69-1.45,2.84-4.1,2.84A6.46,6.46,0,0,1,914.25,445.55Z"/><rect class="cls-5" x="638.91" y="827.97" width="291.66" height="81.22" rx="16.59"/><path class="cls-7" d="M748.25,861.49v4.75h8.32v3.34h-8.32v6.55h-4.16v-18h13.58v3.34Z"/><path class="cls-7" d="M758.83,869.22c0-4.16,3.22-7.12,7.61-7.12s7.58,3,7.58,7.12-3.19,7.12-7.58,7.12S758.83,873.38,758.83,869.22Zm11.13,0a3.55,3.55,0,1,0-3.52,3.83A3.49,3.49,0,0,0,770,869.22Z"/><path class="cls-7" d="M776.69,857.07h4v19.06h-4Z"/><path class="cls-7" d="M784.43,857.07h4v19.06h-4Z"/><path class="cls-7" d="M791.14,869.22c0-4.16,3.21-7.12,7.6-7.12s7.58,3,7.58,7.12-3.19,7.12-7.58,7.12S791.14,873.38,791.14,869.22Zm11.12,0a3.54,3.54,0,1,0-3.52,3.83A3.49,3.49,0,0,0,802.26,869.22Z"/><path class="cls-7" d="M830.8,862.31l-5,13.82h-3.85l-3.11-8.58-3.21,8.58h-3.85l-5-13.82h3.78l3.26,9.35,3.39-9.35h3.39l3.29,9.35,3.37-9.35Z"/><path class="cls-2" d="M991.61,492.74c0,.34-93.66.62-209.16.62s-209.17-.28-209.17-.62,93.63-.61,209.17-.61S991.61,492.41,991.61,492.74Z"/><rect class="cls-1" x="574.42" y="508.31" width="166.52" height="161.1"/><polygon class="cls-2" points="587.33 655.63 633.39 572.73 671.07 625.72 693.96 597.58 728.02 655.63 587.33 655.63"/><path class="cls-2" d="M687.12,556.6a12,12,0,1,1-12-12A12,12,0,0,1,687.12,556.6Z"/><rect class="cls-3" x="740.93" y="681.69" width="109.42" height="105.86"/><polygon class="cls-2" points="749.42 778.49 779.69 724.02 804.45 758.84 819.49 740.35 841.87 778.49 749.42 778.49"/><path class="cls-2" d="M815,713.42a7.88,7.88,0,1,1-7.87-7.87A7.87,7.87,0,0,1,815,713.42Z"/><rect class="cls-3" x="574.42" y="681.69" width="157.81" height="105.86"/><polygon class="cls-2" points="586.65 778.49 630.31 724.02 666.02 758.84 687.71 740.35 719.99 778.49 586.65 778.49"/><path class="cls-2" d="M672.7,719.93a8.31,8.31,0,1,1-8.3-7.87A8.1,8.1,0,0,1,672.7,719.93Z"/><rect class="cls-3" x="861.7" y="681.69" width="109.42" height="105.86"/><polygon class="cls-2" points="870.18 778.49 900.45 724.02 925.21 758.84 940.25 740.35 962.63 778.49 870.18 778.49"/><path class="cls-2" d="M935.75,713.42a7.88,7.88,0,1,1-7.87-7.87A7.87,7.87,0,0,1,935.75,713.42Z"/><rect class="cls-1" x="751.17" y="508.31" width="230.65" height="161.1"/><polygon class="cls-2" points="764.08 655.63 830.25 572.73 884.37 625.72 917.25 597.58 966.18 655.63 764.08 655.63"/><path class="cls-2" d="M900.32,557.37c9.77,12.83-4.73,27.33-17.56,17.56C873,562.1,887.49,547.6,900.32,557.37Z"/><path class="cls-4" d="M641.18,122.61c0,.17-2.9.32-7.59.43s-11.16.18-18.31.18l-9.49,0a.57.57,0,0,1-.57-.56.59.59,0,0,1,.15-.39c3.28-3.52,6.11-6.49,8.14-8.56a22.17,22.17,0,0,1,3.36-3.15c.1.09-1,1.42-2.85,3.62s-4.6,5.28-7.81,8.86l-.42-1,9.49,0c7.15,0,13.63.07,18.31.18S641.18,122.44,641.18,122.61Z"/><path class="cls-4" d="M605.79,122.61c.23-.25,3.16,2,6.55,5.13s5.95,5.78,5.72,6-3.16-2.05-6.55-5.13S605.56,122.86,605.79,122.61Z"/><path class="cls-4" d="M1049.23,892.28a6.53,6.53,0,0,1,.49-1.18l1.59-3.39a85.76,85.76,0,0,0,4.67-13.56c3.09-12.06,4.16-30.48-.4-52.37a281.7,281.7,0,0,0-9.71-35.17c-4.12-12.48-8.89-25.73-12.79-40s-6.9-29.79-6.31-46,5.41-32.55,10.71-48.73,10.77-32,12.41-48a73.16,73.16,0,0,0-8.8-44.32c-7-12.93-15.85-24-22.46-35.44A123,123,0,0,1,1005.14,490a126.87,126.87,0,0,1-.86-52.79c2.6-12.29,5.51-18.64,5.51-18.64a6.42,6.42,0,0,1-.33,1.24q-.4,1.32-1.11,3.57a137.3,137.3,0,0,0-3.43,14,128.75,128.75,0,0,0,1.37,52.39,122.83,122.83,0,0,0,13.55,33.65c6.59,11.31,15.46,22.33,22.61,35.41a74.64,74.64,0,0,1,9.08,45.21c-1.65,16.21-7.17,32.16-12.45,48.34s-10.06,32.26-10.67,48.27,2.37,31.36,6.17,45.57,8.55,27.5,12.61,40a278.32,278.32,0,0,1,9.56,35.38c4.44,22,3.17,40.65-.14,52.75a78.43,78.43,0,0,1-5,13.54c-.74,1.4-1.32,2.5-1.75,3.33A8.39,8.39,0,0,1,1049.23,892.28Z"/><path class="cls-5" d="M1027.61,535.36s-13.42-42.91,10.65-68a1.48,1.48,0,0,1,2.55.73C1042.1,475.15,1043.7,496.73,1027.61,535.36Z"/><path class="cls-4" d="M1035.65,481.62c.23.05-.16,3.07-.91,7.92-.88,5.45-1.91,11.86-3.06,18.93s-2.14,13.47-3,18.92c-.74,4.85-1.18,7.85-1.42,7.83s-.2-3.07.24-8,1.31-11.65,2.52-19.05,2.51-14.07,3.55-18.88S1035.42,481.58,1035.65,481.62Z"/><path class="cls-5" d="M1043.37,636.56s8.21-44.2,41.23-55.15a1.49,1.49,0,0,1,1.91,1.84C1084.34,590.12,1075.66,610,1043.37,636.56Z"/><path class="cls-4" d="M1075.61,592.83c.18.14-1.57,2.63-4.5,6.57l-11.56,15.3L1048,630c-2.91,3.94-4.71,6.39-4.91,6.26s1.26-2.81,3.94-6.94,6.6-9.68,11.14-15.66,8.79-11.26,12-15S1075.43,592.68,1075.61,592.83Z"/><path class="cls-5" d="M1034.45,747.46s-5-44.68,23.43-64.75a1.49,1.49,0,0,1,2.37,1.21C1060.16,691.12,1057.61,712.61,1034.45,747.46Z"/><path class="cls-4" d="M1052.59,696.24c.22.09-.74,3-2.4,7.6-1.9,5.19-4.14,11.27-6.61,18l-6.56,18c-1.65,4.62-2.65,7.48-2.89,7.42s.39-3,1.76-7.79,3.5-11.18,6.11-18.22,5.14-13.33,7.09-17.84S1052.38,696.16,1052.59,696.24Z"/><path class="cls-5" d="M1059.32,859s-3.38-44.83,25.74-63.87a1.49,1.49,0,0,1,2.32,1.29C1087,803.62,1083.73,825,1059.32,859Z"/><path class="cls-4" d="M1079.29,808.47c.21.09-.84,2.95-2.67,7.5l-7.25,17.75c-2.69,6.64-5.13,12.64-7.2,17.76-1.81,4.55-2.92,7.38-3.16,7.31s.51-3,2-7.72,3.9-11.05,6.76-18,5.62-13.14,7.72-17.58S1079.08,808.37,1079.29,808.47Z"/><path class="cls-5" d="M1008.32,497.66s-39.85-20.81-40.63-55.6a1.48,1.48,0,0,1,2.32-1.28C975.94,444.87,992.35,459,1008.32,497.66Z"/><path class="cls-4" d="M976,454c.19-.13,2,2.28,5,6.23l11.24,15.54,11.27,15.49c2.91,4,4.73,6.38,4.54,6.54s-2.31-2-5.48-5.8-7.32-9.16-11.7-15.25-8.19-11.71-10.85-15.84S975.77,454.14,976,454Z"/><path class="cls-5" d="M1051.12,589.81s-41-18.35-43.94-53a1.49,1.49,0,0,1,2.24-1.43C1015.58,539.09,1032.82,552.18,1051.12,589.81Z"/><path class="cls-4" d="M1016.17,548.21c.18-.14,2.19,2.15,5.33,5.92L1033.66,569l12.19,14.79c3.15,3.75,5.11,6.07,4.93,6.25s-2.43-1.89-5.82-5.47-7.86-8.69-12.6-14.5-8.89-11.19-11.79-15.16S1016,548.35,1016.17,548.21Z"/><path class="cls-5" d="M1027.5,692.6s-28.18-35-15-67.21a1.48,1.48,0,0,1,2.64-.25C1019,631.27,1028.36,650.77,1027.5,692.6Z"/><path class="cls-4" d="M1015.34,639.65c.22,0,1,2.91,2,7.7,1.17,5.4,2.55,11.73,4.07,18.73s2.94,13.33,4.12,18.72c1.09,4.78,1.78,7.73,1.55,7.81s-1.31-2.79-2.7-7.52-3-11.32-4.61-18.65-2.82-14-3.6-18.87S1015.11,639.69,1015.34,639.65Z"/><path class="cls-5" d="M1055.42,813.57s-40.73-19-43-53.76a1.49,1.49,0,0,1,2.26-1.39C1020.74,762.26,1037.76,775.63,1055.42,813.57Z"/><path class="cls-4" d="M1021.17,771.38c.19-.13,2.16,2.19,5.23,6l11.91,15,11.94,15c3.09,3.81,5,6.17,4.83,6.33s-2.4-1.92-5.73-5.55-7.71-8.83-12.36-14.72-8.7-11.34-11.53-15.35S1021,771.52,1021.17,771.38Z"/><path class="cls-4" d="M1136.54,636.8a3.55,3.55,0,0,1,0,1c0,.78,0,1.72-.07,2.87-.12,2.7-.28,6.35-.48,10.9-.53,9.58-1.26,22.95-2.14,38.93v.09c-2.91,16.27-11.19,34.3-22.32,51.81-8.16,12.9-16.72,24.62-24.1,35.53s-13.7,20.94-18.07,29.87a127,127,0,0,0-8.46,21.92c-.71,2.68-1.25,4.78-1.56,6.21a11.65,11.65,0,0,1-.59,2.16,10.63,10.63,0,0,1,.26-2.23c.2-1.45.64-3.58,1.26-6.31a115.71,115.71,0,0,1,8-22.27c4.27-9.07,10.48-19.28,17.85-30.22s15.85-22.73,24-35.56c11.07-17.42,19.31-35.17,22.33-51.18l0,.09c1.13-16,2.06-29.32,2.74-38.89.37-4.54.66-8.18.88-10.88.11-1.14.21-2.08.28-2.86A3.36,3.36,0,0,1,1136.54,636.8Z"/><path class="cls-5" d="M1112.29,739.05s17.25-41.51-4.45-68.71a1.49,1.49,0,0,0-2.61.5C1103.31,677.78,1099.76,699.13,1112.29,739.05Z"/><path class="cls-4" d="M1109.15,684.81c.23,0,.76,3,1.36,7.86s1.3,11.63,1.83,19.11.79,14.28.79,19.21-.26,8-.48,8-.41-3-.71-7.93c-.36-5.51-.8-12-1.27-19.12s-1-13.61-1.34-19.12C1109,687.88,1108.92,684.84,1109.15,684.81Z"/><g class="cls-8"><path d="M1112.29,739.05s17.25-41.51-4.45-68.71a1.49,1.49,0,0,0-2.61.5C1103.31,677.78,1099.76,699.13,1112.29,739.05Z"/></g><path class="cls-5" d="M1058.86,839.11s13.83-42.78-10-68.14a1.49,1.49,0,0,0-2.56.72C1045,778.76,1043.14,800.33,1058.86,839.11Z"/><path class="cls-4" d="M1051.33,785.3c.23,0,1,2.9,2,7.71s2.24,11.5,3.38,18.91,1.94,14.17,2.34,19.07.38,8,.16,8-.65-3-1.34-7.84c-.81-5.46-1.77-11.87-2.83-19s-2-13.49-2.88-18.95C1051.46,788.36,1051.11,785.34,1051.33,785.3Z"/><g class="cls-8"><path d="M1058.86,839.11s13.83-42.78-10-68.14a1.49,1.49,0,0,0-2.56.72C1045,778.76,1043.14,800.33,1058.86,839.11Z"/></g><path class="cls-5" d="M1134.25,688.31s36.84-25.78,33.12-60.37a1.49,1.49,0,0,0-2.47-1C1159.55,631.79,1145.1,647.9,1134.25,688.31Z"/><g class="cls-8"><path d="M1134.25,688.31s36.84-25.78,33.12-60.37a1.49,1.49,0,0,0-2.47-1C1159.55,631.79,1145.1,647.9,1134.25,688.31Z"/></g><path class="cls-4" d="M1160.71,640.85c.2.11-1,2.92-3.06,7.37s-5.16,10.51-8.72,17.11-7,12.47-9.63,16.63-4.5,6.58-4.68,6.46,1.28-2.78,3.65-7.07c2.65-4.84,5.75-10.53,9.18-16.82l9.14-16.86C1159,643.38,1160.5,640.75,1160.71,640.85Z"/><path class="cls-5" d="M1073.71,796.69s44.43-6.92,56.33-39.62a1.49,1.49,0,0,0-1.79-2C1121.32,757.09,1101.25,765.19,1073.71,796.69Z"/><g class="cls-8"><path d="M1073.71,796.69s44.43-6.92,56.33-39.62a1.49,1.49,0,0,0-1.79-2C1121.32,757.09,1101.25,765.19,1073.71,796.69Z"/></g><path class="cls-4" d="M1118.37,765.73c.14.19-2.15,2.2-6,5.27s-9.26,7.17-15.36,11.52-11.78,8.12-16,10.69-6.94,3.93-7,3.74,2.38-1.94,6.4-4.74L1096,781.15,1111.66,770C1115.69,767.23,1118.22,765.55,1118.37,765.73Z"/><polygon class="cls-9" points="1021.15 878.45 1033.89 962.02 1084.78 961.93 1101.92 878.45 1021.15 878.45"/><path class="cls-4" d="M1094.47,910.69s-.13.12-.43.31-.73.47-1.34.76a18.36,18.36,0,0,1-5.69,1.7,20.92,20.92,0,0,1-9.35-.88,19.61,19.61,0,0,1-10.06-7.3,14.06,14.06,0,0,1-2.36-7,7.61,7.61,0,0,1,3.45-7.18c2.63-1.52,6-1,8.52.7a12.44,12.44,0,0,1,4.88,7.68,32.65,32.65,0,0,1,.63,9.44,31.13,31.13,0,0,1-2.06,9.65,21.31,21.31,0,0,1-5.9,8.41,16.41,16.41,0,0,1-9.79,4.09,18,18,0,0,1-10.19-3,30.69,30.69,0,0,1-7.6-6.87,16.79,16.79,0,0,1-3.85-9.19,10.64,10.64,0,0,1,3.62-8.85,8.27,8.27,0,0,1,9-.55,9.67,9.67,0,0,1,5.21,6.81,13.08,13.08,0,0,1-6.44,13.23,18,18,0,0,1-12.28,1.78,28.11,28.11,0,0,1-8.76-3.43,46.3,46.3,0,0,1-4.9-3.31,9.56,9.56,0,0,1-1.57-1.34,13.57,13.57,0,0,1,1.74,1.11c1.12.74,2.76,1.86,5,3.07a28.34,28.34,0,0,0,8.62,3.13,17.24,17.24,0,0,0,11.65-1.86c3.73-2.17,6.74-7.07,5.8-12.15a8.5,8.5,0,0,0-4.62-6,7,7,0,0,0-7.66.47,9.33,9.33,0,0,0-3.08,7.77,15.36,15.36,0,0,0,3.59,8.41,29.28,29.28,0,0,0,7.25,6.54,16.62,16.62,0,0,0,9.39,2.74,15.09,15.09,0,0,0,9-3.75,20,20,0,0,0,5.53-7.87,29.77,29.77,0,0,0,2-9.23,31.52,31.52,0,0,0-.55-9.05,11.24,11.24,0,0,0-4.31-7c-2.2-1.5-5.13-1.94-7.26-.72a6.51,6.51,0,0,0-3,6.14,13.22,13.22,0,0,0,2.11,6.49,18.86,18.86,0,0,0,9.49,7.11,20.79,20.79,0,0,0,9,1.08C1092,912.34,1094.4,910.48,1094.47,910.69Z"/><circle class="cls-2" cx="778.55" cy="248.4" r="98.63" transform="translate(410.18 977.88) rotate(-80.9)"/><path class="cls-4" d="M708.92,295.48c1.06-7.22,9.47-17.57,16.91-17.58a19.22,19.22,0,0,1-.16-21.12c2.87-4.3,7.5-7.46,9.47-12.22,2.22-5.39.51-11.48.72-17.29.31-8.5,4.74-16.26,9-23.65,3.94-6.76,8.75-14.18,16.52-15.84,4.91-1.05,10,.5,14.61,2.47,22.07,9.4,39.23,29.2,45.12,52.07,1.41,5.48,2.35,11.4,6.17,15.63,4,4.48,11.11,6.91,12.33,12.77.87,4.21-1.83,8.43-1.43,12.7.34,3.58,7,14,8.59,17.27,2.66,5.61,1.7,11.67-1,17.26s-9.61,11-15.73,12.56l-68.4-22.79c-6.43,3.66-12.84,17.83-20.23,18.7s-16.4,4.09-23.51-3.69C710.49,314.58,707.87,302.71,708.92,295.48Z"/><path class="cls-4" d="M822.34,227.45c-.77,5.73.8,15.19,3.93,20.08,2.1,3.28,5.6,5.42,9.06,7.3s7.08,3.67,9.7,6.57,4,7.25,2.27,10.72c6.16,2.3,8.93,10.15,6.67,16.22S845.51,298.5,839,299.71l-28.21-8.49-6.19-36,16.28-27.77"/><path class="cls-9" d="M825.8,264.16a2.66,2.66,0,0,1,.55.24,13.92,13.92,0,0,1,1.54.8,20.21,20.21,0,0,1,5,4.12,22.53,22.53,0,0,1,2.63,3.66,22.82,22.82,0,0,1,2,4.8,20.74,20.74,0,0,1,.08,12l-.1-.26a21.52,21.52,0,0,1,10.74,16.05,20.6,20.6,0,0,1-2,11.29,21.4,21.4,0,0,1-4.63,6.23,18.3,18.3,0,0,1-1.64,1.34,5.24,5.24,0,0,1-.62.41,4,4,0,0,1,.56-.48c.38-.3.92-.77,1.58-1.39a22.06,22.06,0,0,0,4.47-6.25,20.51,20.51,0,0,0,1.89-11.1,21,21,0,0,0-6.06-12.29,20.39,20.39,0,0,0-4.49-3.42l-.15-.09,0-.17a20.46,20.46,0,0,0,0-11.77,22.28,22.28,0,0,0-4.53-8.38,21.37,21.37,0,0,0-4.81-4.18c-.62-.42-1.16-.65-1.5-.86A3.22,3.22,0,0,1,825.8,264.16Z"/><path class="cls-5" d="M851.75,314.49,832.4,300.94a53.28,53.28,0,0,0-6.6-1.85s-34-9.61-35.35-10L758.79,294l-12.67,1.82a50.82,50.82,0,0,0-30.79,16.6l-5.75,6.49S732.92,348.22,781.2,347A98.33,98.33,0,0,0,794,345.83C833.58,339.62,851.75,314.49,851.75,314.49Z"/><path class="cls-10" d="M748.21,295.52,758.79,294l44.18.61,10.45,6.07s-31.06,28.5-40.22,29.83C750.16,333.86,748.21,295.52,748.21,295.52Z"/><path class="cls-5" d="M785.15,182.32a34.72,34.72,0,0,1,30.19,51.45c-2,3.57-4.79,7-8.67,8.2A71.58,71.58,0,0,0,785,186.38"/><path class="cls-5" d="M799.15,185.42c-1.78-3.7.12-8.32,3.29-10.92s7.29-3.65,11.27-4.6,8.12-1.94,11.36-4.45c-.47,6.42-2.07,13-6.22,17.94s-11.35,7.66-17.29,5.16"/><path class="cls-5" d="M803.26,189.65a9.06,9.06,0,0,1-8.42-1.25,19.13,19.13,0,0,1-5.62-6.76,29.13,29.13,0,0,1-3.61-10.22,17.08,17.08,0,0,1,1.81-10.57c4.69,5,9.86,9.2,12.54,15.51a18.7,18.7,0,0,1-.3,13.3"/><path class="cls-4" d="M816.55,210.43a6.3,6.3,0,0,1,.23,1.19A13.38,13.38,0,0,1,817,213c0,.56.13,1.19.14,1.89a37.8,37.8,0,0,1-.09,4.91,39.29,39.29,0,0,1-2.78,11.69,38.55,38.55,0,0,1-2.14,4.43c-.32.62-.67,1.14-1,1.62s-.56.86-.79,1.18a6.24,6.24,0,0,1-.75,1,7.07,7.07,0,0,1,.6-1.06c.21-.32.46-.73.73-1.21s.6-1,.91-1.64a44.4,44.4,0,0,0,2-4.43,42.71,42.71,0,0,0,2.75-11.57,43,43,0,0,0,.18-4.87c0-.7,0-1.32-.07-1.88s-.06-1-.1-1.41A6.12,6.12,0,0,1,816.55,210.43Z"/><path class="cls-4" d="M813.87,187.44a5.5,5.5,0,0,1-1,.76,10.59,10.59,0,0,1-3.09,1.2,24.29,24.29,0,0,1-11-.63l-.12,0,0-.13c-.06-.25-.12-.53-.18-.81a19,19,0,0,1-.28-6.37,10.87,10.87,0,0,1,1.8-4.89,9,9,0,0,1,2.54-2.43,6.4,6.4,0,0,1,1.15-.57,7.08,7.08,0,0,1-1,.71,9.83,9.83,0,0,0-2.38,2.46,10.9,10.9,0,0,0-1.66,4.77,19.6,19.6,0,0,0,.32,6.23c.06.27.12.54.17.8l-.15-.16a25.39,25.39,0,0,0,10.76.75,11.23,11.23,0,0,0,3.07-1A7.55,7.55,0,0,1,813.87,187.44Z"/><path class="cls-4" d="M817.38,176.34c0,.08-1.25.26-3.21.84a27.16,27.16,0,0,0-3.37,1.24,31.12,31.12,0,0,0-3.86,2.11,29.68,29.68,0,0,0-3.46,2.69,28.94,28.94,0,0,0-2.49,2.59c-1.32,1.57-2,2.66-2.06,2.62a4.13,4.13,0,0,1,.42-.8,17.52,17.52,0,0,1,1.39-2,23,23,0,0,1,2.46-2.7,25.51,25.51,0,0,1,7.43-4.87,24.43,24.43,0,0,1,3.45-1.18,18.93,18.93,0,0,1,2.41-.47A3.33,3.33,0,0,1,817.38,176.34Z"/><path class="cls-4" d="M803.08,189.54a.72.72,0,0,1,0,.26,3.16,3.16,0,0,1-.22.71,5.66,5.66,0,0,1-1.7,2.14,5.87,5.87,0,0,1-3.85,1.25,5.81,5.81,0,0,1-5-7.36,5.89,5.89,0,0,1,2.55-3.15,5.51,5.51,0,0,1,2.61-.8,3.1,3.1,0,0,1,.74,0c.17,0,.26.05.25.06s-.35,0-1,.07a5.78,5.78,0,0,0-2.45.9,5.7,5.7,0,0,0-2.33,3,5.46,5.46,0,0,0,4.67,6.83,5.72,5.72,0,0,0,3.64-1.09,5.81,5.81,0,0,0,1.73-2C803,189.88,803,189.53,803.08,189.54Z"/><path class="cls-4" d="M792.69,189.76s-.3-.47.11-1.14a1.92,1.92,0,0,1,1-.79,3.71,3.71,0,0,1,1.53-.16,7,7,0,0,1,3.64,1.08c-.05.13-1.62-.5-3.67-.64a2.5,2.5,0,0,0-2.26.69A2.3,2.3,0,0,0,792.69,189.76Z"/><path class="cls-4" d="M787.42,160.85a10.46,10.46,0,0,0-1.31,3.67,25.11,25.11,0,0,0-.2,4.25,28.17,28.17,0,0,0,.45,5.19,26,26,0,0,0,3.66,8.68c.7,1,1.31,1.77,1.75,2.29s.7.79.68.81a12.13,12.13,0,0,1-2.68-2.92,24,24,0,0,1-3.84-8.77,25.37,25.37,0,0,1-.43-5.28,23.3,23.3,0,0,1,.3-4.31,8.74,8.74,0,0,1,1-2.75A3,3,0,0,1,787.42,160.85Z"/><path class="cls-4" d="M791.86,171a6.8,6.8,0,0,1,1.21,1.46,26.44,26.44,0,0,1,2.27,4,23.76,23.76,0,0,1,1.51,4.32,6.22,6.22,0,0,1,.29,1.88c-.14,0-.72-2.81-2.2-6S791.74,171.1,791.86,171Z"/><path class="cls-4" d="M790.41,176.36c.09-.08,1.53,1.38,3.42,3.08a25.31,25.31,0,0,1,3.31,3.22,23.37,23.37,0,0,1-3.61-2.89A15.82,15.82,0,0,1,790.41,176.36Z"/><path class="cls-11" d="M812.84,196.47l-.12.12-.38.32c-.33.28-.83.66-1.46,1.09a22.11,22.11,0,0,1-11.31,3.71,17.55,17.55,0,0,1-1.82,0l-.49,0c-.11,0-.17,0-.17,0h.66c.43,0,1,0,1.82,0a23.71,23.71,0,0,0,5.86-1.12,23.35,23.35,0,0,0,5.38-2.57c.64-.41,1.15-.77,1.49-1l.39-.3Z"/><path class="cls-11" d="M817.89,206.84s0,0-.12.12l-.39.32c-.33.27-.83.65-1.47,1.08a24.32,24.32,0,0,1-5.36,2.71,24.89,24.89,0,0,1-5.87,1.34,17.6,17.6,0,0,1-1.82.1h-.67l.18,0,.49,0c.43,0,1-.07,1.81-.16a26.56,26.56,0,0,0,5.82-1.37,26.92,26.92,0,0,0,5.36-2.66c.64-.41,1.15-.77,1.49-1l.4-.29Z"/><path class="cls-11" d="M816.49,222a3,3,0,0,1-.37.27,11.88,11.88,0,0,1-1,.63,16.91,16.91,0,0,1-7.79,2c-.52,0-.94,0-1.23,0a2.35,2.35,0,0,1-.44-.05,1.59,1.59,0,0,1,.45,0c.29,0,.7,0,1.22,0a19.06,19.06,0,0,0,7.73-2l1.08-.58A1.76,1.76,0,0,1,816.49,222Z"/><path class="cls-11" d="M819.4,219.66a4.8,4.8,0,0,1-1.16.31,4.26,4.26,0,0,1-1.19.14,7.35,7.35,0,0,1,2.35-.45Z"/><path class="cls-11" d="M810.89,237.44a7.95,7.95,0,0,1-3.87-.28s.86.13,1.93.2S810.89,237.39,810.89,237.44Z"/><path class="cls-11" d="M794.63,192.62a4.88,4.88,0,0,1-1.15.74,4.62,4.62,0,0,1-1.23.57,5.48,5.48,0,0,1,1.15-.73A5.33,5.33,0,0,1,794.63,192.62Z"/><path class="cls-11" d="M790.37,183.63a14.81,14.81,0,0,0-2.53,1.36,14.22,14.22,0,0,0-2.11,1.94,2.53,2.53,0,0,1,.49-.7,8.44,8.44,0,0,1,3.33-2.37A3.07,3.07,0,0,1,790.37,183.63Z"/><path class="cls-11" d="M798.09,193.59a11.93,11.93,0,0,0,0-2.6,11.7,11.7,0,0,0-.71-2.5,2.27,2.27,0,0,1,.38.68,6.21,6.21,0,0,1,.5,1.8,6.35,6.35,0,0,1,0,1.87A2.3,2.3,0,0,1,798.09,193.59Z"/><path class="cls-11" d="M824.61,165.64a9.94,9.94,0,0,1-.94,1,19.81,19.81,0,0,1-3,2.28,37.8,37.8,0,0,1-4.93,2.55c-1.91.85-4,1.68-6.22,2.72a23.86,23.86,0,0,0-5.68,3.63,14.19,14.19,0,0,0-3.34,4.34,10.33,10.33,0,0,0-1,3.56c-.07.87,0,1.36,0,1.36a3.23,3.23,0,0,1,0-.35,8.47,8.47,0,0,1,0-1,10,10,0,0,1,1-3.6,14.12,14.12,0,0,1,3.34-4.42,24,24,0,0,1,5.72-3.66c2.17-1,4.31-1.88,6.22-2.71a39.31,39.31,0,0,0,4.93-2.51,20.57,20.57,0,0,0,3-2.22c.33-.3.57-.54.73-.71Z"/><path class="cls-11" d="M822.29,175.81a.79.79,0,0,1-.11.2l-.36.53c-.31.47-.79,1.13-1.42,1.91A33.79,33.79,0,0,1,808.13,188c-.92.41-1.67.72-2.2.9l-.61.21c-.14,0-.21.07-.22.06l.21-.09.59-.25c.53-.2,1.27-.52,2.17-.95a36.1,36.1,0,0,0,6.64-4.07,37.11,37.11,0,0,0,5.6-5.42c.63-.77,1.13-1.41,1.45-1.87l.39-.51Z"/><path class="cls-11" d="M786.52,163.77a16.38,16.38,0,0,1,2.59,1.37,21.39,21.39,0,0,1,8.68,11,16.06,16.06,0,0,1,.75,2.84.8.8,0,0,1-.07-.2c0-.17-.09-.36-.15-.56a20.89,20.89,0,0,0-.65-2A22.27,22.27,0,0,0,789,165.25a18.15,18.15,0,0,0-1.84-1.1l-.51-.27Z"/><path class="cls-4" d="M743.53,196c.34,4.54-2.66,8.6-5.69,12s-6.38,7-7,11.46c-1.16,8,6.66,15.41,5.05,23.32-.87,4.24-4.34,7.65-5,11.93s1.62,8.19,4.37,11.35,5.94,2.69,8.38,6.09a34.25,34.25,0,0,0,10.55,9.39c8.77,4.8,19.29-2.15,23.52-3.39"/><path class="cls-4" d="M809.83,214.62c4-1.76,4.35-16.24-5.78-17.92-4.07-.67-7.46-2.65-10.88-4.95-3-2-3.92-7.21-6.49-9.81A25.36,25.36,0,0,0,744,193.58c-1.48,5.87-.47,12.8,4.15,16.7,5.37,4.53,13.33,3.52,20.21,2.12s14.66-2.8,20.4,1.24c3.47,2.43,5.45,6.4,7.57,10.06s4.77,7.41,8.78,8.79c0,0,3,7.17.56,12.15s2.92-3.51,2.92-3.51,9.87-17.56,1.22-26.51"/><path class="cls-10" d="M758.47,316.25c-.05-9.46,0-36,0-35.95s-15-2.53-18.08-22.14c-1.53-9.75-1-25.73-.15-38.79.76-11.76,8.59-26.17,20.3-24.91l36.57,9.33a6.9,6.9,0,0,1,6.15,7h0L801,301.61Z"/><path class="cls-4" d="M746.46,230.57a2.52,2.52,0,0,0,2.42,2.54,2.41,2.41,0,0,0,2.6-2.26,2.53,2.53,0,0,0-2.42-2.55A2.41,2.41,0,0,0,746.46,230.57Z"/><path class="cls-4" d="M743.69,227.69c.31.33,2.21-1.08,4.92-1.07s4.68,1.37,5,1c.14-.14-.17-.74-1-1.37a6.91,6.91,0,0,0-4-1.23,6.61,6.61,0,0,0-3.92,1.25C743.82,227,743.53,227.54,743.69,227.69Z"/><path class="cls-4" d="M770.27,232c.32.33,2.23-1.08,4.93-1.07s4.68,1.37,5,1c.14-.14-.17-.73-1-1.37a6.91,6.91,0,0,0-4-1.23,6.58,6.58,0,0,0-3.92,1.25C770.41,231.26,770.12,231.85,770.27,232Z"/><path class="cls-4" d="M760.41,248.29c0-.15-1.66-.45-4.39-.8-.69-.08-1.34-.21-1.46-.69a3.49,3.49,0,0,1,.47-2l2.05-5.26c2.85-7.48,4.92-13.63,4.62-13.75s-2.86,5.87-5.71,13.35q-1,2.76-2,5.29a4,4,0,0,0-.37,2.71,1.75,1.75,0,0,0,1.14,1,4.86,4.86,0,0,0,1.17.16C758.7,248.43,760.4,248.44,760.41,248.29Z"/><path class="cls-12" d="M758.47,280.3a49.84,49.84,0,0,0,26.27-6.95c-.22,0-7.23,13.63-26,11.57Z"/><path class="cls-12" d="M761.19,256.1c-.32-1.67,1.64-2.21,3.08-3.1s2.27-2.09,3.62-1.06a5.25,5.25,0,0,1,1.66,2.33,3.2,3.2,0,0,1-.93,3.92,5.78,5.78,0,0,1-2.94,1.54,4.12,4.12,0,0,1-3.18-.75,3.2,3.2,0,0,1-1.21-3"/><path class="cls-4" d="M768.37,250.18c-.44,0-.45,2.91-3,5s-5.64,1.75-5.67,2.16c0,.18.7.57,2,.61a7.36,7.36,0,0,0,4.73-1.64,6.33,6.33,0,0,0,2.3-4.18C768.9,250.89,768.57,250.16,768.37,250.18Z"/><path class="cls-4" d="M769.87,226c.27.74,3,.4,6.14.79s5.74,1.26,6.16.6c.19-.32-.25-1-1.29-1.72a10.12,10.12,0,0,0-4.56-1.61,10.31,10.31,0,0,0-4.81.55C770.35,225,769.76,225.6,769.87,226Z"/><path class="cls-4" d="M744.06,218.33c.48.62,2.34,0,4.58,0s4.14.42,4.58-.22c.19-.31-.11-.93-.93-1.51a6.41,6.41,0,0,0-3.73-1,6.33,6.33,0,0,0-3.65,1.23C744.11,217.4,743.85,218,744.06,218.33Z"/><path class="cls-4" d="M805.4,269.36c-5.39,1.09-5.87-1.65-9.89-5.4A17.68,17.68,0,0,1,790.09,249c.61-4.81,3.2-9.71,1.53-14.27-2.2-6-10.65-7.88-12.89-13.89-1.3-3.49-.13-7.58-1.61-11-1.39-3.22-4.77-5.08-8.07-6.27s-6.83-2-9.6-4.16-4.5-6.22-2.71-9.24a186.33,186.33,0,0,1,42.83,10.41c3.2,1.2,6.56,2.63,8.45,5.48,2,3,1.91,6.89,1.74,10.5q-1.23,26.4-2.47,52.8"/><path class="cls-9" d="M817.89,262.79s.09-.08.22-.25a6.08,6.08,0,0,0,.54-.78,10.6,10.6,0,0,0,1.29-3.43,12.2,12.2,0,0,0-.31-5.79,11.07,11.07,0,0,0-4.57-6.13c-2.32-1.64-5.35-2.78-7.27-5.39a5.91,5.91,0,0,1-1.07-4.61,25.54,25.54,0,0,1,1.71-5.08,14.64,14.64,0,0,0-.25-11.7,12.79,12.79,0,0,0-4-4.95,15.67,15.67,0,0,0-6-2.49c-2.13-.48-4.24-.76-6.21-1.36a12,12,0,0,1-5.2-2.84,8.62,8.62,0,0,1-2.25-5.14,45.13,45.13,0,0,0-.92-5.7,19.66,19.66,0,0,0-5.29-9.27,15.44,15.44,0,0,0-8.33-4.13,12.38,12.38,0,0,0-7.58,1.14,11.87,11.87,0,0,0-4.38,3.8,10.23,10.23,0,0,0-1.54,3.32,5.44,5.44,0,0,0-.19,1.26,12.83,12.83,0,0,1,2-4.39,11.8,11.8,0,0,1,11.59-4.53,14.92,14.92,0,0,1,7.93,4,19,19,0,0,1,5,9,45.56,45.56,0,0,1,.88,5.62,9.39,9.39,0,0,0,2.46,5.61,12.78,12.78,0,0,0,5.55,3.07c2.06.63,4.19.91,6.26,1.38a14.74,14.74,0,0,1,5.7,2.35,11.93,11.93,0,0,1,3.72,4.6,13.87,13.87,0,0,1,.28,11.07A26.44,26.44,0,0,0,806,236.3a6.67,6.67,0,0,0,1.24,5.14c2.14,2.81,5.25,3.9,7.51,5.47a10.61,10.61,0,0,1,4.45,5.78,11.92,11.92,0,0,1,.44,5.58A13.24,13.24,0,0,1,817.89,262.79Z"/><path class="cls-4" d="M792.39,243.31A49.58,49.58,0,0,0,790.1,276c.89,3.21,2.11,6.53,1.35,9.77-.82,3.51-3.75,6.05-5.89,8.94A22.08,22.08,0,0,0,792.33,327c.56-3.22,3.56-5.42,6.52-6.82s6.23-2.44,8.48-4.81,2.9-6.72.27-8.68c7.55-2,11.82-10.93,10.24-18.57s-7.8-13.67-14.86-17"/><path class="cls-4" d="M800.44,319.42c-1.35.74-2.66,1.4-2.83,2.93-.19,1.8,1.53,4.95,2.15,6.65a9.23,9.23,0,0,1-12.07,11.74c2.42.19,4.47-2.17,4.68-4.58s-1-4.74-2.39-6.69a67.6,67.6,0,0,1-4.4-5.77c-2.49-4.26-6.18-15.84-3.34-22.33"/><path class="cls-9" d="M807.3,307a2.94,2.94,0,0,1,.46-.39c.31-.24.77-.61,1.34-1.09a29.51,29.51,0,0,0,4.41-4.56,23.07,23.07,0,0,0,4.18-8.33,18.75,18.75,0,0,0-.56-11.25,16.43,16.43,0,0,0-3.1-5c-1.26-1.45-2.63-2.72-3.92-3.94a39.93,39.93,0,0,1-3.52-3.67,15.68,15.68,0,0,1-2.31-3.79,10,10,0,0,1-.75-6.3,6.5,6.5,0,0,1,.64-1.62,3.06,3.06,0,0,1,.33-.51,11.92,11.92,0,0,0-.8,2.17,10,10,0,0,0,.87,6.14,15.45,15.45,0,0,0,2.31,3.68,40.54,40.54,0,0,0,3.51,3.6c1.29,1.22,2.68,2.48,4,3.95a16.94,16.94,0,0,1,3.19,5.14,19,19,0,0,1,.53,11.52,22.84,22.84,0,0,1-4.32,8.42,27.41,27.41,0,0,1-4.55,4.49c-.59.47-1.07.81-1.4,1A3.72,3.72,0,0,1,807.3,307Z"/><path class="cls-4" d="M583,486.51a19,19,0,0,1,1.91,17c-1.19,3.1-3.21,6.55-1.62,9.47s5.74,3.06,8.94,4.16a12.6,12.6,0,0,1,7.93,14.07c-.45,2.06-1.43,4.12-1,6.19s2.29,3.68,3.7,5.36a15.68,15.68,0,0,1-9.19,25.51c-2.44.44-5.09.34-7.21,1.64-2.43,1.5-3.49,4.41-5.2,6.69a13.16,13.16,0,0,1-23.68-7.82"/><path class="cls-4" d="M542,468.61c5.78-3.67,7.18-12.18,4-18.27s-9.78-9.79-16.54-10.88a31.52,31.52,0,0,0-27.16,9c-3.73,3.84-6.76,8.85-11.82,10.62-4.44,1.54-9.36.15-14,.75-6.27.81-11.63,5.26-14.84,10.7s-4.54,11.77-5.28,18c-.68,5.76-1.13,12.07-5.12,16.27s-10,5-14.88,7.88c-9.11,5.48-12.06,19-6.05,27.82,1.91,2.8,4.66,5.36,4.89,8.74.2,3.09-1.8,5.84-2.73,8.79-2.41,7.59,3.81,16.62,11.76,17.07,4,.23,8.32-1.33,11.92.46s4.91,6.1,7.19,9.38a17.21,17.21,0,0,0,21,5.41c2.95-1.45,5.74-3.84,9-3.62s5.86,3,9.08,3.64c4.22.82,8.22-2.29,10.73-5.78s4.26-7.6,7.47-10.45c4.21-3.74,10.11-4.67,15.43-6.5a43.53,43.53,0,0,0,24.58-61"/><path class="cls-13" d="M554.24,477.81a9.63,9.63,0,0,1,8.61,9.79h0L557.1,617.81c-.24,15.38-22.72,24-39.19,23.64h0c-16.62-.39-17.16-8.55-17.37-23.18-.35-24.44-.32-33.61-.33-33.47s-21-3.54-25.29-31c-2.13-13.64-1.4-36-.21-54.25,1.07-16.45,12-36.6,28.4-34.83Z"/><path class="cls-4" d="M480.86,518.62a3.51,3.51,0,0,0,3.38,3.55,3.36,3.36,0,0,0,3.63-3.16,3.52,3.52,0,0,0-3.38-3.56A3.36,3.36,0,0,0,480.86,518.62Z"/><path class="cls-4" d="M479.53,511.22c.44.46,3.11-1.5,6.89-1.48s6.55,1.91,7,1.45c.2-.2-.24-1-1.44-1.92a9.77,9.77,0,0,0-5.58-1.73,9.25,9.25,0,0,0-5.48,1.76C479.72,510.19,479.32,511,479.53,511.22Z"/><path class="cls-4" d="M517.83,518.62a3.51,3.51,0,0,0,3.38,3.55,3.36,3.36,0,0,0,3.63-3.16,3.52,3.52,0,0,0-3.38-3.56A3.36,3.36,0,0,0,517.83,518.62Z"/><path class="cls-4" d="M516.72,512c.43.46,3.1-1.5,6.88-1.49s6.56,1.92,7,1.46c.2-.21-.24-1-1.45-1.92a9.69,9.69,0,0,0-5.57-1.73,9.23,9.23,0,0,0-5.48,1.76C516.9,511,516.5,511.81,516.72,512Z"/><path class="cls-4" d="M502.93,540c0-.22-2.34-.63-6.15-1.13-1-.1-1.87-.29-2-.95a5,5,0,0,1,.65-2.86c.92-2.34,1.87-4.79,2.88-7.35,4-10.47,6.88-19.07,6.46-19.23s-4,8.2-8,18.66l-2.76,7.4c-.37,1.09-1,2.34-.51,3.79a2.43,2.43,0,0,0,1.59,1.41,6.57,6.57,0,0,0,1.64.23C500.53,540.23,502.91,540.25,502.93,540Z"/><path class="cls-14" d="M500.21,584.8A69.72,69.72,0,0,0,537,575.08s-9.31,19.33-36.74,16.71Z"/><path class="cls-14" d="M504.51,549.16a6.8,6.8,0,0,1,6.11-2.52,6.24,6.24,0,0,1,4.3,2.31,4,4,0,0,1,.28,4.51c-1,1.44-3.15,1.76-5,1.25a14.45,14.45,0,0,1-4.83-2.9,4.22,4.22,0,0,1-1.07-1.12,1.25,1.25,0,0,1,0-1.41"/><path class="cls-4" d="M514.05,542.68c-.61,0-.63,4.07-4.15,7s-7.89,2.45-7.92,3c-.06.26,1,.8,2.82.86a10.24,10.24,0,0,0,6.61-2.29,8.89,8.89,0,0,0,3.22-5.85C514.79,543.67,514.33,542.65,514.05,542.68Z"/><path class="cls-4" d="M515,505.38c.37,1,4.15.55,8.59,1.1s8,1.76,8.61.84c.27-.44-.36-1.41-1.8-2.41a15,15,0,0,0-13.11-1.47C515.69,504.09,514.87,504.9,515,505.38Z"/><path class="cls-4" d="M481,504.33c.66.86,3.27,0,6.4-.06s5.79.59,6.4-.31c.27-.43-.14-1.3-1.3-2.11a9.29,9.29,0,0,0-10.32.29C481,503,480.66,503.91,481,504.33Z"/><path class="cls-4" d="M539.2,462.71a18.76,18.76,0,0,1-22.13,18.52c-4.19-.77-8.78-2.88-12.4-.65-3.81,2.34-4,8.09-7.35,11-4.84,4.19-12.52.26-18.65,2.07-4.74,1.41-7.7,5.94-10.85,9.75s-7.86,7.43-12.6,6a56,56,0,0,1,1.88-12.64c1.27-4.07,3.6-8,7.18-10.3,2-1.27,4.24-2.05,6.06-3.52,3.93-3.18,4.84-8.7,7.27-13.13a20.54,20.54,0,0,1,15.66-10.39c5.39-.55,11,1.07,16.2-.26,3.89-1,7.28-3.5,11.22-4.25,7.67-1.46,14.79,4.05,20.35,9.52"/><path class="cls-4" d="M553.63,522.1c.81-.21,4.09,4.62-1.17,5.81-9.21,2.08-10.42-15.9-8.37-21-3.33-3-6.7-6-9.24-9.71s-4.78-14-4.24-18.62c-3.32.19-17.46-4.48-16-4.91,3.44-1,10.47-3.21,12.32-6.19,4-6.47,11.06-10.89,18.27-10.5a17.34,17.34,0,0,1,15.61,13.7c8.72.07,17.24,5.55,21.42,13.8a28.89,28.89,0,0,1-.77,26.87c-1.22,2.09-2.77,4.17-2.8,6.63-.05,3.05,2.21,5.47,3.8,8,4.35,6.88,4,16.33.66,23.82s-5.72,10.12-10.5,11.62c-9.35,2.94,1.5,22.2-14.06,22.2"/><path class="cls-13" d="M553.25,529.64c.29-5.83,6.64-9.72,11.7-6.8,2.77,1.6,4.9,4.83,4.64,11-.68,16.51-17.12,12.42-17.13,11.95C552.46,545.51,552.91,536.47,553.25,529.64Z"/><path class="cls-14" d="M557.77,539.76c.07,0,.28.21.75.46a2.91,2.91,0,0,0,2.15.13c1.77-.57,3.35-3.28,3.56-6.25a9.6,9.6,0,0,0-.64-4.15,3.32,3.32,0,0,0-2.07-2.3,1.46,1.46,0,0,0-1.73.72c-.24.45-.15.79-.24.81s-.34-.29-.18-1a1.88,1.88,0,0,1,.69-1,2.21,2.21,0,0,1,1.61-.35,4,4,0,0,1,2.9,2.68,9.91,9.91,0,0,1,.81,4.65c-.25,3.32-2.08,6.36-4.49,7a3.09,3.09,0,0,1-2.62-.54C557.78,540.16,557.71,539.79,557.77,539.76Z"/><path class="cls-9" d="M431.35,540.27s-.38-.51-.94-1.56a12.43,12.43,0,0,1-1.47-4.9,12.63,12.63,0,0,1,1.75-7.77c1.65-2.71,4.81-4.76,8.58-6.14s8.24-2.42,12.23-5.41,6.28-8.16,7.14-13.5.44-11.11.87-16.88a30.9,30.9,0,0,1,1.74-8.55,17.22,17.22,0,0,1,4.92-7.28,15.71,15.71,0,0,1,8.1-3.3,30.66,30.66,0,0,1,8.72.27,59.47,59.47,0,0,0,8.6,1.18,10.65,10.65,0,0,0,8-2.82c2-2,3.17-4.46,4.49-6.58a15.28,15.28,0,0,1,4.81-5.26,17.81,17.81,0,0,1,12.39-2.68,18.65,18.65,0,0,1,9.57,4.58,24,24,0,0,1,5.05,6.39,37.2,37.2,0,0,1,2.55,6.53,1.46,1.46,0,0,0,0-.46c-.06-.3-.11-.76-.27-1.34a22.44,22.44,0,0,0-1.83-4.94,23.93,23.93,0,0,0-5-6.67,19.37,19.37,0,0,0-9.88-4.91A18.67,18.67,0,0,0,508.31,451a16.49,16.49,0,0,0-5.15,5.53c-1.35,2.18-2.49,4.57-4.35,6.34a9.61,9.61,0,0,1-7.2,2.49,60.55,60.55,0,0,1-8.44-1.2,31.4,31.4,0,0,0-9.05-.29,16.75,16.75,0,0,0-8.69,3.55,18.22,18.22,0,0,0-5.26,7.77,31.18,31.18,0,0,0-1.8,8.88c-.42,5.89.05,11.55-.79,16.79s-2.93,10.09-6.67,12.91-8.18,3.85-11.94,5.41-7.14,3.64-8.83,6.56a12.92,12.92,0,0,0-1.65,8.15,11.86,11.86,0,0,0,1.72,5A6.24,6.24,0,0,0,431.35,540.27Z"/><path class="cls-9" d="M474.35,498.21c-.11,0,0,1.34-.23,3.72a26.1,26.1,0,0,1-2.91,9.58,24.84,24.84,0,0,1-4,5.6,32.54,32.54,0,0,1-6.26,4.92,19.81,19.81,0,0,0-3.47,2.85,9.47,9.47,0,0,0-2.3,4.19c-.81,3.21-.22,6.51,0,9.73s-.09,6.44-2.07,8.67-4.66,3.52-7.19,4.77a27.34,27.34,0,0,0-7,4.33,10,10,0,0,0-3.11,6.5,11.92,11.92,0,0,0,3.48,9.54,9.5,9.5,0,0,0,2.33,1.58,3.08,3.08,0,0,0,.93.31,17.4,17.4,0,0,1-2.94-2.21,11.7,11.7,0,0,1-3-9.14,9.28,9.28,0,0,1,2.95-5.88,27.21,27.21,0,0,1,6.78-4.06c2.53-1.23,5.43-2.5,7.6-5a9.85,9.85,0,0,0,2.14-4.47,19.05,19.05,0,0,0,.21-5c-.2-3.3-.75-6.5,0-9.37s3-4.87,5.28-6.45a32.28,32.28,0,0,0,6.36-5.14,25.58,25.58,0,0,0,6.68-15.8,19.3,19.3,0,0,0-.06-2.8A3.06,3.06,0,0,0,474.35,498.21Z"/><path class="cls-9" d="M591.64,567.36s.21,0,.6-.19a10.2,10.2,0,0,0,1.64-.82,14,14,0,0,0,4.82-5A13.61,13.61,0,0,0,600,550.63a14.63,14.63,0,0,0-9.87-9.8l.25.77a22.45,22.45,0,0,0,4.38-8.27,11.78,11.78,0,0,0-1.64-10,8.8,8.8,0,0,0-4.35-3.35,13,13,0,0,0-5.57-.29,20.85,20.85,0,0,1-5.32.22,5.35,5.35,0,0,1-4-2.82,10.35,10.35,0,0,1-.52-7.55c.64-2.55,1.73-5,2.33-7.59a22.23,22.23,0,0,0-1.88-14.85,21.17,21.17,0,0,0-9.52-9.38,21.9,21.9,0,0,0-11.15-2.28l.41.35a11.64,11.64,0,0,0-4-7.28A12.85,12.85,0,0,0,544,465.7a10.92,10.92,0,0,0-3.89-.17,5.24,5.24,0,0,0-1.3.34,13.82,13.82,0,0,1,5.09.24,12.71,12.71,0,0,1,5.23,2.89,11,11,0,0,1,3.62,6.9l0,.37.38,0a21.16,21.16,0,0,1,10.68,2.34,20.3,20.3,0,0,1,9,9,21.16,21.16,0,0,1,1.72,14.11c-.57,2.47-1.66,4.89-2.34,7.56a11.5,11.5,0,0,0,.61,8.39,6.55,6.55,0,0,0,4.84,3.42,21.87,21.87,0,0,0,5.64-.22,12.12,12.12,0,0,1,5.08.21,7.82,7.82,0,0,1,3.81,2.92,10.79,10.79,0,0,1,1.52,9.07,21.74,21.74,0,0,1-4.12,7.93l-.45.58.7.19a13.83,13.83,0,0,1,9.37,9.09,13.06,13.06,0,0,1-1,10.18,14.46,14.46,0,0,1-4.49,5.06C592.41,567,591.61,567.29,591.64,567.36Z"/><path class="cls-9" d="M537.4,469.16c-.12.18,1.66.47,3.29,2.76s2.25,6.56,1.22,11.42l-.09.42.41.1a15.92,15.92,0,0,1,10.63,9.37,12.26,12.26,0,0,1,.86,4,24.18,24.18,0,0,1-.52,4.36,32.9,32.9,0,0,0-.63,4.7,7.78,7.78,0,0,0,1.31,4.87c2,3.13,5.36,4.66,8.19,6.16a27.4,27.4,0,0,1,7.67,5,20.63,20.63,0,0,1,6.17,13.83,21.56,21.56,0,0,1-2.18,10.21c-1.1,2.25-2,3.33-1.92,3.39s.27-.22.7-.74a17.51,17.51,0,0,0,1.62-2.44,20.94,20.94,0,0,0,2.6-10.44,21.24,21.24,0,0,0-6.23-14.57,28.5,28.5,0,0,0-7.91-5.28c-2.83-1.49-5.94-3-7.73-5.77-1.83-2.51-1-5.78-.53-8.74a26,26,0,0,0,.51-4.58,13.32,13.32,0,0,0-1-4.41A16.71,16.71,0,0,0,542.43,483l.32.52c1-5.1.2-9.56-1.67-11.9a6.88,6.88,0,0,0-2.58-2.11A4.26,4.26,0,0,0,537.4,469.16Z"/><path class="cls-13" d="M408.61,749.55h0L362.19,710l-25.39,6.13s26.18,55,46.86,76.75,31.84,24.87,39.64,25.21c10.73.47,15.63-12.6,15.63-12.6l1.22-43Z"/><path class="cls-9" d="M357.7,632.81H322.76c-5.29,0-10,6.13-8.11,11.14l35.14,68.45a8,8,0,0,0,7.08,4.32l42.61-.08c4.88-.66,6.67-6.08,4.64-9l-33.91-67A13.94,13.94,0,0,0,357.7,632.81Z"/><path class="cls-4" d="M355.34,636.94H320.4a5.84,5.84,0,0,0-5.22,8.5l34.31,67a7.92,7.92,0,0,0,7.07,4.32h42.12a3.43,3.43,0,0,0,3.08-5l-33.91-67A13.93,13.93,0,0,0,355.34,636.94Z"/><path class="cls-13" d="M352.38,665l-21.27,8.5-4.56,17.13,10.25,25.51,37.58,5.47-11-11.25,1.42-9.79s10.48-3.29,10.74-4.9-1.3-7-2.91-7.24-12.6,3.84-12.6,3.84,13-10.31,12.65-12-1.76-5.89-4.36-6.36-23.6,9.43-23.6,9.43l-3.41,7.77-3-12.43S357,673.46,352.38,665Z"/><path class="cls-14" d="M355.05,705.15c-.12,0-.52-.74-.72-2.12a11.56,11.56,0,0,1,3.65-9.86c1-.92,1.86-1.25,1.93-1.14s-2.56,2.25-3.91,6S355.38,705.09,355.05,705.15Z"/><path class="cls-14" d="M345,701.44a48.18,48.18,0,0,0,.84-5.58,24,24,0,0,1,1.07-6.17,9.14,9.14,0,0,1,2-3.29,9.7,9.7,0,0,1,3.47-2.19c5.09-1.84,9.67-3.33,13-4.42s5.44-1.65,5.49-1.51-1.95,1-5.23,2.24-7.88,2.9-12.87,4.71a8.8,8.8,0,0,0-3.11,1.92,8.39,8.39,0,0,0-1.78,2.89,26.68,26.68,0,0,0-1.25,5.91C346.15,699.48,345.09,701.53,345,701.44Z"/><path class="cls-14" d="M340.07,697.59c-.3-.05-.24-1.92.13-4.19s.92-4.06,1.22-4,.24,1.93-.13,4.2S340.37,697.64,340.07,697.59Z"/><path class="cls-11" d="M339.5,649.85A4.45,4.45,0,1,0,344,645.4,4.45,4.45,0,0,0,339.5,649.85Z"/><path class="cls-5" d="M458.5,758.64c-1.1-14,25.18-150.17,22.67-149.66-7.1,1.42-21.39,4.64-40.74,28.88-10,12.59-32,76.71-37.4,92.81l-15.23-7.31a10.27,10.27,0,0,0-7.64-.48l-34.59,11.46s47,85.69,70,85.27c3.91-.07,7.3-.29,10.29-.6h0L377,911s-50.26,42.45-52.39,50.26H492.79S459.59,772.61,458.5,758.64Z"/><path class="cls-4" d="M499.53,602.46l-24.69,7.67c-12.13,9.55-16.61,28.79-16.2,44.2l-9.19,128-.79,44.22s70.66,38.37,149.62-11.32l-13.14-34.87,23.91-83.2c1.71-12.13,2.76-37.28-.4-49.22-8.13-30.62-26.1-43.89-50.7-49.38,0,0-23.76,22.19-45.53,18.24C512.42,616.76,500.88,615.33,499.53,602.46Z"/><path class="cls-4" d="M408.88,851a2.32,2.32,0,0,1,.25-.62l.85-1.76,3.35-6.58c3-5.74,7.17-13.73,12.12-23.23l-.05.21c.39-9.36,1-20.22,1.66-31.75,1.16-18.74,2.54-35.69,3.77-47.94.61-6.12,1.15-11.07,1.6-14.49.21-1.61.39-2.91.52-3.92a8.3,8.3,0,0,1,.26-1.37,6.68,6.68,0,0,1,0,1.39c-.08,1-.19,2.32-.32,4-.31,3.56-.74,8.48-1.26,14.51-1,12.26-2.29,29.2-3.44,47.94-.71,11.52-1.32,22.38-1.79,31.72v.11l-.05.09-12.47,23-3.59,6.45-1,1.69C409,850.81,408.91,851,408.88,851Z"/><path class="cls-4" d="M414.29,751.16c-.32.13-2.34-4.73-5.35-10.41s-6.17-9.88-5.91-10.08,3.8,3.77,6.87,9.56S414.53,751.07,414.29,751.16Z"/><path class="cls-11" d="M546,643.05c0,.34-19.32.61-43.14.61s-43.13-.27-43.13-.61,19.31-.61,43.13-.61S546,642.71,546,643.05Z"/><path class="cls-11" d="M552.54,627.66a19.44,19.44,0,0,1-3.49.11l-9.52-.14L508.15,627l-31.39-.49-9.51-.19a19.88,19.88,0,0,1-3.49-.23,18.43,18.43,0,0,1,3.49-.25c2.24-.08,5.5-.15,9.51-.19,8-.1,19.15-.09,31.41.12s23.36.59,31.39,1c4,.18,7.26.36,9.51.52A18.48,18.48,0,0,1,552.54,627.66Z"/><path class="cls-11" d="M500.54,608.11c.06.35-6.81,1.84-15.22,3.91s-15.2,3.92-15.3,3.58,6.55-2.7,15-4.77S500.49,607.79,500.54,608.11Z"/><path class="cls-11" d="M562.43,608.57c-.06.34-3.16.14-6.91-.42s-6.76-1.3-6.73-1.64,3.13-.15,6.92.43S562.5,608.24,562.43,608.57Z"/><path class="cls-11" d="M538.73,664.59a16.88,16.88,0,0,1-3.15.3c-2,.11-5,.23-8.58.34-7.25.21-17.27.38-28.33.37s-21.09-.18-28.34-.41c-3.63-.11-6.56-.23-8.59-.35a15.8,15.8,0,0,1-3.14-.3,16,16,0,0,1,3.15-.17l8.59,0,28.33,0,28.32,0,8.58,0A15.6,15.6,0,0,1,538.73,664.59Z"/><path class="cls-11" d="M532.62,688c0,.33-17.09-.6-38.11-2.09s-38.05-3-38-3.3,17.08.59,38.11,2.08S532.64,687.65,532.62,688Z"/><path class="cls-11" d="M526.56,708.62c0,.34-12.12-.47-27-1.8s-26.93-2.68-26.9-3,12.12.47,27,1.8S526.59,708.29,526.56,708.62Z"/><path class="cls-11" d="M469.15,751.82c0,.33-4,.48-8.91-.46s-8.57-2.55-8.46-2.85,3.92.75,8.69,1.65S469.17,751.47,469.15,751.82Z"/><path class="cls-11" d="M515.54,815.87a14.84,14.84,0,0,1-2.94-.86c-1.88-.62-4.55-1.63-7.81-3a179.9,179.9,0,0,1-46.94-28.65c-2.69-2.28-4.81-4.2-6.22-5.59a14.15,14.15,0,0,1-2.11-2.22,15.54,15.54,0,0,1,2.43,1.87c1.5,1.27,3.7,3.08,6.44,5.27a215,215,0,0,0,46.74,28.53c3.21,1.44,5.82,2.57,7.64,3.32A14.85,14.85,0,0,1,515.54,815.87Z"/><path class="cls-11" d="M486.64,781.26c-.05.15-2.18-.32-5.54-1.34s-8-2.63-12.9-4.7-9.31-4.24-12.4-5.92-4.91-2.87-4.83-3,2,.76,5.22,2.24,7.56,3.5,12.48,5.56,9.43,3.78,12.71,5S486.69,781.09,486.64,781.26Z"/><path class="cls-13" d="M539.09,735l-3.66,14.08L462.57,696l-19.73-28c-3-4.25-9.34-8.6-14.44-9.59h0c-5.41-1.06-10.07,1.29-15.86,4.48l-16.7,10.34a5.82,5.82,0,0,0-2.8,5.9c.26,1.51,1.13,2.61,3.4,1.61,5.05-2.24,15.69-5.39,15.69-5.39l2.8,26.84,12.33,8.94,12.33,9.5,82.27,81.67a36.74,36.74,0,0,0,58.7-9.57l12.19-34.62Z"/><path class="cls-12" d="M533.6,747.1c0-.11,1.41.33,3.06,1.88a16.06,16.06,0,0,1,4.26,7.55,29.91,29.91,0,0,1,.79,8.58c-.09,2.2-.28,3.54-.42,3.54s-.25-1.36-.36-3.53a40.94,40.94,0,0,0-1.07-8.31,18,18,0,0,0-3.76-7.29C534.69,747.93,533.51,747.26,533.6,747.1Z"/><path class="cls-14" d="M412,676.7c-.12-.07.24-.93,1.1-2.17a9.76,9.76,0,0,1,4.62-3.74,6,6,0,0,1,5.88,1.13c1.19,1.15,1.15,2.28,1,2.26s-.42-.87-1.53-1.66a5.74,5.74,0,0,0-5-.69A11.14,11.14,0,0,0,413.7,675C412.72,676.08,412.14,676.79,412,676.7Z"/><path class="cls-14" d="M425.05,683.87c-.13.11-.68-.39-1.68-1a8.24,8.24,0,0,0-8.38,0c-1,.57-1.54,1.07-1.66,1s.24-.8,1.23-1.6a7.49,7.49,0,0,1,9.24,0C424.79,683.07,425.15,683.78,425.05,683.87Z"/><path class="cls-5" d="M641.61,931.32c-7.6-1.69-20.26-51.5-20.26-51.5s5.91-16.88,5.91-22-27.87-14.93-27.87-14.93,12.43-92.9,18.94-150.09c1-4.69,1.62-7.93,1.68-9.06.1-1.87.92-11.8,1-15.41,1.33-12.77-1-21.76-1.14-24.88-.85-16-45.5-43.29-49.15-41.16-13.73,8-36.49,76.72-48.66,126.13-12.5-6.47-28-14.36-30-14.7-3.32-.58-4.3,5.7-4.3,5.7V787.7l29.19,20.36c7.53,35.7,22.59,89,29.76,109.09,11.33,31.72,2.28,40.42,14.95,45.48l140-1.34C712.66,952,649.21,933,641.61,931.32Z"/><path class="cls-4" d="M610.68,721.32a9.46,9.46,0,0,1-.18,1.74c-.15,1.14-.42,2.81-.77,5-.73,4.3-1.88,10.51-3.48,18.15s-3.61,16.7-6.11,26.72c-1.26,5-2.62,10.24-4.2,15.64a73.8,73.8,0,0,1-6.56,16.17c-6.15,10.36-15.69,18-25.71,21a30.55,30.55,0,0,1-14.7.9,45.55,45.55,0,0,1-12-4.68,133.62,133.62,0,0,1-15.4-10.25l-4-3a9.17,9.17,0,0,1-1.36-1.1,10.17,10.17,0,0,1,1.49.92l4.13,2.85a152.18,152.18,0,0,0,15.52,9.91,45.75,45.75,0,0,0,11.77,4.48,29.84,29.84,0,0,0,14.23-1c9.72-3,19.06-10.47,25.06-20.58a73.76,73.76,0,0,0,6.48-15.93c1.58-5.37,3-10.6,4.25-15.59,2.55-10,4.64-19,6.33-26.63s3-13.79,3.81-18.07c.41-2.06.73-3.7,1-4.93A12,12,0,0,1,610.68,721.32Z"/><path class="cls-4" d="M554.87,756.11c-.15.09-1.49-2-4-5.16a74,74,0,0,0-23.74-19.9c-3.54-1.87-5.84-2.82-5.78-3a5.5,5.5,0,0,1,1.7.47,41.07,41.07,0,0,1,4.42,1.84,62.82,62.82,0,0,1,24,20.12,39.73,39.73,0,0,1,2.58,4A5.73,5.73,0,0,1,554.87,756.11Z"/><path class="cls-4" d="M565.39,747.07c-.15.12-1.33-1.27-3.54-3.16a35.11,35.11,0,0,0-9.68-5.77,34.75,34.75,0,0,0-11-2.31c-2.9-.12-4.72.11-4.74-.07s1.76-.62,4.75-.7a30.17,30.17,0,0,1,21.22,8.28C564.5,745.43,565.48,747,565.39,747.07Z"/><path class="cls-4" d="M557.26,656.53a18.62,18.62,0,0,1-.32,3.23c-.29,2.07-.78,5-1.48,8.71-1.38,7.33-3.63,17.39-6.5,28.41s-5.82,20.89-8.23,28c-1.19,3.54-2.25,6.37-3,8.31a18,18,0,0,1-1.32,3,18.41,18.41,0,0,1,.92-3.11c.7-2.17,1.6-5,2.69-8.39,2.21-7.11,5-17,7.91-28s5.23-21,6.8-28.28c.73-3.5,1.34-6.4,1.81-8.63A19.88,19.88,0,0,1,557.26,656.53Z"/><path class="cls-4" d="M599.14,844.15a4.39,4.39,0,0,1-1.5.47,30.54,30.54,0,0,1-4.21.66,45.53,45.53,0,0,1-27.16-6,30.47,30.47,0,0,1-3.55-2.38c-.79-.62-1.2-1-1.16-1.06s1.93,1.12,5.08,2.77a52.3,52.3,0,0,0,26.73,5.92C596.92,844.35,599.11,844,599.14,844.15Z"/><path class="cls-4" d="M615.29,875.91s-.22.18-.7.43a18.83,18.83,0,0,1-2.11,1,31.28,31.28,0,0,1-8.35,2.17c-7.24,1-17.7-.4-27.58-5.68s-17.21-12.38-22.31-17.48c-2.55-2.58-4.55-4.73-5.91-6.23a18.41,18.41,0,0,1-2-2.41,16.67,16.67,0,0,1,2.34,2.11l6.15,6c5.22,5,12.59,11.87,22.28,17.07s19.87,6.69,27,5.88S615.2,875.64,615.29,875.91Z"/><path class="cls-4" d="M509.49,730.9a10.57,10.57,0,0,1,.63,2.33,48.8,48.8,0,0,1,1,6.53,63.53,63.53,0,0,1,.12,9.79,67.6,67.6,0,0,1-5.67,23.22,64.84,64.84,0,0,1-4.62,8.63,49.57,49.57,0,0,1-3.86,5.35,10.92,10.92,0,0,1-1.63,1.78c-.17-.13,2-2.79,4.83-7.53a71.72,71.72,0,0,0,4.36-8.63,78,78,0,0,0,3.73-11.22,80.44,80.44,0,0,0,1.87-11.67,73.8,73.8,0,0,0,.1-9.67C510,734.31,509.29,730.94,509.49,730.9Z"/><path class="cls-4" d="M603.11,634.66c0,.16-2.89.05-7.51,0a60.2,60.2,0,0,0-17.76,2.2,29.67,29.67,0,0,0-14.57,9.78c-2.79,3.65-3.4,6.55-3.62,6.47a6.09,6.09,0,0,1,.45-2,19,19,0,0,1,2.55-4.93c2.65-3.9,8-8.22,14.87-10.37a54,54,0,0,1,18.09-1.93c2.33.1,4.2.25,5.5.39A6.82,6.82,0,0,1,603.11,634.66Z"/><path class="cls-5" d="M171.21,916.54l-37.82,44.53s-58-23.48-65.75-15.94l83.7,76.43,61.78-67Z"/><g class="cls-8"><path d="M171.21,916.54l-37.82,44.53s-58-23.48-65.75-15.94l83.7,76.43,61.78-67Z"/></g><path class="cls-2" d="M162.59,981.08a4.64,4.64,0,0,1-1.2,6.06,4.46,4.46,0,0,1-6-1.14c-1.25-1.9-.7-5.33,1.3-6.41s5.37-.27,6.13,1.88"/><path class="cls-2" d="M151.34,1021.56l6-7L74.82,943.91s-5.2-1.79-7.18,1.22Z"/><path class="cls-4" d="M132.42,959.41c-.36.42,1.52,2.47,2.33,5.62s.31,5.85.84,6,2.07-2.74,1-6.53S132.68,959,132.42,959.41Z"/><path class="cls-4" d="M120.33,955c-.46.31.68,2.62.49,5.62s-1.46,5.19-1,5.54,2.8-1.72,3-5.45S120.69,954.64,120.33,955Z"/><path class="cls-4" d="M105.75,961c.29.42,2.72-1.1,3.72-4.3s-.1-5.83-.59-5.65-.39,2.46-1.25,5.07S105.38,960.57,105.75,961Z"/><path class="cls-4" d="M142.17,950.22c-.17.52,2.22,1.67,4.39,3.94s3.3,4.64,3.83,4.48.14-3.19-2.45-5.83S142.26,949.71,142.17,950.22Z"/><path class="cls-4" d="M150,941.37c-.16.17,1.22,1.9,4.21,3.81a25.56,25.56,0,0,0,5.61,2.66,28.35,28.35,0,0,0,3.58.92,7.11,7.11,0,0,0,2.16.17,2.42,2.42,0,0,0,2.18-2,3.08,3.08,0,0,0-.94-2.57,7.35,7.35,0,0,0-1.77-1.21,20,20,0,0,0-9.61-2.48c-3.58,0-5.64,1-5.57,1.15s2.17-.11,5.51.21a22.65,22.65,0,0,1,5.66,1.31,20.36,20.36,0,0,1,3.08,1.45c1.1.58,1.86,1.26,1.73,1.86-.06.23-.1.3-.52.39a5.87,5.87,0,0,1-1.59-.13,29.77,29.77,0,0,1-3.37-.76,31.36,31.36,0,0,1-5.47-2.15C151.84,942.47,150.16,941.15,150,941.37Z"/><path class="cls-4" d="M150,942.45c.09.19,2.24-.53,4.8-3a18.49,18.49,0,0,0,4.88-8.64c.26-1.27.68-2.92-.74-4.55a2.65,2.65,0,0,0-2.82-.43,7.75,7.75,0,0,0-1.83,1.14,12.39,12.39,0,0,0-2.58,2.82,13,13,0,0,0-2.17,6c-.34,3.66.92,5.7,1.08,5.6.32-.08-.38-2.17.27-5.4a13,13,0,0,1,2.27-5.15,11.82,11.82,0,0,1,2.29-2.35c.94-.77,1.93-1.19,2.18-.79a3.23,3.23,0,0,1,.21,2.71,18.12,18.12,0,0,1-1,3.22,20.58,20.58,0,0,1-3,4.93C151.63,941.05,149.8,942.18,150,942.45Z"/><path class="cls-4" d="M375.63,892l32.9,35.1c15.11,18.54,30.52,33.85,53.9,34.81h0c27.55,1.14,74.23,0,74.23,0L491.33,840.65,381.87,749.93A67.81,67.81,0,0,0,341,736.1h0a68.43,68.43,0,0,0-52.21,24.52L154.23,928.8,207,974.31,343.93,851Z"/><path class="cls-5" d="M214.06,916.54l-37.82,44.53s-58-23.48-65.75-15.94l83.7,76.43,61.78-67Z"/><path class="cls-2" d="M205.44,981.08a4.64,4.64,0,0,1-1.2,6.06,4.46,4.46,0,0,1-6-1.14c-1.25-1.9-.7-5.33,1.3-6.41s5.37-.27,6.13,1.88"/><path class="cls-2" d="M194.19,1021.56l6-7-82.49-70.66s-5.2-1.79-7.18,1.22Z"/><path class="cls-4" d="M175.27,959.41c-.36.42,1.52,2.47,2.33,5.62s.31,5.85.84,6,2.07-2.74,1-6.53S175.53,959,175.27,959.41Z"/><path class="cls-4" d="M163.18,955c-.46.31.68,2.62.49,5.62s-1.46,5.19-1,5.54,2.8-1.72,3-5.45S163.54,954.64,163.18,955Z"/><path class="cls-4" d="M148.6,961c.29.42,2.72-1.1,3.72-4.3s-.1-5.83-.59-5.65-.39,2.46-1.25,5.07S148.23,960.57,148.6,961Z"/><path class="cls-4" d="M185,950.22c-.17.52,2.22,1.67,4.39,3.94s3.3,4.64,3.83,4.48.14-3.19-2.45-5.83S185.11,949.71,185,950.22Z"/><path class="cls-4" d="M192.82,941.37c-.16.17,1.22,1.9,4.21,3.81a25.56,25.56,0,0,0,5.61,2.66,28.35,28.35,0,0,0,3.58.92,7.11,7.11,0,0,0,2.16.17,2.42,2.42,0,0,0,2.18-2,3.08,3.08,0,0,0-.94-2.57,7.35,7.35,0,0,0-1.77-1.21,20,20,0,0,0-9.61-2.48c-3.58,0-5.64,1-5.57,1.15s2.17-.11,5.51.21a22.65,22.65,0,0,1,5.66,1.31,20.36,20.36,0,0,1,3.08,1.45c1.1.58,1.86,1.26,1.73,1.86-.06.23-.1.3-.52.39a5.87,5.87,0,0,1-1.59-.13,29.77,29.77,0,0,1-3.37-.76A31.36,31.36,0,0,1,197.7,944C194.69,942.47,193,941.15,192.82,941.37Z"/><path class="cls-4" d="M192.81,942.45c.09.19,2.24-.53,4.8-3a18.49,18.49,0,0,0,4.88-8.64c.26-1.27.68-2.92-.74-4.55a2.65,2.65,0,0,0-2.82-.43,7.75,7.75,0,0,0-1.83,1.14,12.39,12.39,0,0,0-2.58,2.82,13,13,0,0,0-2.17,6c-.34,3.66.92,5.7,1.08,5.6.32-.08-.38-2.17.27-5.4a13,13,0,0,1,2.27-5.15,11.82,11.82,0,0,1,2.29-2.35c.94-.77,1.93-1.19,2.18-.79a3.23,3.23,0,0,1,.21,2.71,18.12,18.12,0,0,1-1,3.22,20.58,20.58,0,0,1-3,4.93C194.48,941.05,192.65,942.18,192.81,942.45Z"/><path class="cls-4" d="M408.88,892l32.9,35.1c15.11,18.54,29.25,33.79,52.63,34.76h0c.58,1,67.24.8,67.24.8l-37.07-122L415.12,749.93A67.79,67.79,0,0,0,374.2,736.1h0A68.4,68.4,0,0,0,322,760.62l-144.53,166,62.18,54,134.71-128Z"/><path class="cls-9" d="M532,961.29a4,4,0,0,1-.61.05l-1.78,0-6.86.08c-6,0-14.6,0-25.25-.68a129.38,129.38,0,0,1-17.33-2.2,47.06,47.06,0,0,1-9.35-2.92,53.53,53.53,0,0,1-8.77-5.55c-11.39-8.56-21.07-20.87-31.87-33l-56.12-64.34.54,0-17,16.58L353,873.86,351.77,875a2.27,2.27,0,0,1-.44.36,2.15,2.15,0,0,1,.37-.44l1.14-1.2,4.49-4.58,16.77-16.82.28-.28.26.3L431,916.44c10.81,12.11,20.45,24.4,31.66,32.88a52.87,52.87,0,0,0,8.57,5.48,46.28,46.28,0,0,0,9.13,2.91,132.65,132.65,0,0,0,17.2,2.32c10.61.81,19.24.88,25.19,1l6.86.12,1.78.06A2.36,2.36,0,0,1,532,961.29Z"/><path class="cls-9" d="M367.41,737.4a4.52,4.52,0,0,1-.75.08c-.49,0-1.22,0-2.17.14a48.6,48.6,0,0,0-8.23,1.46c-7,1.81-16.81,6.31-26.52,15-9.86,8.53-19.21,21-30.19,34.28s-23.18,27.8-36.2,42.84c-37,42.6-70.07,78.48-85.7,95.56v-.34l8.51,8.05,2.16,2.09a4.86,4.86,0,0,1,.7.74,7,7,0,0,1-.79-.65l-2.24-2-8.68-7.88-.17-.16.16-.18c15.36-17.33,48.29-53.37,85.24-95.95,13-15,25.27-29.48,36.25-42.76s20.45-25.7,30.45-34.23,19.83-13.11,26.93-14.81a43.85,43.85,0,0,1,8.31-1.26c1-.07,1.7,0,2.19,0A4,4,0,0,1,367.41,737.4Z"/><path class="cls-9" d="M376.75,818.9c.12,0,.85,1.78,1.56,4.85a44.39,44.39,0,0,1,1,12.27,39.93,39.93,0,0,1-2.63,12c-1.17,2.94-2.22,4.59-2.33,4.54-.36-.13,3.36-7.13,3.87-16.63S376.36,819,376.75,818.9Z"/><path class="cls-9" d="M395.82,824.52c.11,0-.09,2.06-1.09,5.22a39.67,39.67,0,0,1-15.21,20.36c-2.74,1.85-4.65,2.62-4.7,2.52-.23-.3,7.19-4.07,13.11-12.1S395.46,824.39,395.82,824.52Z"/><path class="cls-9" d="M525,842.24c-.21.26-19-15.27-42.05-34.68s-41.48-35.37-41.26-35.62,19,15.27,42.05,34.68S525.21,842,525,842.24Z"/><path class="cls-11" d="M383.94,569.82,373,536c10.6-12.81,16-27,18.49-44.64A92.93,92.93,0,1,0,286.6,570.59c21.22,3,46.23-4.72,63.48-14.62l1.16,1.75Z"/><path class="cls-5" d="M317.13,466.72h-6l-13-18.13v-11.9s-9.21-.57-8.13,15-.08,11.61-.08,11.61-19.57.08-21.19,1.78c-1.18,1.23-1.72,20.67-1.92,31.2-.1,5.31,3.15,10.24,8.08,11.5a8.5,8.5,0,0,0,2.11.28c4.88,0,29.8-4,29.8-4h10.3Z"/><polygon class="cls-5" points="334.19 463.45 330.53 504.21 320.32 504.21 320.32 464.27 334.19 463.45"/><path class="cls-4" d="M299.44,385.77a8.23,8.23,0,0,0-1.61,0l-4.73.13c-1,.05-2.2.05-3.48.16l-4.17.59-4.87.69-5.44,1.35a88.14,88.14,0,0,0-26.35,11.49,93.05,93.05,0,0,0-42.73,69.91c-.15,4.18-.66,8.43-.25,12.75.15,2.15.1,4.35.42,6.52s.66,4.36,1,6.56c1.78,8.71,4.37,17.63,8.85,25.94A100.38,100.38,0,0,0,233,545.14a98,98,0,0,0,24.41,17.53,88.62,88.62,0,0,0,29.75,9.13,58.25,58.25,0,0,0,7.93.68,71.51,71.51,0,0,0,8,.14,95.33,95.33,0,0,0,16.07-2,93.8,93.8,0,0,0,32-13.46l-1,.1,32.58,13.08,1.93.77-.55-2q-4.94-17.94-9.57-34.83l-.17.86a93.57,93.57,0,0,0,17.39-39.8,84.5,84.5,0,0,0,1.26-20.39,65.61,65.61,0,0,0-.92-9.79c-.25-1.6-.5-3.19-.74-4.77s-.77-3.08-1.14-4.61a93.15,93.15,0,0,0-36.35-53,89,89,0,0,0-21.63-11.41l-4.87-1.75-4.63-1.17-4.23-1.05c-1.36-.26-2.67-.4-3.9-.59-2.46-.31-4.62-.74-6.52-.83l-4.79-.16-2.92-.07a4.36,4.36,0,0,0-1,0,4.49,4.49,0,0,0,1,.13l2.91.23,4.75.32c1.89.15,4,.63,6.47,1a92.64,92.64,0,0,1,74.08,68.72c.35,1.5.82,3,1.1,4.53s.46,3.11.7,4.68a63.59,63.59,0,0,1,.86,9.62A83.28,83.28,0,0,1,390,495a91.83,91.83,0,0,1-17.15,38.93l-.29.39.13.47,9.5,34.85,1.38-1.23L351,555.28l-.51-.2-.46.3a92.12,92.12,0,0,1-31.27,13.15,93.11,93.11,0,0,1-15.71,2,68.3,68.3,0,0,1-7.84-.14,59,59,0,0,1-7.76-.65,86.94,86.94,0,0,1-29.09-8.9,96.14,96.14,0,0,1-23.91-17.11,98.18,98.18,0,0,1-16.64-22.78c-4.42-8.12-7-16.85-8.76-25.38q-.49-3.24-1-6.43c-.32-2.13-.28-4.28-.44-6.39-.41-4.24.07-8.41.2-12.51a92,92,0,0,1,41.62-69.07,88.6,88.6,0,0,1,25.93-11.69l5.37-1.43,4.81-.79,4.13-.68c1.27-.14,2.43-.18,3.46-.26l4.7-.34A9,9,0,0,0,299.44,385.77Z"/></svg>