<?xml version="1.0" encoding="utf-8"?>
<!-- Generator: Adobe Illustrator 24.2.2, SVG Export Plug-In . SVG Version: 6.00 Build 0)  -->
<svg version="1.1" id="Layer_1" xmlns="http://www.w3.org/2000/svg" xmlns:xlink="http://www.w3.org/1999/xlink" x="0px" y="0px"
	 viewBox="0 0 1400 350" enable-background="new 0 0 1400 350" xml:space="preserve">
<g enable-background="new    ">
	<path fill="#FFFFFF" d="M482.2,155.1c-8.8-5-15.6-12.1-20.4-21.4c-4.8-9.3-7.1-20.2-7.1-32.6c0-12.5,2.4-23.3,7.1-32.6
		c4.8-9.2,11.6-16.3,20.4-21.3c8.8-5,19.2-7.5,30.9-7.5c14.8,0,27.7,4.1,38.4,12.2c1.7,1.4,2.9,2.7,3.6,4.1c0.7,1.4,1,3.1,1,5.1
		c0,2.9-0.8,5.5-2.5,7.6c-1.6,2.1-3.7,3.1-6,3.1c-1.6,0-3-0.2-4.2-0.6c-1.2-0.4-2.5-1.1-4-2.1c-4.5-2.9-8.7-5.1-12.6-6.4
		c-3.9-1.3-8-2-12.4-2c-10.9,0-19.1,3.4-24.6,10.1c-5.5,6.7-8.2,16.8-8.2,30.2c0,27,10.9,40.5,32.8,40.5c4.2,0,8.2-0.7,11.9-2
		c3.7-1.3,8.1-3.4,13.1-6.4c1.7-1,3.1-1.7,4.2-2.1c1.1-0.4,2.4-0.6,3.9-0.6c2.4,0,4.4,1,6,3.1c1.6,2.1,2.5,4.6,2.5,7.6
		c0,2-0.4,3.8-1.1,5.2c-0.7,1.4-1.9,2.7-3.5,4c-10.8,8.2-23.6,12.2-38.4,12.2C501.4,162.6,491.1,160.1,482.2,155.1z"/>
	<path fill="#FFFFFF" d="M677.1,43.9c2.4,2.4,3.6,5.6,3.6,9.5v95.4c0,4-1.2,7.2-3.6,9.6c-2.4,2.4-5.6,3.7-9.5,3.7
		c-4,0-7.1-1.2-9.4-3.6c-2.3-2.4-3.5-5.6-3.5-9.7v-38.1h-55.2v38.1c0,4-1.2,7.2-3.6,9.6c-2.4,2.4-5.5,3.7-9.3,3.7
		c-4,0-7.1-1.2-9.5-3.6c-2.4-2.4-3.6-5.6-3.6-9.7V53.5c0-4,1.2-7.1,3.6-9.5c2.4-2.4,5.6-3.6,9.5-3.6c4,0,7.1,1.2,9.4,3.6
		c2.3,2.4,3.5,5.6,3.5,9.5v36.2h55.2V53.5c0-4,1.2-7.1,3.5-9.5c2.3-2.4,5.5-3.6,9.4-3.6C671.5,40.4,674.7,41.6,677.1,43.9z"/>
	<path fill="#FFFFFF" d="M817.5,150.4c0,3.2-1.3,5.9-3.8,8.1s-5.5,3.3-8.8,3.3c-2.2,0-4.2-0.6-6.1-1.8c-1.9-1.2-3.4-3-4.4-5.4
		l-9-20.1h-57.6l-9,20.1c-1,2.4-2.5,4.2-4.3,5.4c-1.9,1.2-3.9,1.8-6.2,1.8c-3.3,0-6.2-1.1-8.8-3.3c-2.6-2.2-3.9-4.9-3.9-8.1
		c0-1.6,0.5-3.4,1.4-5.4l45.9-96.4c1.2-2.7,3.1-4.8,5.6-6.2c2.5-1.4,5.2-2.1,8-2.1c2.9,0,5.7,0.7,8.2,2.2c2.5,1.5,4.4,3.5,5.8,6.1
		l45.9,96.4C817,147,817.5,148.8,817.5,150.4z M736.7,114.5h39.6l-19.7-44.2L736.7,114.5z"/>
	<path fill="#FFFFFF" d="M947.6,44c2.3,2.4,3.5,5.6,3.5,9.4V150c0,3.7-1.1,6.7-3.2,8.8c-2.2,2.2-5,3.2-8.5,3.2
		c-3.4,0-6.2-1.1-8.3-3.2c-2.2-2.2-3.2-5.1-3.2-8.8V90l-24.1,45.4c-1.6,2.9-3.3,5.1-5.2,6.5s-4.1,2-6.7,2c-2.5,0-4.7-0.7-6.6-2
		c-1.9-1.4-3.7-3.5-5.3-6.5l-24.1-44.5V150c0,3.6-1.1,6.5-3.2,8.8c-2.2,2.2-5,3.3-8.5,3.3c-3.4,0-6.2-1.1-8.3-3.2
		c-2.2-2.2-3.2-5.1-3.2-8.8V53.5c0-3.9,1.2-7,3.5-9.4c2.3-2.4,5.4-3.7,9.1-3.7c5.4,0,9.6,2.9,12.4,8.7l34.5,65.5L926.3,49
		c3.1-5.8,7.1-8.7,12.2-8.7C942.3,40.4,945.3,41.6,947.6,44z"/>
	<path fill="#FFFFFF" d="M978.8,158.5c-2.4-2.4-3.6-5.6-3.6-9.7V53.6c0-4,1.1-7,3.2-9.2c2.2-2.2,5.2-3.2,9.2-3.2h42.7
		c13,0,23.2,3.3,30.4,9.9c7.3,6.6,10.9,15.8,10.9,27.5c0,11.8-3.6,21-10.9,27.5c-7.3,6.6-17.4,9.9-30.4,9.9h-28.6v32.8
		c0,4.1-1.2,7.3-3.6,9.7c-2.4,2.4-5.6,3.6-9.7,3.6S981.2,160.9,978.8,158.5z M1046.8,78.8c0-11.6-6.6-17.3-19.9-17.3h-25.2V96h25.2
		C1040.2,96,1046.8,90.2,1046.8,78.8z"/>
</g>
<g enable-background="new    ">
	<path fill="#FFFFFF" d="M573.6,184c2.3,2.4,3.5,5.6,3.5,9.4V290c0,3.7-1.1,6.7-3.2,8.8c-2.2,2.2-5,3.2-8.5,3.2
		c-3.4,0-6.2-1.1-8.3-3.2c-2.2-2.2-3.2-5.1-3.2-8.8v-60l-24.1,45.4c-1.6,2.9-3.3,5.1-5.2,6.5c-1.9,1.4-4.1,2-6.7,2
		c-2.5,0-4.7-0.7-6.6-2c-1.9-1.4-3.7-3.5-5.3-6.5l-24.1-44.5V290c0,3.6-1.1,6.5-3.2,8.8c-2.2,2.2-5,3.3-8.5,3.3
		c-3.4,0-6.2-1.1-8.3-3.2c-2.2-2.2-3.2-5.1-3.2-8.8v-96.6c0-3.9,1.2-7,3.5-9.4c2.3-2.4,5.4-3.7,9.1-3.7c5.4,0,9.6,2.9,12.4,8.7
		l34.5,65.5l34.3-65.5c3.1-5.8,7.1-8.7,12.2-8.7C568.3,180.4,571.3,181.6,573.6,184z"/>
	<path fill="#FFFFFF" d="M714.3,290.4c0,3.2-1.3,5.9-3.8,8.1s-5.5,3.3-8.8,3.3c-2.2,0-4.2-0.6-6.1-1.8c-1.9-1.2-3.4-3-4.4-5.4
		l-9-20.1h-57.6l-9,20.1c-1,2.4-2.5,4.2-4.3,5.4c-1.9,1.2-3.9,1.8-6.2,1.8c-3.3,0-6.2-1.1-8.8-3.3c-2.6-2.2-3.9-4.9-3.9-8.1
		c0-1.6,0.5-3.4,1.4-5.4l45.9-96.4c1.2-2.7,3.1-4.8,5.6-6.2c2.5-1.4,5.2-2.1,8-2.1c2.9,0,5.7,0.7,8.2,2.2c2.5,1.5,4.4,3.5,5.8,6.1
		l45.9,96.4C713.8,287,714.3,288.8,714.3,290.4z M633.5,254.5h39.6l-19.7-44.2L633.5,254.5z"/>
	<path fill="#FFFFFF" d="M829.7,291.6c0,3.2-1.3,5.8-3.8,7.8s-5.5,3.1-8.9,3.1c-2.2,0-4.2-0.5-6.3-1.5c-2-1-3.7-2.6-5.1-4.8
		l-22.4-33.3c-1.9-2.9-4-5.1-6.1-6.4c-2.2-1.3-4.9-2-8.2-2h-13.8v34.3c0,4.1-1.2,7.3-3.5,9.7c-2.3,2.4-5.5,3.6-9.4,3.6
		c-4.1,0-7.3-1.2-9.7-3.6c-2.4-2.4-3.6-5.6-3.6-9.7v-95.2c0-4,1.1-7,3.2-9.2c2.2-2.2,5.2-3.2,9.2-3.2H784c14.1,0,24.7,3.1,31.9,9.3
		c7.2,6.2,10.8,15.1,10.8,26.8c0,9.2-2.6,16.8-7.7,22.9s-12.3,10.1-21.6,12.1c3.4,0.7,6.4,2,9.1,4c2.7,2,5.2,4.8,7.7,8.6l12.9,19.4
		C828.9,286.7,829.7,289.2,829.7,291.6z M796.6,230.4c3.4-2.7,5.1-6.8,5.1-12.5c0-5.8-1.7-10-5.1-12.6c-3.4-2.6-8.9-3.9-16.5-3.9
		h-25.3v33h25.3C787.7,234.4,793.2,233.1,796.6,230.4z"/>
	<path fill="#FFFFFF" d="M949.1,289.7c0,3.2-1.2,5.9-3.7,8.3c-2.4,2.4-5.2,3.6-8.4,3.6c-3.6,0-6.9-1.5-9.7-4.4l-52.7-51.5v43.2
		c0,4.1-1.2,7.3-3.6,9.7c-2.4,2.4-5.6,3.6-9.7,3.6s-7.3-1.2-9.7-3.6s-3.6-5.6-3.6-9.7v-95.4c0-4,1.2-7.1,3.6-9.5s5.6-3.6,9.7-3.6
		s7.3,1.2,9.7,3.6c2.4,2.4,3.6,5.6,3.6,9.5v40.6l51.3-49.8c2.5-2.5,5.3-3.7,8.5-3.7c3.2,0,6,1.2,8.3,3.5c2.4,2.3,3.6,5.1,3.6,8.2
		c0,3.3-1.4,6.2-4.1,8.8L901.8,239l43.3,42.2C947.8,283.8,949.1,286.6,949.1,289.7z"/>
</g>
<g enable-background="new    ">
	<path fill="#FFFFFF" d="M972.7,297.8c-2.2-2.2-3.2-5.2-3.2-9.2v-95c0-4,1.1-7,3.2-9.2c2.2-2.2,5.2-3.2,9.2-3.2h60.2
		c8.4,0,12.6,3.4,12.6,10.2c0,6.9-4.2,10.4-12.6,10.4h-46.8v28h43.3c8.4,0,12.6,3.5,12.6,10.4c0,6.8-4.2,10.2-12.6,10.2h-43.3v30.1
		h46.8c8.4,0,12.6,3.5,12.6,10.4c0,6.8-4.2,10.2-12.6,10.2h-60.2C977.9,301.1,974.8,300,972.7,297.8z"/>
</g>
<g enable-background="new    ">
	<path fill="#FFFFFF" d="M1105,298.4c-2.4-2.4-3.7-5.6-3.7-9.5v-86h-27.5c-8.4,0-12.6-3.6-12.6-10.9c0-7.1,4.2-10.7,12.6-10.7h81.6
		c8.4,0,12.6,3.6,12.6,10.7c0,7.3-4.2,10.9-12.6,10.9h-27.5v86c0,4-1.2,7.1-3.6,9.5s-5.6,3.6-9.7,3.6
		C1110.7,301.9,1107.5,300.7,1105,298.4z"/>
	<path fill="#FFFFFF" d="M1182.6,297.8c-2.2-2.2-3.2-5.2-3.2-9.2v-95c0-4,1.1-7,3.2-9.2c2.2-2.2,5.2-3.2,9.2-3.2h60.2
		c8.4,0,12.6,3.4,12.6,10.2c0,6.9-4.2,10.4-12.6,10.4h-46.8v28h43.3c8.4,0,12.6,3.5,12.6,10.4c0,6.8-4.2,10.2-12.6,10.2h-43.3v30.1
		h46.8c8.4,0,12.6,3.5,12.6,10.4c0,6.8-4.2,10.2-12.6,10.2h-60.2C1187.9,301.1,1184.8,300,1182.6,297.8z"/>
	<path fill="#FFFFFF" d="M1381,291.6c0,3.2-1.3,5.8-3.8,7.8c-2.5,2-5.5,3.1-8.9,3.1c-2.2,0-4.2-0.5-6.3-1.5c-2-1-3.7-2.6-5.1-4.8
		l-22.4-33.3c-1.9-2.9-4-5.1-6.1-6.4c-2.2-1.3-4.9-2-8.2-2h-13.8v34.3c0,4.1-1.2,7.3-3.5,9.7c-2.3,2.4-5.5,3.6-9.4,3.6
		c-4.1,0-7.3-1.2-9.7-3.6c-2.4-2.4-3.6-5.6-3.6-9.7v-95.2c0-4,1.1-7,3.2-9.2c2.2-2.2,5.2-3.2,9.2-3.2h42.7c14.1,0,24.7,3.1,31.9,9.3
		c7.2,6.2,10.8,15.1,10.8,26.8c0,9.2-2.6,16.8-7.7,22.9s-12.3,10.1-21.6,12.1c3.4,0.7,6.4,2,9.1,4c2.7,2,5.2,4.8,7.7,8.6l12.9,19.4
		C1380.2,286.7,1381,289.2,1381,291.6z M1347.9,230.4c3.4-2.7,5.1-6.8,5.1-12.5c0-5.8-1.7-10-5.1-12.6c-3.4-2.6-8.9-3.9-16.5-3.9
		h-25.3v33h25.3C1339,234.4,1344.5,233.1,1347.9,230.4z"/>
</g>
<path fill="#FFFFFF" d="M407.7,42.7c-0.2-9.3-2-19.7-17.3-24.6C269.9-21.5,158.7,80.4,38.2,40.7c-9.4-3.6-16.9-0.2-16.7,9.2
	c1.6,86,3,172,4.8,258c0.3,13.8,7.9,20.9,17.3,24.5C164,372.2,275.3,270.2,395.7,310c9.4,3.6,16.9,0.1,16.7-9.2
	C410.8,214.8,409.2,128.8,407.7,42.7z M310.5,151.9l-38.4,41l17.8,53.4c1.8,5.4-1.1,11.2-6.5,13c-2.5,0.8-5.2,0.7-7.6-0.5l-50.8-24
	l-45.1,33.4c-4.6,3.4-11,2.4-14.4-2.2c-1.6-2.1-2.3-4.8-1.9-7.4l7-55.8l-45.7-32.7c-4.6-3.3-5.7-9.8-2.4-14.4
	c1.5-2.1,3.8-3.6,6.4-4.1l55.1-10.5L201,87.6c1.7-5.4,7.5-8.4,12.9-6.7c2.5,0.8,4.7,2.5,5.9,4.9l27,49.3l56.1-0.4
	c5.7,0,10.3,4.5,10.4,10.2C313.3,147.4,312.3,150,310.5,151.9L310.5,151.9z"/>
</svg>
