<svg id="Layer_1" data-name="Layer 1" xmlns="http://www.w3.org/2000/svg" viewBox="0 0 576.79 568.87"><circle cx="287.4" cy="281.77" r="269.09" fill="#f9df98"/><path d="M438.45,144.7h-298a77,77,0,0,0-76.75,76.75V346.28A77,77,0,0,0,140.43,423H212.5c34.12,32.2,54.18,59.47,66.07,59.47,11.58,0,35.1-31.45,66-59.47h93.87a77,77,0,0,0,76.76-76.76V221.45A77,77,0,0,0,438.45,144.7Z" fill="#e1306c"/><circle cx="203.5" cy="258.02" r="28.47" fill="#fff"/><path d="M237,301H169.65a19.35,19.35,0,0,0-19.29,19.29v19.3h106v-19.3A19.35,19.35,0,0,0,237,301Z" fill="#fff"/><path d="M372.14,298.37c0,14.07-11.43,23-25.91,23-19.33,0-30.67-12.45-30.67-35.23,0-24.29,14.17-37.65,34.72-37.65,7.09,0,13.87,1.52,18.62,4.56L364.05,263c-3.85-2.53-8.51-3.44-13.47-3.44-13.36,0-21.76,8.3-21.76,24.39v.1c4.25-5,11-7.39,18.93-7.39C361.72,276.61,372.14,285.11,372.14,298.37Zm-12.75.61c0-7.39-5.57-12.05-14.17-12.05s-14.37,5.17-14.37,12.15c0,6.68,5.26,11.94,14.67,11.94C353.72,311,359.39,306.37,359.39,299Z" fill="#fff"/><path d="M425.48,298.57c0,12.45-9,22.78-28,22.78-10,0-20.14-3-26.62-8.2l5.57-10.22c5.16,4.25,12.85,7,20.85,7,9.41,0,15-4.15,15-10.83s-4.35-11-19-11H376.09l3.65-38.56h41.59v11H390.87l-1.52,16.39h6.78C417.08,276.91,425.48,286,425.48,298.57Z" fill="#fff"/></svg>