<?xml version="1.0" encoding="utf-8"?>
<!-- Generator: Adobe Illustrator 17.0.0, SVG Export Plug-In . SVG Version: 6.00 Build 0)  -->
<!DOCTYPE svg PUBLIC "-//W3C//DTD SVG 1.1//EN" "http://www.w3.org/Graphics/SVG/1.1/DTD/svg11.dtd">
<svg version="1.1" id="Layer_1" xmlns="http://www.w3.org/2000/svg" xmlns:xlink="http://www.w3.org/1999/xlink" x="0px" y="0px"
	 width="20px" height="20px" viewBox="0 0 20 20" enable-background="new 0 0 20 20" xml:space="preserve">
<g>
	<path fill="#757575" stroke="#757575" stroke-width="0.5" stroke-miterlimit="10" d="M6.824,14.011
		c-0.114,0-0.227-0.048-0.314-0.144c-0.173-0.192-0.173-0.504,0-0.696l6.351-7.038c0.173-0.192,0.454-0.192,0.628,0
		c0.173,0.192,0.173,0.504,0,0.696l-6.351,7.038C7.052,13.963,6.938,14.011,6.824,14.011z"/>
	<path fill="#757575" stroke="#757575" stroke-width="0.5" stroke-miterlimit="10" d="M13.176,14.011
		c-0.114,0-0.227-0.048-0.314-0.144L6.51,6.829c-0.173-0.192-0.173-0.504,0-0.696s0.454-0.192,0.628,0l6.351,7.038
		c0.173,0.192,0.173,0.504,0,0.696C13.403,13.963,13.289,14.011,13.176,14.011z"/>
</g>
</svg>
