<svg id="Layer_1" data-name="Layer 1" xmlns="http://www.w3.org/2000/svg" viewBox="0 0 577.2 568.87"><circle cx="293.01" cy="281.2" r="269.09" fill="#f9df98"/><path d="M438.29,138.75H138.91A77.34,77.34,0,0,0,61.8,215.86V341.27a77.33,77.33,0,0,0,77.11,77.1h72.4c34.27,32.35,54.43,59.75,66.37,59.75,11.63,0,35.26-31.59,66.32-59.75h94.29a77.33,77.33,0,0,0,77.11-77.1V215.86A77.34,77.34,0,0,0,438.29,138.75Z" fill="#e1306c"/><path d="M217.08,339.4a7.08,7.08,0,0,1-5.25-2.25l-40.05-37.82a19.78,19.78,0,0,1-1.84-1.82c-.79-.84-2.06-2.39-3.78-4.64a62.17,62.17,0,0,1-4.62-6.92,45.37,45.37,0,0,1-3.74-8.8,34.17,34.17,0,0,1-1.67-10.32c0-10.73,3.08-21.84,9.15-28s14.46-9.33,24.94-9.33a28.19,28.19,0,0,1,9.22,1.62,36,36,0,0,1,8.51,4.3q3.72,2.55,6.4,4.79c.93.78,1.84,1.59,2.73,2.42.89-.83,1.8-1.64,2.74-2.42q2.67-2.24,6.39-4.79a35.93,35.93,0,0,1,8.5-4.3,28.45,28.45,0,0,1,9.22-1.62c10.48,0,18.88,3.13,24.95,9.33s9.15,17.3,9.15,28-5.28,21.74-15.68,32.6l-40.07,37.78A7.09,7.09,0,0,1,217.08,339.4Z" fill="#fff"/><path d="M368.09,245v8.85l-27.66,62.33H326.3l26.74-60h-28v12.1h-12.3V245Z" fill="#fff"/><path d="M421.07,294.29c0,12.51-9.05,22.88-28.17,22.88-10.06,0-20.23-3.05-26.74-8.24l5.59-10.27c5.19,4.27,12.92,7,20.95,7,9.46,0,15.05-4.17,15.05-10.88s-4.37-11.08-19.12-11.08H371.45L375.11,245H416.9v11.09H386.29l-1.52,16.47h6.81C412.63,272.53,421.07,281.68,421.07,294.29Z" fill="#fff"/></svg>