<svg xmlns="http://www.w3.org/2000/svg" viewBox="0 0 1226.63 568.87"><g id="likes-new"><path d="M942.53,16.92H278.61c-145.14,0-262.8,119.77-262.8,267.52S133.47,552,278.61,552c0,0,622.66,0,705.51-3.35,125.37-20.29,221.21-130.83,221.21-264.16C1205.33,136.69,1087.67,16.92,942.53,16.92Z" fill="#f9df98"/><path d="M779.09,491.46c-3.16,31.85,138.1,1.47,137.28-25.24-.77-25.17-12.39-78.27-17.25-95.3-13.73-48.18-38.29,10.69-73.51,5.95C812.22,403.52,796.84,412.84,779.09,491.46Z" fill="#fcc798"/><path d="M823.52,381.15s10.37,4.21,29.24,4.21c23.36,0,39.79-5.64,39.79-5.64s-28.32,20.48-71.22,5Z" fill="#070707" opacity="0.07"/><path d="M817.14,391.44s4.19,11.28,31.37,12.14c38.35,1.21,55.3-14.51,55.3-14.51s49.13,4.12,63.93,32.46c46.91,89.86,44.91,125.69,44.91,125.69-130.58,26.57-285.25,7.5-285.25,7.5s-4.7-17,2.86-63.05C750.62,390.52,817.14,391.44,817.14,391.44Z" fill="#fff"/><path d="M725.24,239.87c8.31-45.73,12.12-70,43.36-92.78s72.59-33.9,119.24-33A213.62,213.62,0,0,1,941,132.9c28.15,14.47,58.14,38.87,64.1,78.3,3.44,22.71,2.66,44.88-2.31,65.42-12.07,49.91-36.91,91.31-110.06,105.11-43.66,8.23-90.7,7-127.19-16.87C752.3,356.16,711.13,317.56,725.24,239.87Z" fill="#fcc798"/><path d="M729.63,150.3c-23.32-2.37-21-43,11.77-29.43-13-10.62-27.91-28.16-13.17-46.22,17.72-21.73,66-14.33,71,17.94-.93-4.2-10.07-31.5,5.53-39.66,36.33-19,50.94,19.23,47.31,30.3C851.7,84.42,989.9,58.8,1024.48,184c9.62,45.71-5.89,94.48-35.43,100.55-10,2.05-25.5-1-22.66-10.77,14-38.41,19.81-51-1.68-61.7-17.28-8.65-158.74,8.49-212-25.93-23.46,35.2-26.85,41.69-31.34,90.23C703.89,262.44,709.69,180.32,729.63,150.3Z" fill="#da396d"/><path d="M889.64,250.32c-.52,6.26,2.65,11.62,7.07,12s8.43-4.41,8.94-10.67-2.65-11.61-7.07-12S890.15,244.07,889.64,250.32Z" fill="#0f312a"/><path d="M762.35,243.73c-.52,6.25,2.65,11.62,7.07,12s8.43-4.41,8.94-10.66-2.65-11.62-7.07-12S762.86,237.47,762.35,243.73Z" fill="#0f312a"/><path d="M829.17,286.18l-.3,0a47.12,47.12,0,0,1-7.2-1.65c-6.34-2.27-8.43-5.85-9.06-8.44s-.41-7,4.5-12.3C821.48,259,822.82,249,823,245.6a3.32,3.32,0,0,1,3.45-3.18,3.26,3.26,0,0,1,3.17,3.45c0,.61-.7,14.92-7.61,22.38-2.23,2.42-3.3,4.68-2.92,6.22s2.07,2.78,4.85,3.78a43.19,43.19,0,0,0,6,1.34,3.32,3.32,0,0,1-.7,6.59Z" fill="#e29f5b"/><path d="M972.21,286.22A20.27,20.27,0,1,0,990.33,264,20.26,20.26,0,0,0,972.21,286.22Z" fill="#fcc798"/><path d="M986,274.44s4.86-3.52,11,1.45,6.37,11.8,2.54,13.41c-5,2.13-3.2-4.24-8.16-5.6s-7.43,2.15-10.33-1.87S986,274.44,986,274.44Z" fill="#ea9f66" opacity="0.4"/><path d="M811.07,304.11c.51,5.86,1.91,10.15,8.42,11.37,8.21,1.53,13.18-4,14.67-11.54.9-4.56,7.86-2.63,7,1.92-2.14,10.79-10.51,18.43-21.81,16.85-10.71-1.51-14.59-8.67-15.46-18.6-.41-4.63,6.81-4.6,7.22,0Z" fill="#e29f5b"/><path d="M959,282.21c-.32,10.58-12.47,18.82-27.15,18.42s-26.31-9.3-26-19.88S918.3,261.93,933,262.33,959.29,271.63,959,282.21Z" fill="#ea9f66" opacity="0.4"/><path d="M780.55,274c-.31,10.57-12.47,18.82-27.14,18.42s-26.32-9.3-26-19.88,12.47-18.82,27.15-18.42S780.87,263.38,780.55,274Z" fill="#ea9f66" opacity="0.4"/><path d="M856.68,253a41,41,0,1,0,36.62-44.89A41,41,0,0,0,856.68,253Z" fill="none" stroke="#fff" stroke-miterlimit="10" stroke-width="10"/><path d="M728.66,241.24a41,41,0,1,0,36.62-44.89A41,41,0,0,0,728.66,241.24Z" fill="none" stroke="#fff" stroke-miterlimit="10" stroke-width="10"/><path d="M856.68,253s-18.12-35.9-47-8.44" fill="none" stroke="#fff" stroke-miterlimit="10" stroke-width="10"/><line x1="940.17" y1="254.57" x2="986.81" y2="264.03" fill="none" stroke="#fff" stroke-miterlimit="10" stroke-width="10"/><g id="likes-2" data-name="likes"><path d="M488.29,138.75H188.91a77.34,77.34,0,0,0-77.11,77.11V341.27a77.33,77.33,0,0,0,77.11,77.1h72.4c34.27,32.35,54.43,59.75,66.37,59.75,11.63,0,35.26-31.59,66.32-59.75h94.29a77.33,77.33,0,0,0,77.11-77.1V215.86A77.34,77.34,0,0,0,488.29,138.75Z" fill="#e1306c"/><path d="M267.08,339.4a7.08,7.08,0,0,1-5.25-2.25l-40-37.82a19.78,19.78,0,0,1-1.84-1.82c-.79-.84-2.06-2.39-3.78-4.64a62.17,62.17,0,0,1-4.62-6.92,45.37,45.37,0,0,1-3.74-8.8,34.17,34.17,0,0,1-1.67-10.32c0-10.73,3.08-21.84,9.15-28s14.46-9.33,24.94-9.33a28.19,28.19,0,0,1,9.22,1.62,36,36,0,0,1,8.51,4.3q3.72,2.55,6.4,4.79c.93.78,1.84,1.59,2.73,2.42.89-.83,1.8-1.64,2.74-2.42q2.67-2.24,6.39-4.79a35.93,35.93,0,0,1,8.5-4.3,28.45,28.45,0,0,1,9.22-1.62c10.48,0,18.88,3.13,24.95,9.33s9.15,17.3,9.15,28-5.28,21.74-15.68,32.6l-40.07,37.78A7.09,7.09,0,0,1,267.08,339.4Z" fill="#fff"/><path d="M418.09,245v8.85l-27.66,62.33H376.3l26.74-60h-28v12.1h-12.3V245Z" fill="#fff"/><path d="M471.07,294.29c0,12.51-9.05,22.88-28.17,22.88-10.06,0-20.23-3.05-26.74-8.24l5.59-10.27c5.19,4.27,12.92,7,20.95,7,9.46,0,15.05-4.17,15.05-10.88s-4.37-11.08-19.12-11.08H421.45L425.11,245H466.9v11.09H436.29l-1.52,16.47h6.81C462.63,272.53,471.07,281.68,471.07,294.29Z" fill="#fff"/></g></g></svg>