<svg id="Layer_1" data-name="Layer 1" xmlns="http://www.w3.org/2000/svg" viewBox="0 0 500 400"><defs><style>.cls-1{fill:#e1306c;}.cls-2{fill:#fff;}.cls-3{fill:none;}</style></defs><path class="cls-1" d="M399.47,26.53H100.08A77.33,77.33,0,0,0,23,103.64V229.05a77.33,77.33,0,0,0,77.1,77.11h72.41c34.27,32.34,54.43,59.74,66.37,59.74,11.63,0,35.26-31.59,66.31-59.74h94.3a77.34,77.34,0,0,0,77.11-77.11V103.64A77.34,77.34,0,0,0,399.47,26.53Z"/><path class="cls-2" d="M279,132.83V204H265.78v-60.1h-15V132.83Z"/><path class="cls-2" d="M288.05,168.42c0-23.39,12.81-36.61,29.69-36.61s29.79,13.22,29.79,36.61S334.72,205,317.74,205,288.05,191.8,288.05,168.42Zm46.16,0c0-17.19-6.71-25.12-16.47-25.12s-16.37,7.93-16.37,25.12,6.71,25.11,16.37,25.11S334.21,185.6,334.21,168.42Z"/><path class="cls-2" d="M402.44,192.82V204H350v-8.85l28.27-26.84c6.91-6.61,8.13-10.78,8.13-14.75,0-6.51-4.47-10.27-13.22-10.27-6.91,0-12.71,2.34-16.67,7.42l-9.26-7.11c5.5-7.43,15.36-11.8,27-11.8,15.46,0,25.42,7.83,25.42,20.44,0,6.91-1.93,13.22-11.79,22.47l-19,18.1Z"/><g id="Artwork_6" data-name="Artwork 6"><path class="cls-3" d="M97.6,109.94H226v128.4H97.6Z"/><path class="cls-2" d="M161.8,134A63.26,63.26,0,0,0,103,174.14a63.22,63.22,0,0,0,117.7,0A63.27,63.27,0,0,0,161.8,134Zm0,66.87a26.75,26.75,0,1,1,26.75-26.75A26.75,26.75,0,0,1,161.8,200.89Zm0-42.8a16,16,0,1,0,16,16A16,16,0,0,0,161.8,158.09Z"/></g></svg>