<?xml version="1.0" encoding="utf-8"?>
<!-- Generator: Adobe Illustrator 16.0.0, SVG Export Plug-In . SVG Version: 6.00 Build 0)  -->
<!DOCTYPE svg PUBLIC "-//W3C//DTD SVG 1.1//EN" "http://www.w3.org/Graphics/SVG/1.1/DTD/svg11.dtd">
<svg class="icon" version="1.1" xmlns="http://www.w3.org/2000/svg" xmlns:xlink="http://www.w3.org/1999/xlink" xml:space="preserve" width="36" height="22" viewBox="0 0 36 22"><rect data-name="Rounded Rectangle 54" width="36" height="22" rx="3" ry="3" fill="#2183cb"></rect><path d="M19.058 18H16.63A6.86 6.86 0 0 1 10 11.062a6.725 6.725 0 0 1 6.338-7.056h2.724a6.965 6.965 0 0 1 6.93 7v.061A7.032 7.032 0 0 1 19.058 18zM16.807 5.226A5.781 5.781 0 1 0 22.434 11a5.741 5.741 0 0 0-5.627-5.778zm.889 9.671V7.173a3.98 3.98 0 0 1 2.843 4.805 3.909 3.909 0 0 1-2.843 2.919zm-1.777 0a4.008 4.008 0 0 1-2.784-4.865 3.948 3.948 0 0 1 2.784-2.859v7.724z" fill="#fff" fill-rule="evenodd"></path></svg>