<?xml version="1.0" encoding="utf-8"?>
<!-- Generator: Adobe Illustrator 16.0.0, SVG Export Plug-In . SVG Version: 6.00 Build 0)  -->
<!DOCTYPE svg PUBLIC "-//W3C//DTD SVG 1.1//EN" "http://www.w3.org/Graphics/SVG/1.1/DTD/svg11.dtd">
<svg class="icon" version="1.1" xmlns="http://www.w3.org/2000/svg" xmlns:xlink="http://www.w3.org/1999/xlink" xml:space="preserve" width="36" height="22" viewBox="0 0 36 22"><rect data-name="Rounded Rectangle 56" width="36" height="22" rx="3" ry="3" fill="#f19e0c"></rect><path d="M29.877 11.315h-.258V9.871h.258a.686.686 0 0 1 .825.695.7.7 0 0 1-.825.749zm1.753-.8a1.35 1.35 0 0 0-1.6-1.39h-1.289v4.758h.876v-1.925h.1l1.185 1.925h1.082L30.6 11.9a1.29 1.29 0 0 0 1.031-1.39zm-5.928 3.368h2.474v-.8h-1.6V11.8h1.546V11h-1.546V9.931h1.6v-.8H25.7v4.758zm-2.577-1.551L21.94 9.125h-.928l1.907 4.865h.464l1.907-4.865h-.928l-1.237 3.207zm-10.463-.8a2.4 2.4 0 0 0 2.32 2.46 2.719 2.719 0 0 0 1.134-.268v-1.069a1.33 1.33 0 0 1-1.031.535 1.479 1.479 0 0 1-1.5-1.5v-.107a1.577 1.577 0 0 1 1.443-1.657 1.43 1.43 0 0 1 1.083.534V9.39a1.926 1.926 0 0 0-1.083-.267 2.271 2.271 0 0 0-2.371 2.405zm-1.6-.587c-.515-.214-.67-.321-.67-.589a.578.578 0 0 1 .619-.534 1.066 1.066 0 0 1 .721.374l.464-.642a1.994 1.994 0 0 0-1.288-.534 1.339 1.339 0 0 0-1.392 1.283v.053a1.231 1.231 0 0 0 1.083 1.283 3.118 3.118 0 0 1 .618.268.564.564 0 0 1 .258.481.69.69 0 0 1-.619.695h-.051a1.018 1.018 0 0 1-.928-.642l-.567.588a1.74 1.74 0 0 0 1.546.909 1.475 1.475 0 0 0 1.547-1.443v-.165c-.052-.641-.31-.962-1.341-1.389zm-2.989 2.94h.876V9.127h-.876v4.758zm-1.752-1.176a1.6 1.6 0 0 1-1.186.374h-.258V9.929h.258a1.592 1.592 0 0 1 1.186.374 1.692 1.692 0 0 1 .464 1.176 1.731 1.731 0 0 1-.464 1.23zM5.29 9.127H4v4.758h1.289a2.245 2.245 0 0 0 1.6-.535 2.487 2.487 0 0 0 .824-1.818 2.293 2.293 0 0 0-2.164-2.405h-.258zm13.452-.11a2.41 2.41 0 0 0-2.371 2.459 2.492 2.492 0 0 0 2.371 2.512 2.418 2.418 0 0 0 2.423-2.459 2.5 2.5 0 0 0-2.423-2.512z" fill="#fff" fill-rule="evenodd"></path></svg>