<svg id="followers" xmlns="http://www.w3.org/2000/svg" viewBox="0 0 1226.63 568.87"><path d="M946.57,14.26H282.65C137.52,14.26,19.86,134,19.86,281.77S137.52,549.28,282.65,549.28H705.76c6.41-34.51,15.75-65.51,29.3-85.73,27.48-41,67.59-41,67.59-41s2.93,12.75,35.58,14.68c24.73,1.45,49.88-12.35,49.88-12.35s-4.53-4.28,41.24,15.23c26.69,11.39,40.22,31.5,46.85,52.05,1.28,3.95,5.87,24.93,12,53.76,125.37-20.29,221.21-130.83,221.21-264.16C1209.37,134,1091.71,14.26,946.57,14.26Z" fill="#f9df98"/><path d="M881.74,109.77a241.94,241.94,0,0,1,59.59,22.85c31.41,17.21,64.6,45.7,70.18,90.48,3.21,25.78,1.67,50.83-4.56,73.92-15.14,56.1-58,100.56-127.61,115.61-49.13,10.63-102.8,5.28-143.36-22.85s-66.05-89.49-57.58-141.39,31.47-79.95,67.49-104.83S829,107.37,881.74,109.77Z" fill="#fbc698"/><path d="M742.06,269.58c-.2-2.47.54-9.92,4.07-10.18,4.42-.32,2.45,8.73,2,10.63-1.31,5.19,6.7,7.4,8,2.21,1.94-7.69,1.53-20.42-9.12-21.11-9.23-.59-13.89,10.73-13.24,18.45.44,5.29,8.76,5.34,8.31,0Z" fill="#0f312a"/><path d="M888.34,271.31c-.21-2.47.53-9.92,4.07-10.18,4.42-.32,2.44,8.73,2,10.63-1.31,5.19,6.71,7.4,8,2.21,1.93-7.69,1.53-20.42-9.13-21.11-9.22-.59-13.88,10.72-13.24,18.45.45,5.29,8.77,5.33,8.32,0Z" fill="#0f312a"/><path d="M824.13,312.16c-6.14,11.9-22.17,18.33-29.27,3.27-2.28-4.83-9.44-.62-7.17,4.2a22.6,22.6,0,0,0,21.18,13.15c10.13-.41,18-7.85,22.44-16.42,2.44-4.75-4.73-9-7.18-4.2Z" fill="#e29f5b"/><path d="M811.52,300.36a3.23,3.23,0,0,0,.55-6.42,41.63,41.63,0,0,1-5.8-1.41c-2.69-1-4.35-2.37-4.67-3.78s.75-3.69,3-6c6.88-7.14,7.8-21.09,7.84-21.68a3.23,3.23,0,0,0-3-3.42,3.18,3.18,0,0,0-3.43,3c-.21,3.36-1.7,13.09-6,17.59-4.88,5.08-5.21,9.28-4.62,11.91s2.54,6.07,8.68,8.4a46.1,46.1,0,0,0,7,1.75A3.48,3.48,0,0,0,811.52,300.36Z" fill="#e29f5b"/><path d="M897.08,307.35c.57,12.06,14.6,21.23,31.34,20.48s29.85-11.13,29.28-23.2-14.61-21.23-31.35-20.48S896.5,295.28,897.08,307.35Z" fill="#ea9f66" opacity="0.4"/><path d="M686.31,301.72c.57,12.07,14.61,21.24,31.35,20.49s29.85-11.14,29.27-23.2-14.6-21.24-31.34-20.49S685.74,289.66,686.31,301.72Z" fill="#ea9f66" opacity="0.4"/><g opacity="0.07"><path d="M735.06,172.53C704.8,210.69,692.56,252.31,694,301c.75,25.79,2.53,55.62,34,83.49-6.91,10.69-21.73,11.93-34.41,10.89,0,0-19.86-39.25-21.24-75-1.54-39.95,3.29-67.69,14.7-92.92C696.75,205.86,735.06,172.53,735.06,172.53Z" fill="#d9396d"/></g><path d="M1084.63,278.63c3.89-1.07,8.6-4.58,10.4-14.2,4.28-22.86-15.59-32-15.59-32l-11.13-2.08s16.83-6,9.77-16.59c-6.28-9.42-21-15.11-25.4-14.89-.21-3.78,14.72-6.55,8.56-21.38-2.13-5.13-16.6-4.92-20.49-5.78-5.61-7.08,3.65-3.37.4-19.59s-28.72-17.21-28.72-17.21,14.21-12.8,7.08-20c-8.89-9-22,1.71-27.41,6.88,4.54-5,12.93-16.5,2.28-23.59C981.51,89.6,968,103,966,105.08L966,105c1.62-3,12.4-24.49-3.61-31.87-11-5-17.47-4.14-24.55,5.81.53-4-2-14.26-10.43-19.18-14.58-8.54-24.85-.8-32.19,7.33,1.36-11.69.88-20.43-17.26-22.85-17.08-2.28-20,20.6-20,20.6s-10.65-19.11-26-18.33c-20.83,1.06-28.64,23-28.64,23s-1.35-21.79-18.85-19.85c-12,1.33-19.71,10.06-18.26,22.2-2.27-3.33-8.67-13.54-18.37-12.07-23,3.46-25.1,25.22-25.1,25.22l.42,2.76-.5-.38a31.33,31.33,0,0,0-17.37-1.39,8.12,8.12,0,0,0-6.82,2.53,30.41,30.41,0,0,0-10,8.62c-4.71,6.15-5.36,11.11-4.54,14.7a16.73,16.73,0,0,0-1.66.78c-8.53-5.17-14.59-3.45-22.56,4.15-11.42,10.87,1.08,25.48,5.64,30.11-.1.2-.25.37-.37.56-4.39-2-17.15-8.6-27.44-.06s-6.31,23.14-6.31,23.14-18.27.55-24.62,15.83c-4.86,11.71,5,17.17,9,15.8-6.22,3.29-19,12.62-6.15,29.13.11.15.23.26.35.41-1.78,3.86-8.54,2.07-7.9,14.65.65,12.8,10,13.66,13.77,15.22-12.18,1-16.36,6.09-17.62,18.1C596,298.49,624,299,624,299s-21.67,4.2-20.82,20.91c.65,12.79,14.81,11.44,21.44,10.1-7.18,2-23.13,7.79-19.92,20,2.57,9.83,20.85,4.16,20.85,4.16s-19.14,23.79-6.86,34.88,16.83-3.64,16.83-3.64-1.53,25.67,12.83,29.15,16.94-16.2,16.94-16.2-.32,15.93,14.18,23.34,20.35-2.33,26.56-14.49a21.18,21.18,0,0,0,1.81-12c8.18-1,16.38-4.34,20.77-11.12C697.13,356.25,694.72,326.79,694,301c-1.4-48.11,10.57-89.31,40-127.11-2.43,6-4.53,13-.94,18.32a15.59,15.59,0,0,0,6,4.83c15.81,8.09,31.6-4.62,38.53-21.12l.33,0c-1.41,11.51,6.93,23.09,18.72,27.29,13.11,4.68,29.3-6.36,34.25-19.66C828.59,195,839,207.38,851,209.16c13.21,2,26.18-5.47,35.56-15-6.45,9.23-3.13,23,5.43,30.31s20.87,8.93,31.93,6.84,21.2-7.45,31.09-12.84c-1.76,11.27-12.46,28.95-8.33,39.57s14.74,17.4,25.35,13.23c-15.43,9.83-24.31,29.62-11.68,42.85-4.79,6.31-12,10.55-16.39,17.12s-4.28,17.54,3.08,20.46c-11,6.66-21.27,17.06-21.95,29.92S938.3,407.57,949.91,402A25,25,0,0,0,976,417.49c.61-.09,1.2-.29,1.81-.43,4,9.82,9.26,16.42,22.12,11.88,15.37-5.41,17.17-21.23,17.17-21.23s-.06,19.85,14.63,18.31,16.61-27.17,16.61-27.17,2.54,15.2,16.19,5.85-2.13-35.48-2.13-35.48,17.35,8.06,21.21-1.34c4.82-11.71-10.21-19.61-17.06-22.52,6.39,2.21,20.24,5.44,22.59-7.14,3.08-16.45-17.83-23.51-17.83-23.51s27.78,3.21,28.34-15.76C1100,286.87,1096.6,281.24,1084.63,278.63Z" fill="#d9396d"/><path d="M793.39,398.31s10.37,16.95,10.37,34.95c0,0,53,16,84.35-8.37,0,0-4.13-44.42-4.13-52.55l-96.2,26" fill="#fbc698"/><path d="M800.76,415.17s55.21,3.14,75-6c0,0-30.57,13.36-73.07,13.36Z" fill="#070707" opacity="0.07"/><path d="M468.45,144.7h-298a77,77,0,0,0-76.75,76.75V346.28A77,77,0,0,0,170.43,423H242.5c34.12,32.2,54.18,59.47,66.07,59.47,11.58,0,35.1-31.45,66-59.47h93.87a77,77,0,0,0,76.76-76.76V221.45A77,77,0,0,0,468.45,144.7Z" fill="#e1306c"/><circle cx="233.5" cy="258.02" r="28.47" fill="#fff"/><path d="M267,301H199.65a19.35,19.35,0,0,0-19.29,19.29v19.3h106v-19.3A19.35,19.35,0,0,0,267,301Z" fill="#fff"/><path d="M402.14,298.37c0,14.07-11.43,23-25.91,23-19.33,0-30.67-12.45-30.67-35.23,0-24.29,14.17-37.65,34.72-37.65,7.09,0,13.87,1.52,18.62,4.56L394.05,263c-3.85-2.53-8.51-3.44-13.47-3.44-13.36,0-21.76,8.3-21.76,24.39v.1c4.25-5,11-7.39,18.93-7.39C391.72,276.61,402.14,285.11,402.14,298.37Zm-12.75.61c0-7.39-5.57-12.05-14.17-12.05s-14.37,5.17-14.37,12.15c0,6.68,5.26,11.94,14.67,11.94C383.72,311,389.39,306.37,389.39,299Z" fill="#fff"/><path d="M455.48,298.57c0,12.45-9,22.78-28,22.78-10,0-20.14-3-26.62-8.2l5.57-10.22c5.16,4.25,12.85,7,20.85,7,9.41,0,15-4.15,15-10.83s-4.35-11-19-11H406.09l3.65-38.56h41.59v11H420.87l-1.52,16.39h6.78C447.08,276.91,455.48,286,455.48,298.57Z" fill="#fff"/></svg>