<svg id="Layer_1" data-name="Layer 1" xmlns="http://www.w3.org/2000/svg" viewBox="0 0 617.95 568.31"><circle cx="308.97" cy="284.15" r="269.09" fill="#f9df98"/><path d="M458.67,146.47H159.28a77.34,77.34,0,0,0-77.11,77.11V349a77.34,77.34,0,0,0,77.11,77.11h72.4c34.28,32.35,54.43,59.75,66.38,59.75,11.63,0,35.25-31.6,66.31-59.75h94.3A77.34,77.34,0,0,0,535.78,349V223.58A77.34,77.34,0,0,0,458.67,146.47Z" fill="#e1306c"/><path d="M338.2,252.76v71.18H325V263.85H309.93V252.76Z" fill="#fff"/><path d="M347.24,288.35c0-23.38,12.82-36.6,29.7-36.6s29.79,13.22,29.79,36.6S393.92,325,376.94,325,347.24,311.74,347.24,288.35Zm46.17,0c0-17.18-6.71-25.11-16.47-25.11s-16.38,7.93-16.38,25.11,6.72,25.12,16.38,25.12S393.41,305.54,393.41,288.35Z" fill="#fff"/><path d="M461.64,312.76v11.18H409.17V315.1l28.27-26.85c6.91-6.61,8.13-10.78,8.13-14.74,0-6.51-4.47-10.27-13.22-10.27-6.91,0-12.71,2.34-16.67,7.42l-9.26-7.12c5.49-7.42,15.36-11.79,27.05-11.79,15.46,0,25.42,7.83,25.42,20.44,0,6.91-1.93,13.21-11.79,22.47l-19,18.1Z" fill="#fff"/><g id="Artwork_6" data-name="Artwork 6"><path d="M156.8,229.88H285.2v128.4H156.8Z" fill="none"/><path d="M221,254a63.27,63.27,0,0,0-58.85,40.13,63.22,63.22,0,0,0,117.7,0A63.28,63.28,0,0,0,221,254Zm0,66.88a26.75,26.75,0,1,1,26.75-26.75A26.76,26.76,0,0,1,221,320.83Zm0-42.8a16.05,16.05,0,1,0,16.05,16.05A16,16,0,0,0,221,278Z" fill="#fff"/></g></svg>