<svg xmlns="http://www.w3.org/2000/svg" viewBox="0 0 1226.63 677.8"><g id="views"><path d="M943.84,13.56H279.92c-145.14,0-262.8,119.77-262.8,267.52s117.66,267.51,262.8,267.51c0,0,622.65,0,705.5-3.35C1110.8,525,1206.63,414.41,1206.63,281.08,1206.63,133.33,1089,13.56,943.84,13.56Z" fill="#f9df98"/><path d="M478.67,146.47H179.28a77.34,77.34,0,0,0-77.11,77.11V349a77.34,77.34,0,0,0,77.11,77.11h72.4c34.28,32.35,54.43,59.75,66.38,59.75,11.63,0,35.25-31.6,66.31-59.75h94.3A77.34,77.34,0,0,0,555.78,349V223.58A77.34,77.34,0,0,0,478.67,146.47Z" fill="#e1306c"/><path d="M358.2,252.76v71.18H345V263.85H329.93V252.76Z" fill="#fff"/><path d="M367.24,288.35c0-23.38,12.82-36.6,29.7-36.6s29.79,13.22,29.79,36.6S413.92,325,396.94,325,367.24,311.74,367.24,288.35Zm46.17,0c0-17.18-6.71-25.11-16.47-25.11s-16.38,7.93-16.38,25.11,6.72,25.12,16.38,25.12S413.41,305.54,413.41,288.35Z" fill="#fff"/><path d="M481.64,312.76v11.18H429.17V315.1l28.27-26.85c6.91-6.61,8.13-10.78,8.13-14.74,0-6.51-4.47-10.27-13.22-10.27-6.91,0-12.71,2.34-16.67,7.42l-9.26-7.12c5.49-7.42,15.36-11.79,27.05-11.79,15.46,0,25.42,7.83,25.42,20.44,0,6.91-1.93,13.21-11.79,22.47l-19,18.1Z" fill="#fff"/><g id="Artwork_6" data-name="Artwork 6"><path d="M176.8,229.88H305.2v128.4H176.8Z" fill="none"/><path d="M241,254a63.27,63.27,0,0,0-58.85,40.13,63.22,63.22,0,0,0,117.7,0A63.28,63.28,0,0,0,241,254Zm0,66.88a26.75,26.75,0,1,1,26.75-26.75A26.76,26.76,0,0,1,241,320.83Zm0-42.8a16.05,16.05,0,1,0,16.05,16.05A16,16,0,0,0,241,278Z" fill="#fff"/></g><path d="M699.42,209.35s-22.56,146-28.94,166.4-1.16,81.53,59,116.24c45.26,26.13,75.45-26.07,99.87-50.49s21.12-66-5.35-165.13S757.74,139.3,757.74,139.3Z" fill="#da396d"/><path d="M733.29,403.8S619.87,467.89,573.9,547.89h59S676,471.8,733.29,449.13,733.29,403.8,733.29,403.8Z" fill="#fcc798"/><path d="M807.37,360.72,720,395.17l8,74.11,22.87-3.09-30.11,81.6s136.07.8,250.91-2.13c0,0,4.16-110.49-11.46-137-25.28-43-53.5-43.87-53.5-43.87s-32.14,12.48-57.5,11C815.69,373.74,807.37,360.72,807.37,360.72Z" fill="#fff"/><polygon points="755.08 430.26 743.75 467.99 750.49 467.08 755.08 430.26" fill="#070707" opacity="0.07"/><path d="M806.92,361.82a99.15,99.15,0,0,0,5.15-18.67c42.1,5.69,91-54.29,91,5.6,0,5.19-2.88,10.55,3.66,16,0,0-28.22,12.12-57.87,12.11S807,361.62,807,361.62" fill="#fbc698"/><path d="M809.35,354.7s63.16,7.13,82.56-1.82c0,0-23.62,15.61-84.91,8.74Z" fill="#070707" opacity="0.07"/><path d="M899.49,67.73A229.67,229.67,0,0,1,955.39,91c29.34,17.14,60.06,45,64.17,87.63,2.37,24.53.26,48.24-6.26,70-15.82,52.79-57.61,93.83-124,106.28-46.87,8.79-97.62,2.31-135.34-25.43s-60.28-86.58-50.89-135.58,31.94-75,66.74-97.63S849.54,64.07,899.49,67.73Z" fill="#fcc798"/><path d="M769.42,203.23c.12,2.15-1.3,9.79-4.69,8.89-3.72-1-1.55-8.33-.92-10.55.58-2.06-1.34-4.19-3.27-4.52-2.3-.39-3.94,1.23-4.52,3.27-2,7.28-1.57,18.52,8.11,19.71,9.12,1.12,13.54-10.31,13.13-17.66-.29-5.06-8.13-4.21-7.84.86Z" fill="#0f312a"/><path d="M908.07,208.7c.12,2.15-1.29,9.8-4.69,8.89-3.72-1-1.55-8.32-.92-10.54s-1.34-4.19-3.27-4.52c-2.29-.4-3.94,1.22-4.52,3.26-2,7.28-1.57,18.53,8.11,19.72,9.13,1.12,13.54-10.31,13.13-17.67-.29-5.06-8.13-4.2-7.84.86Z" fill="#0f312a"/><path d="M810.59,258.62c1.82,11.9,14.39,22.59,24.88,11.66,3.51-3.65,9.45,1.53,5.93,5.21-5.93,6.17-14.79,9-23,5.92-9.44-3.49-14.18-12.78-15.62-22.19-.77-5,7.1-5.59,7.86-.6Z" fill="#e29f5b"/><path d="M824.44,244.93h-.28a45.29,45.29,0,0,1-7-1.14c-6.2-1.79-8.41-5.08-9.17-7.52s-.81-6.66,3.56-12c3.87-4.75,4.55-14.39,4.48-17.7a3.19,3.19,0,0,1,3.11-3.24h.07a3.18,3.18,0,0,1,3.17,3.11c0,.58.24,14.29-5.91,21.84-2,2.44-2.88,4.68-2.42,6.12s2.15,2.53,4.87,3.32a41,41,0,0,0,5.79.92,3.17,3.17,0,0,1-.28,6.33Z" fill="#e29f5b"/><path d="M966.73,246.87c-.42,11.21-13.37,19.87-28.92,19.33S910,256.14,910.4,244.93s13.36-19.86,28.92-19.32S967.14,235.67,966.73,246.87Z" fill="#ea9f66" opacity="0.4"/><path d="M761.45,239.32c-.41,11.21-13.36,19.86-28.91,19.32s-27.83-10-27.41-21.26,13.36-19.87,28.92-19.33S761.87,228.11,761.45,239.32Z" fill="#ea9f66" opacity="0.4"/><path d="M718.1,286.82c-30.49-42.93-26.17-173.53,31.23-230.94S925.65,18.41,925.65,18.41c109.07,22.69,138.62,92.79,144.77,184.8,4.22,63.21-11.63,101.69,8.36,211.28,10,54.67-7.54,87.56-26.82,98.64l-.68.42c-30.78,17.77-78.32,4.29-78.32,4.29S800.23,439,902.9,348.71c40.05-35.24,54.59-83,46.73-118.31l-7.86-35.27c-102.18-4.58-198-78.91-198-78.91-29.72,29-35.85,127.06-29.19,159.6A59.94,59.94,0,0,0,718.1,286.82Z" fill="#da396d"/><g id="glasses"><path d="M850.58,217.19a43.42,43.42,0,1,0,35-50.49A43.42,43.42,0,0,0,850.58,217.19Z" fill="none" stroke="#fff" stroke-miterlimit="10" stroke-width="8"/><path d="M714.3,215.44a43.43,43.43,0,1,0,35-50.49A43.42,43.42,0,0,0,714.3,215.44Z" fill="none" stroke="#fff" stroke-miterlimit="10" stroke-width="8"/><path d="M850.58,217.19s-22.14-36.44-50.35-5" fill="none" stroke="#fff" stroke-linecap="round" stroke-linejoin="round" stroke-width="8"/><line x1="938.94" y1="211.91" x2="989.02" y2="218.03" fill="none" stroke="#fff" stroke-linecap="round" stroke-miterlimit="10" stroke-width="8"/></g><path d="M483.08,617.35a12.5,12.5,0,0,1,2.35,7.7,11.89,11.89,0,0,1-4.52,9.87q-4.52,3.57-12.42,3.57H450.43a4.37,4.37,0,0,1-3.19-1.12,4.16,4.16,0,0,1-1.15-3.15V593.41a4.19,4.19,0,0,1,1.15-3.15,4.41,4.41,0,0,1,3.19-1.12h17.36q7.69,0,12.07,3.4a12.34,12.34,0,0,1,2.31,16.27,11.71,11.71,0,0,1-5.7,4.2A12,12,0,0,1,483.08,617.35Zm-28.17-7.42h11.41q9.3,0,9.31-6.93a6,6,0,0,0-2.31-5.18c-1.54-1.12-3.88-1.68-7-1.68H454.91Zm19.74,19.81q2.24-1.74,2.24-5.46a6.66,6.66,0,0,0-2.28-5.53q-2.26-1.82-7.1-1.82h-12.6v14.56h12.6Q472.4,631.49,474.65,629.74Z" fill="#333"/><path d="M523.37,604.68a4,4,0,0,1,1.19,3v27.16a3.77,3.77,0,0,1-1.23,2.94,4.51,4.51,0,0,1-3.18,1.12,4.21,4.21,0,0,1-3-1A3.72,3.72,0,0,1,516,635v-1.75a11.16,11.16,0,0,1-4.34,4.31,12.6,12.6,0,0,1-6.16,1.5q-12.6,0-12.6-14.14V607.69a3.92,3.92,0,0,1,1.19-3,4.43,4.43,0,0,1,3.15-1.12,4.55,4.55,0,0,1,3.22,1.12,4,4,0,0,1,1.19,3V625q0,3.64,1.47,5.39a5.69,5.69,0,0,0,4.62,1.75,7.53,7.53,0,0,0,5.84-2.41,9.15,9.15,0,0,0,2.21-6.41V607.69a3.92,3.92,0,0,1,1.19-3,4.43,4.43,0,0,1,3.15-1.12A4.55,4.55,0,0,1,523.37,604.68Z" fill="#333"/><path d="M559,604.23a3.79,3.79,0,0,1,2.07-.6,4.42,4.42,0,0,1,2.9,1.09,3.38,3.38,0,0,1,1.3,2.69,3.58,3.58,0,0,1-.42,1.61l-19.11,40a3.91,3.91,0,0,1-3.71,2.38,4.3,4.3,0,0,1-2.84-1,3.18,3.18,0,0,1-1.22-2.56,4.56,4.56,0,0,1,.42-1.75l4.76-10-13-27.09a3.56,3.56,0,0,1,1-4.34,4.82,4.82,0,0,1,3.12-1.12,4.1,4.1,0,0,1,2.17.6A4,4,0,0,1,538,606l9.8,21.63,9.73-21.56A4,4,0,0,1,559,604.23Z" fill="#333"/><path d="M629.84,588.72a5,5,0,0,1,3.15,1.12,3.46,3.46,0,0,1,1.4,2.8,4.48,4.48,0,0,1-.42,1.75l-19.39,41.72a4.6,4.6,0,0,1-1.93,2.07,5.6,5.6,0,0,1-5.53,0,4.58,4.58,0,0,1-1.92-2.07l-19.32-41.72a4.38,4.38,0,0,1-.42-1.68,3.48,3.48,0,0,1,1.43-2.87,5.2,5.2,0,0,1,3.26-1.12,4.26,4.26,0,0,1,2.2.6,4,4,0,0,1,1.58,1.78L610,626.87l16.1-35.77A3.82,3.82,0,0,1,629.84,588.72Z" fill="#333"/><path d="M643.21,596a4.39,4.39,0,0,1-1.4-3.4,4.28,4.28,0,0,1,1.4-3.36,6.24,6.24,0,0,1,7.52,0,4.24,4.24,0,0,1,1.44,3.36,4.43,4.43,0,0,1-1.4,3.4,6.18,6.18,0,0,1-7.56,0Zm.66,41.79a3.92,3.92,0,0,1-1.22-3.12v-27a3.82,3.82,0,0,1,1.22-3.08,4.64,4.64,0,0,1,3.12-1.05,4.75,4.75,0,0,1,3.15,1.05,3.79,3.79,0,0,1,1.26,3.08v27a3.88,3.88,0,0,1-1.26,3.12,4.67,4.67,0,0,1-3.15,1.08A4.56,4.56,0,0,1,643.87,637.83Z" fill="#333"/><path d="M689.44,630a3.81,3.81,0,0,1,.74,2.45c0,1.45-.87,2.66-2.59,3.64a23.59,23.59,0,0,1-5.39,2.14,22.08,22.08,0,0,1-5.74.8q-8.26,0-13.09-4.76t-4.83-13a20,20,0,0,1,2.1-9.31,15.36,15.36,0,0,1,5.91-6.3,16.79,16.79,0,0,1,8.65-2.24,15.55,15.55,0,0,1,8,2,13.87,13.87,0,0,1,5.32,5.74,19.07,19.07,0,0,1,1.89,8.75c0,2-.89,3-2.66,3H667.15q.42,4.83,2.73,7.11c1.54,1.52,3.78,2.27,6.72,2.27a12.51,12.51,0,0,0,3.95-.56,37.36,37.36,0,0,0,3.89-1.54,7.8,7.8,0,0,1,3.08-1.12A2.37,2.37,0,0,1,689.44,630Zm-19.74-18.2a10.61,10.61,0,0,0-2.55,6.44H683q-.15-4.26-2.1-6.47a6.94,6.94,0,0,0-5.46-2.21A7.53,7.53,0,0,0,669.7,611.82Z" fill="#333"/><path d="M744.74,604.26a3.65,3.65,0,0,1,2.06-.63,4.42,4.42,0,0,1,2.91,1.09,3.37,3.37,0,0,1,1.29,2.69,3.44,3.44,0,0,1-.35,1.61L739.1,636.11a4.14,4.14,0,0,1-1.71,2,4.81,4.81,0,0,1-2.56.7,4.68,4.68,0,0,1-2.48-.7,4.21,4.21,0,0,1-1.72-2l-8.33-20-8,20a4.14,4.14,0,0,1-1.71,2,4.81,4.81,0,0,1-2.56.7,4.9,4.9,0,0,1-2.52-.7,4.16,4.16,0,0,1-1.75-2L694.23,609a4.49,4.49,0,0,1-.35-1.54,3.48,3.48,0,0,1,1.4-2.76,4.75,4.75,0,0,1,3.08-1.16,3.91,3.91,0,0,1,2.17.63,3.73,3.73,0,0,1,1.47,1.89l8.26,21.35,8.47-21.14a4.25,4.25,0,0,1,6.23-2,4.19,4.19,0,0,1,1.61,2l8.54,21.21,8.19-21.35A3.9,3.9,0,0,1,744.74,604.26Z" fill="#333"/><path d="M756.53,636a4.17,4.17,0,0,1-2.24-3.78,3.28,3.28,0,0,1,.78-2.27,2.42,2.42,0,0,1,1.88-.88,7.8,7.8,0,0,1,3.29,1.12,30.41,30.41,0,0,0,4.1,1.61,16.46,16.46,0,0,0,4.73.56,8.91,8.91,0,0,0,4.58-1,3,3,0,0,0,1.64-2.73,2.65,2.65,0,0,0-.66-1.89,6.23,6.23,0,0,0-2.38-1.29,50.11,50.11,0,0,0-5.22-1.37q-6.22-1.26-8.92-3.57a7.93,7.93,0,0,1-2.7-6.37,9.16,9.16,0,0,1,1.83-5.56,11.75,11.75,0,0,1,5-3.85,18.24,18.24,0,0,1,7.25-1.37,21.7,21.7,0,0,1,5.66.74,17.24,17.24,0,0,1,4.9,2.13,4.22,4.22,0,0,1,2.24,3.71,3.6,3.6,0,0,1-.76,2.35,2.37,2.37,0,0,1-1.9.94,3.77,3.77,0,0,1-1.5-.31,19.61,19.61,0,0,1-1.85-1,30.45,30.45,0,0,0-3.5-1.57,11,11,0,0,0-3.65-.53A7,7,0,0,0,765,611a3.33,3.33,0,0,0-1.51,2.87,2.91,2.91,0,0,0,1.54,2.66,21.71,21.71,0,0,0,6,1.82,34.27,34.27,0,0,1,7.34,2.24,8.59,8.59,0,0,1,3.82,3.15,9.14,9.14,0,0,1,1.15,4.83,9,9,0,0,1-4,7.63q-4,2.88-10.53,2.87Q761.22,639.05,756.53,636Z" fill="#333"/></g></svg>