<svg id="Layer_1" data-name="Layer 1" xmlns="http://www.w3.org/2000/svg" viewBox="0 0 1400 350"><defs><style>.cls-1{font-size:170px;font-family:Nunito-Black, Nunito;font-weight:800;}.cls-1,.cls-3{fill:#cd1e59;}.cls-2{letter-spacing:0.02em;}</style></defs><text class="cls-1" transform="translate(446.21 161.07)">CHAMP<tspan x="0" y="140">MARK</tspan><tspan class="cls-2" x="511.35" y="140">E</tspan><tspan x="615.56" y="140">TER</tspan></text><path class="cls-3" d="M407.66,42.74c-.18-9.31-2-19.7-17.32-24.56C269.91-21.52,158.68,80.4,38.25,40.69c-9.38-3.62-16.87-.15-16.69,9.17,1.58,86,3,172,4.75,258.05.28,13.8,7.94,20.93,17.32,24.55,120.42,39.71,231.66-62.21,352.09-22.5,9.38,3.62,16.86.14,16.69-9.17Q410,171.76,407.66,42.74ZM310.54,151.91l-38.4,41,17.76,53.35a10.3,10.3,0,0,1-14.15,12.57L225,234.87l-45.11,33.38a10.29,10.29,0,0,1-16.32-9.57l7-55.79-45.65-32.72A10.3,10.3,0,0,1,129,151.69l55.1-10.51L201,87.58a10.28,10.28,0,0,1,18.83-1.85l27,49.27,56.09-.42a10.29,10.29,0,0,1,7.58,17.33Z"/></svg>