<?xml version="1.0" encoding="utf-8"?>
<!-- Generator: Adobe Illustrator 24.2.2, SVG Export Plug-In . SVG Version: 6.00 Build 0)  -->
<svg version="1.1" id="Layer_1" xmlns="http://www.w3.org/2000/svg" xmlns:xlink="http://www.w3.org/1999/xlink" x="0px" y="0px"
	 viewBox="0 0 2000 2000" style="enable-background:new 0 0 2000 2000;" xml:space="preserve">
<style type="text/css">
	.st0{fill:#E1306C;}
	.st1{fill:#E26D9A;}
	.st2{fill:#FFFFFF;}
	.st3{fill:#1A1A1A;}
</style>
<path class="st0" d="M1526.5,1040.4c122.6,474.8,42,759.1-381,747.1c-385.9-10.9-534.1,36-653.1-129.7
	c-80.8-112.5-136.4-289.7-144.1-478c-8.6-211.5,43.3-436.9,188.1-600.1C910,158.5,1377.9,464.6,1526.5,1040.4z"/>
<path class="st1" d="M755.4,1577c0,0-1.7,33.3-12.3,47.3l49.3,30.7l50.7-17.3l5.3-54.7l-46.7-8L755.4,1577z"/>
<path class="st2" d="M1457.9,581.1l33.5,148.5c0,0,3,11,10.5,10.5s9.5-5.5,9.5-5.5l38-155L1457.9,581.1z"/>
<path class="st2" d="M1135.9,571.1c0,0,44.5,32.5,60.5,54.5s70,112.5,70,112.5s-6.5,43-28.5,78.5s-56,70-56,70l-62.5-49.5l4.5,84
	l10.5,112.5c0,0-63.5,12-67,12.5s-46.5,2.5-46.5,2.5l-47-5.5c0,0-39.8-9.5-68-24.5c-28.2-15-90-44.5-113-51.5s-60.5-14-60.5-14
	l47.5-141l-21.5,23c0,0-41.5-36-62.5-64.5s-44.5-64-44.5-64l57.5-68.5l64-56.5l53.5-35l52-21.5l42-12c0,0-1.5,48.5,38.5,81.5
	s100.5,25,100.5,25S1110.4,611.1,1135.9,571.1z"/>
<path class="st1" d="M924.4,538.2l-3.5-24c-0.1-0.8-0.6-1.6-1.3-2c-0.7-0.5-1.5-0.6-2.4-0.5c-0.4,0.1-41.4,9.4-89.2,33.2
	c-47.9,23.9-133.2,108-136.8,111.5c-0.1,0.1-0.1,0.1-0.2,0.2l-42.5,49.8c-0.8,1-1,2.4-0.3,3.5l11.5,19.2c0.5,0.9,1.4,1.4,2.4,1.5
	c0.1,0,0.1,0,0.2,0c0.9,0,1.8-0.4,2.4-1.2c0.6-0.8,62.4-83.1,124.3-126.3c61.8-43.2,132.3-61.4,133-61.6
	C923.7,541.2,924.6,539.7,924.4,538.2z"/>
<path class="st1" d="M1128.9,964.4l-5.5-63.9v-30.4c0-1.2-0.7-2.2-1.7-2.7c-1.1-0.5-2.3-0.3-3.2,0.4l-44,37c-0.6,0.5-1,1.3-1.1,2.1
	c-0.1,0.8,0.2,1.6,0.7,2.2l49.5,57.5c0.6,0.7,1.4,1,2.3,1c0.4,0,0.8-0.1,1.2-0.2C1128.3,966.9,1129,965.7,1128.9,964.4z"/>
<path class="st3" d="M955.8,837.7c-14.7,0-26.6,11.9-26.6,26.6s11.9,26.6,26.6,26.6s26.6-11.9,26.6-26.6S970.4,837.7,955.8,837.7z"
	/>
<path class="st1" d="M804.4,740.9c-14.7,0-26.6-11.9-26.6-26.6s11.9-26.6,26.6-26.6c14.7,0,26.6,11.9,26.6,26.6
	S819.1,740.9,804.4,740.9z M804.4,693.7c-11.4,0-20.6,9.2-20.6,20.6c0,11.4,9.2,20.6,20.6,20.6c11.4,0,20.6-9.2,20.6-20.6
	C825,702.9,815.8,693.7,804.4,693.7z"/>
<path class="st3" d="M896.4,618.9c-16.1,0-29.3-13.1-29.3-29.3c0-16.1,13.1-29.3,29.3-29.3c16.1,0,29.3,13.1,29.3,29.3
	C925.7,605.8,912.6,618.9,896.4,618.9z M896.4,566.4c-12.8,0-23.3,10.4-23.3,23.3c0,12.9,10.4,23.3,23.3,23.3
	c12.9,0,23.3-10.4,23.3-23.3C919.7,576.8,909.3,566.4,896.4,566.4z"/>
<path class="st1" d="M1171.8,741.6c-11.4,0-20.7,9.3-20.7,20.7c0,11.4,9.3,20.7,20.7,20.7c11.4,0,20.7-9.3,20.7-20.7
	C1192.5,750.9,1183.2,741.6,1171.8,741.6z"/>
<path class="st1" d="M823.8,955c-10.7,0-21,3.9-29,10.9c-1.2,1.1-1.4,3-0.3,4.2c1.1,1.2,3,1.4,4.2,0.3c0.4-0.3,0.7-0.6,1.1-0.9
	l61.7,26.6c0,0.5,0.1,1,0.1,1.4c0.1,1.6,1.4,2.9,3,2.9h0.1c1.7-0.1,3-1.4,2.9-3.1C866.8,973.7,847.6,955,823.8,955z"/>
<path class="st3" d="M1002.8,976.7c-0.9,0-1.9-0.4-2.5-1.3l-35-50.4c-0.5-0.7-0.7-1.6-0.5-2.4c0.2-0.8,0.7-1.5,1.5-1.9L1017,893
	c1.3-0.7,2.9-0.4,3.8,0.8l34.7,43c0.5,0.6,0.8,1.5,0.6,2.3c-0.1,0.8-0.6,1.6-1.3,2l-50.4,35C1003.9,976.5,1003.3,976.7,1002.8,976.7
	z M972.1,924.3l31.4,45.2l45.3-31.4l-31.1-38.6L972.1,924.3z"/>
<path class="st3" d="M814,922.7l-20.1-29c-0.5-0.7-1.1-1.1-1.9-1.2s-1.6,0-2.2,0.5l-34.2,23.7c-1.4,0.9-1.7,2.8-0.8,4.2l20.1,29
	c0.5,0.7,1.1,1.1,1.9,1.2c0.2,0,0.4,0,0.5,0c0.6,0,1.2-0.2,1.7-0.5l34.2-23.7C814.6,925.9,814.9,924,814,922.7z"/>
<path class="st1" d="M928.1,825.8c-1.2,0-2.4-0.8-2.8-2l-14.9-43.5c-0.3-0.8-0.2-1.7,0.2-2.5c0.4-0.7,1.2-1.3,2-1.4l44.5-9
	c1.5-0.3,2.9,0.5,3.4,1.9l13.9,37.7c0.3,0.8,0.2,1.6-0.1,2.3s-1,1.3-1.7,1.5l-43.5,14.9C928.8,825.8,928.4,825.8,928.1,825.8z
	 M917.2,781.6L930,819l37.8-12.9l-11.9-32.4L917.2,781.6z"/>
<path class="st1" d="M962.4,704.6c-0.9,0-1.8-0.4-2.4-1.2l-25.2-34.3c-0.5-0.7-0.7-1.5-0.5-2.3s0.6-1.5,1.3-2l53.6-34.5
	c0.7-0.4,1.5-0.6,2.3-0.4c0.8,0.2,1.5,0.7,1.9,1.4l26.3,44.2c0.4,0.7,0.5,1.6,0.3,2.4c-0.2,0.8-0.8,1.5-1.6,1.8l-54.7,24.7
	C963.3,704.6,962.9,704.6,962.4,704.6z M941.5,668.1l21.9,29.8l49.4-22.3l-23-38.6L941.5,668.1z"/>
<path class="st1" d="M836,606.9l-35.4-30.8c-1.1-0.9-2.7-1-3.8-0.1l-49.9,39.5c-1.3,1-1.5,2.9-0.5,4.2l32.2,40.9
	c0.5,0.7,1.3,1.1,2.1,1.1c0.1,0,0.2,0,0.2,0c0.8,0,1.5-0.3,2-0.8l53.1-49.6c0.6-0.6,1-1.4,1-2.2C837.1,608.3,836.7,607.5,836,606.9z
	"/>
<path class="st1" d="M917.7,733.2c-0.4,0-0.7-0.1-1.1-0.2L872,716.1c-1.1-0.4-1.8-1.4-1.9-2.5c-0.1-1.1,0.4-2.2,1.3-2.8l41.6-27.3
	c0.9-0.6,2-0.7,3-0.2s1.6,1.4,1.7,2.5l3,44.2c0.1,1-0.4,2-1.2,2.6C918.9,733,918.3,733.2,917.7,733.2z M879.7,712.6l34.7,13.1
	l-2.3-34.4L879.7,712.6z"/>
<path class="st3" d="M870.3,668.4l-9-35c-0.3-1-1-1.8-2-2.1s-2.1-0.1-2.8,0.6l-34,28.5c-0.9,0.8-1.3,2-1,3.1s1.3,2,2.4,2.2l43,6.5
	c0.1,0,0.3,0,0.4,0c0.8,0,1.7-0.4,2.2-1C870.3,670.4,870.6,669.4,870.3,668.4z"/>
<path class="st3" d="M721.4,701.6c-1,0-1.9-0.5-2.5-1.3c-0.6-0.8-0.7-1.9-0.3-2.8l14-35c0.4-1.1,1.5-1.8,2.7-1.9
	c1.2-0.1,2.3,0.6,2.8,1.6l17.5,34.5c0.5,0.9,0.4,2-0.1,2.9c-0.5,0.9-1.5,1.4-2.5,1.5L721.4,701.6
	C721.5,701.6,721.5,701.6,721.4,701.6z M735.8,670.9l-9.9,24.7l22.2-0.4L735.8,670.9z"/>
<path class="st1" d="M726.4,808.9c-1.1,0-2.2-0.6-2.7-1.7c-0.7-1.5-0.1-3.3,1.4-4l33.9-15.9l-25.6-61.9l-37.9,42.9
	c-1.1,1.2-3,1.4-4.2,0.3c-1.2-1.1-1.4-3-0.3-4.2l41.1-46.5c0.7-0.8,1.7-1.1,2.7-1c1,0.2,1.9,0.9,2.3,1.8l28.5,69
	c0.6,1.5,0,3.2-1.5,3.9l-36.5,17.1C727.3,808.8,726.9,808.9,726.4,808.9z"/>
<path class="st1" d="M1068.4,864.1c-0.4,0-0.9-0.1-1.3-0.3l-46.5-21.5c-1-0.4-1.6-1.4-1.7-2.4c-0.1-1.1,0.4-2.1,1.2-2.7l40-29
	c0.9-0.6,2-0.7,3-0.3c1,0.4,1.7,1.3,1.8,2.4l6.5,50.5c0.1,1.1-0.3,2.2-1.2,2.8C1069.7,863.9,1069.1,864.1,1068.4,864.1z
	 M1027.8,839.1l36.9,17.1l-5.2-40.1L1027.8,839.1z"/>
<path class="st3" d="M1120.5,664.9c-0.1-1.1-0.8-2-1.8-2.4s-2.1-0.3-3,0.3l-33.1,24c-0.9,0.6-1.3,1.7-1.2,2.7c0.1,1.1,0.8,2,1.7,2.4
	l38.5,17.8c0.4,0.2,0.8,0.3,1.3,0.3c0.6,0,1.3-0.2,1.8-0.6c0.9-0.6,1.3-1.7,1.2-2.8L1120.5,664.9z"/>
<path class="st1" d="M947.7,952.8l-27.9-38.1c-0.6-0.8-1.5-1.2-2.4-1.2c-1,0-1.9,0.5-2.4,1.3l-25.2,35.4c-0.6,0.9-0.7,2.1-0.3,3
	c0.5,1,1.5,1.6,2.6,1.7l53.1,2.6h0.1c1.1,0,2.1-0.6,2.6-1.6C948.5,955,948.4,953.7,947.7,952.8z"/>
<path class="st1" d="M1026.4,1049.1c-0.6,0-1.2-0.2-1.7-0.5l-72.9-51.1l-29.9,29.6c-1.2,1.2-3.1,1.2-4.2,0c-1.2-1.2-1.2-3.1,0-4.2
	l31.7-31.3c1-1,2.6-1.2,3.8-0.3l75,52.5c1.4,1,1.7,2.8,0.7,4.2C1028.3,1048.7,1027.4,1049.1,1026.4,1049.1z"/>
<path class="st1" d="M1175.4,709.6c-1,0-1.9-0.5-2.5-1.4l-28.5-44c-0.8-1.3-0.6-3,0.6-4l47.2-38.2c1.3-1,3.2-0.8,4.2,0.4
	c1,1.3,0.8,3.2-0.4,4.2l-45.1,36.6l25.5,39.4L1229,673c1.4-0.8,3.3-0.3,4.1,1.1c0.8,1.4,0.3,3.3-1.1,4.1l-55,31
	C1176.4,709.5,1175.9,709.6,1175.4,709.6z"/>
<path class="st1" d="M1151.9,864.6c-0.4,0-0.9-0.1-1.3-0.3c-1.5-0.7-2.2-2.5-1.5-4l19.5-42c0.5-1,1.5-1.7,2.6-1.7l64-2
	c1.6,0,3,1.2,3.1,2.9c0.1,1.7-1.2,3-2.9,3.1l-62.2,1.9l-18.7,40.3C1154.1,864,1153.1,864.6,1151.9,864.6z"/>
<path class="st1" d="M1107.4,1042.6l24,237l22,208c0,0,9,34,8.3,45c-0.7,11-0.3,27.7-5.3,32.7s-43.3,21.3-43.3,21.3l-38.3,5.3
	l-33,1.3c0,0-35-4-43-17.7s-14.3-87-14.3-87l-13.7-115.3l-18-156.7L936.1,1076l-7-0.3l-6,62.7l-13.3,120l-17.3,171.3l-8,68
	c0,0,2,29.7-1.3,46.7s-13.7,33.3-13.7,33.3l-21,5.3l-54.3,2.3l-38.7-8.3c0,0-38-10.7-40-32.3c-2-21.6,3-70,3-70l7.7-100l11.3-138.7
	l9.7-118.3l8.3-120.7l4.3-39.7l37.7,12.3l80.3,34c0,0,58.7,32.7,86.7,37.7s107,6.3,107,6.3L1107.4,1042.6z"/>
<path class="st2" d="M1043.1,1511.4c-0.2,0-21.9-5.1-25.4-18.2c-1.6-6,2.4-11.9,6.6-18.2c4.9-7.3,10.5-15.5,7.7-25.2
	c-2.6-9.2-10.8-18.7-20.3-29.7c-8.3-9.6-17.6-20.5-24.6-32.9c-8.4-14.8-13.5-36.9-16.2-51.2l-2.3-14.1c-0.3-1.6-1.8-2.7-3.4-2.5
	c-1.6,0.2-2.8,1.7-2.6,3.3c0.1,0.6,0.8,6.8,2.5,15.4l6,37.2l13,129.9c0.1,1.2,0.9,2.2,2.1,2.6l18.3,5.7c0.2,0.1,0.4,0.1,0.6,0.1
	l37,3.7c0.1,0,0.2,0,0.3,0c1.5,0,2.7-1.1,3-2.5C1045.6,1513.2,1044.6,1511.7,1043.1,1511.4z"/>
<path class="st2" d="M821.8,1105.6c-6.8-9.4-14.5-20.1-20.8-31.2l-0.3-0.6c-11.3-20-16.1-42.8-13.9-65.9c1.8-19,4.1-41.9,4.1-41.9
	c0-0.4,0-0.8-0.1-1.2c-0.5-1.4-1.2-2.4-10.5-5.2c-8.5-2.6-18.6-3-19.1-3c-1.6-0.1-3,1.2-3.1,2.8l-4.2,57l-11.5,143.7L718,1479.6
	c0,0.6,0.1,1.2,0.4,1.7c0.6,1.1,7.1,10.9,38.7,17.7c12,2.6,47.5,7.3,49,7.5c0.1,0,0.3,0,0.4,0c1.5,0,2.7-1.1,3-2.5
	c0.3-1.6-0.8-3.1-2.4-3.4c-15.6-2.9-25.2-20.2-29.1-35.3c-3.6-14-2-24.2,0.4-26.2c4.3-3.5,7.5-1.5,14.7,4.7c2.8,2.4,5.6,4.9,8.9,6.8
	c5.3,3.1,11,2.9,15.3-0.6c4.7-3.8,6.5-10.5,4.6-16.4c-1.3-3.8-5.1-8.9-10.9-16.6c-8.9-11.7-22.3-29.5-33.2-52.7
	c-3.1-6.6-5.8-14.2-8.1-22.6c-5.5-20-7.5-41.3-5.9-63.2c2.1-29.6,4.1-57.6,5.9-83c0.9-11.8,4.3-23.1,9.9-32.7
	c5.9-10,13.4-17.3,20.5-20c5.5-2.1,11.6-0.5,17.5,1.1c7,1.8,14.1,3.8,19.5-1.2C844,1136.3,835.2,1124.1,821.8,1105.6z"/>
<path class="st1" d="M1135.9,571.1l-58.2-38.8c0,0-3.6-4.9-1.8-9.2c1.8-4.3,8-18.2,8-18.2l26.8-7l28.8-6.5c0,0,21.8-15.2,41.5-49.5
	s17.2-53.2,17.2-53.2s-30.5,7-56.5-8.5s-53.2-31.5-61-22.5c-7.8,9-20,37.2-26.5,32.2s-7.2-12.2-7.5-19.8c-0.3-7.6-14-17.5-25.7-11.2
	c-11.8,6.2-21.5,27.5-13.2,42.2c8.3,14.7,17,14.5,17,14.5l-33,77l-9.5,4.5l-64.2,17.5c0,0,10,74.2,70.8,97.2
	c60.7,23,100.7-1.5,100.7-1.5s24.8-12,36.2-23.8C1137.2,574.7,1135.9,571.1,1135.9,571.1z"/>
<path class="st1" d="M651.4,706.6c0,0-31.3,42.7-54.3,55.3c-11,6-39.7-7.9-50.2-14.8c-42.5-28-104.6-83.9-104.6-83.9l-8.3-34.4
	c0,0-5.1-12.4-8.1-10.8s-3.6,18.1-3.6,20c0,1.8,0.8,18.3-0.8,18c-1.7-0.3-36.7-22.1-36.7-22.1s-12.3-6.2-13.9-2.9
	c-1.6,3.4,13.9,21.1,13.9,21.1s-26.8-17.8-29.5-13.8c-2.7,4,9.3,17,9.3,17l21.6,22.2c0,0-28.4-17.3-29.6-14.3c-1.2,3,6,12,6.7,12.9
	c0.8,0.8,27.9,23.4,27.9,23.4s-31.6-9.6-30.9-3.8c0.7,5.8,11.5,9.6,11.5,9.6l40.7,17.3c0,0,34.7,36.7,46.5,48.7
	c127.8,130.3,172.5,108.3,172.5,108.3l44.8-22l52-49.3l-47.3-56L651.4,706.6z"/>
<path class="st1" d="M1203.4,863.6c0,0,27.5,33,62.5,35.5s67-26,67-26l95.5-123l45.5-62.5l6-1l-5-33c0,0,0.2-6.3,5.5-10.7
	c5.3-4.3,22.7-19,21-23.3c-1.7-4.3-23-1.7-34.3,7.3c-11.3,9-66.7,58.7-66.7,58.7l-56,55c0,0-37.2,34.9-54.3,29
	c-13.7-4.7-24.3-28.7-24.3-28.7s-4.7,40.3-24.7,70.3S1203.4,863.6,1203.4,863.6z"/>
<path class="st1" d="M1540.4,611c0,0-30.5,10.3-27.7,16.5c2.8,6.2,19.3,0.8,20.5,0.5c1.2-0.3,17-7,17.3-14.2s-6.7-10-6.7-10
	L1540.4,611z"/>
<path class="st1" d="M1544.1,625.1c0,0,3.7,7.5,0.8,11.5c-2.8,4-13,6-13,6s-20,6.3-21.7,2.8c-1.7-3.5,6.8-11,11.2-13
	C1525.8,630.5,1544.1,625.1,1544.1,625.1z"/>
<path class="st1" d="M1542.8,647.3c0,0,0.8,7.3-3.3,11.2c-4.2,3.8-23.2,12.8-24.5,10.3s4.5-10.2,5.7-11c1.2-0.8,11.5-11.7,11.8-12.2
	s6.7-2.3,6.7-2.3L1542.8,647.3z"/>
<path class="st1" d="M1538.8,671.6c0,0-0.8,7.3-5.2,11.5c-4.3,4.2-19,10.3-20.3,6.3c-1.3-4,12.8-14.2,12.8-14.2l2.5-6.2
	C1528.6,669.1,1536.3,669.3,1538.8,671.6z"/>
<path class="st1" d="M1026.4,1591.6l5.5,51.5l34.5,10.5l41-7l21-23.5l-11.5-38.5l-42.1,7.4L1026.4,1591.6z"/>
<path class="st3" d="M1186.1,1662l-28.2-15.1c-18.3-9.8-31.2-27.9-34.5-48.4v-0.1l-2.9-14c-0.3-1.6-1.9-2.7-3.5-2.3
	c-1.6,0.3-2.7,1.9-2.3,3.5l2.9,14c1.3,7.8,3.9,15.3,7.5,22.2c-3.5,0.4-10.1,1.2-13.1,1.8c-13.1,2.9-22,7.5-29.6,15.5
	c-4.6,4.9-10.7,7-18.1,6.2c-17.9-1.9-28.4-11.4-30.9-13.9l-1.7-16.7c-0.1-5.8,3.2-10.5,9.8-14.1c5.9-3.2,12.2-4.3,12.3-4.3
	c1.6-0.3,2.6-1.7,2.5-3.2c-0.1-1.6-1.5-2.8-3-2.7l-24.1,0.5c-0.5-1.3-1.7-2.1-3.1-2c-1.6,0.2-2.8,1.6-2.7,3.3l2.3,22.4
	c0,0.2,0,0.4,0,0.6c0,0.6,0.1,1.2,0.2,1.9c0,0.2,0.1,0.3,0.1,0.5l8.2,79.6c0.7,7.3,6.9,12.9,14.3,12.9h141.4
	c8.2,0,14.9-6.7,14.9-14.9v-2.6C1204.4,1679.8,1197.4,1668.1,1186.1,1662z"/>
<path class="st2" d="M924.4,540.3c0,0,61.3-13.3,77.3-34c16-20.7,26.7-52,30-60.7c3.3-8.7,1.9-27.8-6.3-32.5l-17.7,45.2l-18,35.3
	l-27.3,8l-43.5,12.5L924.4,540.3z"/>
<path class="st0" d="M588.4,436.4C501.3,513.2,456,609.9,388.6,564.3c-94.3-63.7-4.4-220.8,81.1-295.8c90-79,279.3-114.3,307.7-4.2
	C794.3,329.9,678.5,356.9,588.4,436.4z"/>
<path class="st0" d="M349.5,798c-13.9,47.2-18.4,120.6-67.6,119.2c-49.2-1.4-77.5-53.7-76.1-102.9c1.4-49.2,32.7-102.8,81.9-101.4
	C337,714.3,363.4,750.8,349.5,798z"/>
<path class="st2" d="M806.7,1500.6c-0.2,0-1.4-0.1-3.4-0.2c-6.3-0.4-21-1.5-37.3-4.5c-21.3-3.9-45.9-17.1-46.1-17.3
	c-0.9-0.5-1.9-0.5-2.8,0c-0.9,0.4-1.5,1.3-1.6,2.3c-0.2,1.8-5.7,43.9-2.8,64.4c3.1,22,24.1,28.2,24.9,28.5l32.2,9.5
	c0.3,0.1,0.6,0.1,0.9,0.1c1.2,0,2.3-0.7,2.8-1.9c0.6-1.5-0.1-3.1-1.5-3.8c-0.3-0.1-26.6-12.8-32-31.2c-2-6.8-0.9-13.4,3.3-20.1
	c12.5-20,49.7-20.3,60.2-19.9c1.8,0.1,2.9,0.1,2.9,0.1c1.6,0,3-1.2,3.1-2.8C809.5,1502.2,808.3,1500.8,806.7,1500.6z"/>
<path class="st2" d="M1043.5,1590.8c-0.2-0.2-22.3-15.5-25.4-40.2c-1.5-11.5,0.5-20.2,5.7-25.9c7.1-7.8,18.4-7.4,18.6-7.4
	c1.6,0.1,3-1.2,3.1-2.8s-1.1-3.1-2.8-3.2l-52.7-4c-0.9-0.1-1.7,0.3-2.4,0.9c-0.7,0.6-0.9,1.5-0.9,2.4c0.2,2.2,4.2,53.8,9.6,65.1
	c3.1,6.6,11.8,12.1,25.7,16.3c9.9,3,18.9,4.3,19.3,4.4c0.1,0,0.3,0,0.4,0c1.2,0,2.3-0.7,2.8-1.9
	C1045.1,1593.1,1044.6,1591.6,1043.5,1590.8z"/>
<path class="st2" d="M441.9,662c0,0-7.7,18.8,10.5,34.6c28.3,24.7,81.3,62.4,99,73c27.3,16.3,30,40.3,47,36c16.4-4.2,8-20,21.7-41
	c27.8-42.7,42.3-37,42.3-37l-11.5-19.2L604.8,756c0,0-8,9-21,6.3s-36.1-16.9-47.7-23.3C494.8,716,441.9,662,441.9,662z"/>
<path class="st3" d="M1526.4,677.6c-0.2,0-0.4,0-0.6-0.1c-1.6-0.3-2.7-1.9-2.3-3.6l2-9.3c0.3-1.6,1.9-2.7,3.6-2.3
	c1.6,0.3,2.7,1.9,2.3,3.6l-2,9.3C1529.1,676.7,1527.8,677.6,1526.4,677.6z"/>
<path class="st3" d="M1552.4,576.5C1552.4,576.4,1552.4,576.4,1552.4,576.5c0-0.2,0-0.2,0-0.3c0-0.1,0-0.2,0-0.2
	c-0.9-10.4-31.2-13.3-49.2-13.3s-48.2,2.8-49.2,13.2c0,0,0,0,0,0.1c0,0.2,0,0.3,0,0.5c0,0.1,0,0.1,0,0.2c0,0.6,0.1,1.2,0.4,1.8
	l11,49.2c0.3,1.4,1.6,2.3,2.9,2.3c0.2,0,0.4,0,0.7-0.1c1.6-0.4,2.6-2,2.3-3.6l-9.4-41.8c10.4,4.3,28.8,5.7,41.4,5.7
	c12.4,0,30.6-1.3,41.1-5.6l-6.5,25.6c-0.4,1.6,0.6,3.2,2.2,3.6c0.2,0.1,0.5,0.1,0.7,0.1c1.3,0,2.6-0.9,2.9-2.3l8.4-33.1
	c0.2-0.6,0.4-1.2,0.4-1.8C1552.4,576.6,1552.4,576.5,1552.4,576.5z"/>
<path class="st3" d="M1523.3,686.7c-1.6-0.4-3.2,0.6-3.6,2.2l-10.2,43c-1,4.3-4.6,5.8-7.3,5.8c-2.8,0-6.4-1.6-7.3-5.9L1477,652
	c-0.4-1.6-2-2.6-3.6-2.3c-1.6,0.4-2.6,2-2.3,3.6l17.9,79.8c1.4,6.3,6.7,10.5,13.1,10.6h0.1c6.4,0,11.7-4.2,13.2-10.4l10.2-43
	C1525.9,688.7,1524.9,687.1,1523.3,686.7z"/>
<path class="st3" d="M1517,633.8c-4.8,0-7.4-1.2-8.2-3.7c-0.6-1.8-0.4-3.7,0.6-5.6c2.1-3.9,7.7-7.8,17.3-11.8
	c6.7-2.8,12.8-4.7,13.1-4.8c1.6-0.5,3.3,0.4,3.7,2c0.5,1.6-0.4,3.3-2,3.7c-17,5.1-25.5,11.1-26.9,13.6c-0.1,0.1-0.1,0.2-0.1,0.3
	c3.3,0.7,14.2-0.5,23.3-5c5.3-2.6,8.5-5.7,9-8.8c0.9-5.6-4.4-7.2-4.6-7.3c-1.6-0.5-2.5-2.1-2-3.7c0.5-1.6,2.1-2.5,3.7-2
	c3.7,1.1,10.2,5.4,8.8,14c-2.1,12.5-23.3,18.1-33.2,18.8C1518.7,633.8,1517.8,633.8,1517,633.8z"/>
<path class="st3" d="M1513.7,649.6c-1,0-1.8-0.1-2.6-0.2c-3.1-0.6-4.2-2.2-4.5-3.5c-1.9-7.1,7.9-13.7,16.9-17.2s18.3-7,18.4-7
	c0.7-0.3,1.5-0.3,2.2,0c0.4,0.2,4.2,1.8,5.4,5.9c0.9,3.1,0.1,6.4-2.5,10C1542.6,644,1523.1,649.6,1513.7,649.6z M1512.5,643.6
	c5.2,0.8,26.2-4.5,29.6-9.4c1-1.4,2-3.3,1.6-4.8c-0.2-0.7-0.7-1.2-1.1-1.6c-2.9,1.1-10.1,3.8-17,6.5
	C1517.3,637.6,1513.1,641.6,1512.5,643.6z"/>
<path class="st3" d="M1515.3,673c-1.3,0-2.8-0.3-3.9-1.3c-0.8-0.8-1.2-1.8-1.2-3c0-5.5,12.8-18.6,20.4-25.9c0.2-0.2,0.5-0.4,0.8-0.6
	l5.6-2.6c0.7-0.3,1.5-0.4,2.2-0.1c0.4,0.1,3.7,1.4,5.4,5.1c1.4,2.9,1.3,6.4-0.2,10.4c-2.7,7-19.2,16-26.5,17.6
	C1517.5,672.7,1516.5,673,1515.3,673z M1534.5,647.4c-7.1,6.8-14.7,15.2-17.3,19.3c6.1-1.5,20.2-9.7,21.8-13.9
	c1.6-4.3,0.4-6.3-0.7-7.2L1534.5,647.4z"/>
<path class="st3" d="M1515.8,693.4c-1.4,0-2.7-0.2-3.8-0.7c-1.5-0.7-2.5-2-2.7-3.5c-1-5.1,7.4-11.4,14.6-15.8c1.4-0.9,3.3-0.4,4.1,1
	c0.9,1.4,0.4,3.3-1,4.1c-4.9,3-9.7,6.8-11.3,8.9c2,0,6.1-0.9,10.7-3.3c7.6-3.9,9-7.1,9.3-9.1c0.2-1.1-0.1-1.5-0.3-1.6
	c-1-1.1-4.5-1.2-6.5-1c-1.6,0.2-3.2-0.9-3.4-2.5c-0.2-1.6,0.9-3.2,2.5-3.4c1.3-0.2,8.1-0.9,11.6,2.7c1.2,1.2,2.4,3.3,1.9,6.8
	c-0.9,5.2-4.8,9.5-12.5,13.4C1525.2,691.5,1520,693.4,1515.8,693.4z"/>
<path class="st3" d="M848.7,1581.7c-1.7-0.2-3.1,1-3.3,2.7l-4.8,47.2c-2.5,2.5-13,11.9-30.8,13.8c-7.4,0.8-13.5-1.3-18.1-6.2
	c-3-3.2-6.2-5.9-9.7-8c-5.4-3.4-11.7-5.7-19.8-7.5c-3.1-0.7-9.6-1.4-13.1-1.8c3.7-6.9,6.2-14.4,7.5-22.3l3.4-20.8
	c0.3-1.6-0.8-3.2-2.5-3.4c-1.6-0.3-3.2,0.8-3.4,2.5l-3.4,20.8c-3.4,20.5-16.3,38.5-34.5,48.4l-28.2,15.1
	c-11.3,6.1-18.4,17.8-18.4,30.7v2.6c0,8.2,6.7,14.9,14.9,14.9h141.4c7.4,0,13.5-5.5,14.3-12.9l11.5-112.3
	C851.6,1583.3,850.4,1581.8,848.7,1581.7z"/>
<path class="st3" d="M1048.8,473.6c0,0,0.4,5.6,5.3,12c11.3,14.7,27.3,26.1,22.4,34.7l12.5-24.7l-25.5-10L1048.8,473.6z"/>
<path class="st3" d="M1091.7,494.6c-0.3-0.8-0.9-1.4-1.7-1.7l-25-9.9l-14.3-11.7c-0.9-0.8-2.2-0.9-3.3-0.3s-1.7,1.7-1.6,2.9
	c0,0.3,0.5,6.6,6,13.6c3.4,4.4,7.2,8.5,10.8,12.3c6.9,7.4,13.3,14.4,11.6,18.6l-0.3,0.5c-0.7,1.5-0.2,3.2,1.3,4
	c0.5,0.2,0.9,0.4,1.4,0.4c1,0,2.1-0.5,2.6-1.5c0.2-0.3,0.3-0.6,0.5-1l12-23.8C1092,496.2,1092,495.4,1091.7,494.6z"/>
<path class="st1" d="M1071.2,702.9c-16.6-12.5-40.2-9.3-52.8,7.3c-6.1,8-8.7,17.9-7.3,27.9c1.4,10,6.6,18.8,14.6,24.9
	c6.8,5.1,14.8,7.6,22.7,7.6c11.4,0,22.7-5.1,30.1-14.9C1091,739.1,1087.7,715.5,1071.2,702.9z M1029.3,758.2
	c-6.7-5.1-11.1-12.5-12.3-20.9c-1.2-8.4,1-16.7,6.1-23.5c0.1-0.2,0.3-0.3,0.4-0.5l50.5,38.2c-0.1,0.2-0.3,0.4-0.4,0.5
	C1063.2,766,1043.3,768.8,1029.3,758.2z"/>
<path class="st1" d="M881,827c-8.5-5.3-18.6-7-28.4-4.7c-9.8,2.3-18.1,8.2-23.4,16.8c-5.3,8.5-7,18.6-4.7,28.4s8.2,18.1,16.8,23.4
	c6.2,3.8,13,5.7,19.8,5.7c12.6,0,24.9-6.3,32-17.8C904.1,861.2,898.6,838,881,827z M888,875.7c-9.2,14.8-28.8,19.4-43.6,10.2
	c-0.2-0.1-0.4-0.2-0.6-0.4l33.4-53.7c0.2,0.1,0.4,0.2,0.6,0.3C892.7,841.3,897.2,860.9,888,875.7z"/>
<path class="st3" d="M1071.1,974.5c-12.4,0-22.5,10.1-22.5,22.5s10.1,22.5,22.5,22.5s22.5-10.1,22.5-22.5S1083.5,974.5,1071.1,974.5
	z"/>
<path class="st3" d="M1033,795.3l-11.2-15.1c-0.5-0.6-1.2-1.1-2-1.2s-1.6,0.1-2.2,0.6l-15.1,11.2c-1.3,1-1.6,2.9-0.6,4.2l11.2,15.1
	c0.5,0.6,1.2,1.1,2,1.2c0.1,0,0.3,0,0.4,0c0.6,0,1.3-0.2,1.8-0.6l15.1-11.2C1033.7,798.5,1034,796.7,1033,795.3z"/>
<path class="st3" d="M877.8,760.8c-0.5-0.6-1.2-1-2-1.1l-27.7-2.4c-1.7-0.1-3.1,1.1-3.2,2.7l-2.9,33.4c-0.1,0.8,0.2,1.6,0.7,2.2
	c0.5,0.6,1.2,1,2,1.1l27.7,2.4c0.1,0,0.2,0,0.3,0c1.5,0,2.8-1.2,3-2.7l2.9-33.4C878.6,762.2,878.3,761.4,877.8,760.8z"/>
<path class="st3" d="M863.9,1418.9c6.7-2.2,9.9-10.5,7.3-18.5c-2.7-8-10.2-12.7-16.9-10.5c-6.7,2.2-9.9,10.5-7.3,18.5
	C849.7,1416.4,857.2,1421.1,863.9,1418.9z"/>
<path class="st3" d="M860.5,1422.4c-2.8,0-5.6-0.8-8.1-2.5c-3.8-2.4-6.7-6.2-8.2-10.7s-1.4-9.3,0.2-13.5c1.7-4.3,4.9-7.5,8.9-8.8
	c4.1-1.3,8.5-0.7,12.5,1.8c3.8,2.4,6.7,6.2,8.2,10.7s1.4,9.3-0.2,13.5c-1.7,4.3-4.9,7.5-8.9,8.8
	C863.5,1422.2,862,1422.4,860.5,1422.4z M857.6,1392.2c-0.8,0-1.6,0.1-2.4,0.4c-2.3,0.8-4.2,2.7-5.2,5.3c-1.1,2.9-1.1,6.2-0.1,9.4
	c1.1,3.2,3.1,5.9,5.7,7.5c2.4,1.5,5,1.9,7.4,1.1c2.3-0.8,4.2-2.7,5.2-5.3c1.1-2.9,1.1-6.2,0.1-9.4c-1-3.2-3.1-5.9-5.7-7.5
	C861,1392.7,859.3,1392.2,857.6,1392.2z"/>
<path class="st3" d="M1505.3,619.9c-0.7-2.2-2.4-3.9-4.7-4.8c-7.5-2.9-21.2,2.1-30.6,7.4c-13.7,7.7-52.3,41.6-74.2,64
	c-47.7,48.7-82.7,78-96.1,80.4c-18.7,3.3-30.3-27.5-30.4-27.8c-0.6-1.6-2.3-2.3-3.9-1.8c-1.6,0.6-2.3,2.3-1.8,3.9
	c0.1,0.2,0.5,1.3,1.2,3c-0.1,0.2-0.2,0.4-0.3,0.6l-4.2,14.5c-0.3,1.1,0.1,2.4,1,3.2c0.2,0.1,4.1,3.5,4.9,12c0.2,2.3,0.3,4.6,0.3,6.9
	c0.1,7.3,0.2,16.4,9.6,17.7c0.3,0,0.5,0.1,0.9,0.1c2.4,0,8-1.9,28.7-20.7c11.3-10.2,21.8-20.6,21.9-20.7l0.1-0.1
	c21.6-16.4,49.4-43.3,72.4-66.9c21.2-21.7,59.7-55.7,72.8-63c10.2-5.7,21.1-8.7,25.5-7c0.9,0.3,1.1,0.7,1.2,1.1
	c0.8,2.3-6.2,7.1-10.4,10c-3.4,2.3-6.9,4.7-9.3,7.2c-8.1,8.1-10.5,13.7-10.6,13.9c-0.6,1.5,0.1,3.3,1.6,3.9c1.5,0.7,3.3,0,3.9-1.6
	c0,0,2.2-4.9,9.4-12.1c2.1-2.1,5.3-4.3,8.5-6.5C1499.9,631.8,1507.5,626.6,1505.3,619.9z"/>
<path class="st2" d="M1490.2,1562.2c0,0,30.8-10.5,42.1,21.8c0,0-12.1,9.2-28.6,0.8C1491.3,1579,1490.2,1562.2,1490.2,1562.2z"/>
<path class="st2" d="M1369.4,1704.8c2-8.9,35.7-8.4,44.1-16.2c8.4-7.8,10.6-68.2,62.5-66.9c44.9,1.1,42.7,45.2,49.9,61.4
	c7.7,17.2,63.3,9.8,66.9,22.6c3.5,12.4-20.4,13.4-43.8,10.3c-16.8-2.2-27.1-5-32.4,0.6c-9.7,10.2,28.4,26.8,13.9,34
	c-14.5,7.3-38.6-24.7-59.1-21.8c-17.6,2.5-31.5,20.1-43.5,13.9c-10.9-5.6,0.6-17.6-7.3-25.1
	C1409.2,1706.5,1364.9,1724.9,1369.4,1704.8z"/>
<path class="st3" d="M1525.8,1754.6c-7.4,0-15.7-5.4-24.4-11c-10.1-6.5-20.5-13.2-29.6-11.9c-7,1-13.5,4.6-19.8,8.2
	c-8.9,5-17.3,9.7-25.5,5.5c-7.7-3.9-6.9-10.8-6.3-15.8c0.5-4.5,0.7-7.4-1.7-9.8c-4.1-3.9-15-3.2-24.7-2.5
	c-11.4,0.8-21.2,1.4-25.7-3.8c-2-2.3-2.6-5.5-1.7-9.4c1.5-6.7,12.1-8.8,24.3-11.2c8.2-1.6,17.4-3.5,20.6-6.5
	c1.5-1.4,3.4-7.2,5.2-12.7c6.8-21,18.3-56,59.4-55.1c37.4,0.9,44.3,30.4,48.8,49.8c1.3,5.4,2.3,10,3.8,13.3
	c3.4,7.6,21.3,9.8,35.7,11.6c16.3,2,29.1,3.5,31.4,11.4c1.2,4.4-0.3,7.4-1.8,9.2c-3.1,3.6-13.2,9.1-45.3,4.9
	c-2.9-0.4-5.6-0.8-8.1-1.1c-11.1-1.6-18.4-2.7-21.7,0.8c-2.5,2.7,1.8,7.3,8.3,13.5c5.4,5.2,10.5,10.2,9.7,15.3
	c-0.4,2.5-2,4.4-4.9,5.9C1530,1754.2,1527.9,1754.6,1525.8,1754.6z M1474.1,1725.6c10.4,0,21,6.9,30.6,13
	c9.6,6.2,18.8,12.1,24.5,9.2c1-0.5,1.6-1,1.7-1.4c0.3-2-4.7-6.8-8-10c-6.8-6.6-15.3-14.8-8.5-22c5.5-5.8,14-4.5,26.9-2.6
	c2.5,0.4,5.2,0.8,8,1.1c20.4,2.7,36.1,1.5,39.9-2.9c0.6-0.6,1.1-1.6,0.6-3.6c-1.1-4.1-15.7-5.8-26.3-7.1
	c-17.5-2.1-35.7-4.3-40.5-15.1c-1.7-3.8-2.8-8.7-4.2-14.4c-4.6-19.8-10.3-44.4-43.1-45.2c-0.5,0-1,0-1.6,0
	c-35.4,0-45.4,30.6-52,50.9c-2.4,7.4-4.1,12.7-6.8,15.2c-4.5,4.2-13.7,6-23.5,8c-7.1,1.4-19,3.8-19.6,6.7c-0.6,2.9,0.2,3.8,0.4,4.2
	c2.5,2.9,12.2,2.3,20.7,1.7c11.5-0.8,23.3-1.6,29.3,4.2c4.7,4.5,4,10.2,3.5,14.8c-0.6,5.2-0.7,7.8,3.1,9.8c5.4,2.8,12.1-1,19.9-5.4
	c6.4-3.6,13.7-7.7,21.9-8.9C1472,1725.7,1473.1,1725.6,1474.1,1725.6z"/>
<path class="st2" d="M1489.8,1562c0,0-10.4-30.9,21.9-42c0,0,9.2,12.1,0.7,28.6C1506.5,1560.9,1489.8,1562,1489.8,1562z"/>
<path class="st3" d="M1535.1,1583.1c-5.9-17.1-17.1-23.1-26.9-24.8c2.7-2.1,5.2-4.8,6.9-8.3c9.2-18-0.6-31.3-1-31.8
	c-0.8-1-2.1-1.4-3.4-1c-29.3,10.1-26.2,35.5-24.4,43.4c-0.3,0.6-0.5,1.2-0.5,1.9c0.6,27-9.7,42.3-13,43.3c-1,0-2,0.5-2.7,1.2
	c-11.6,1.4-20.6,11.3-20.6,23.3c0,12.9,10.5,23.5,23.5,23.5c12.9,0,23.5-10.5,23.5-23.5c0-9.9-6.1-18.3-14.8-21.8
	c4.8-5.8,9.2-16.1,11.2-29.4c2.2,3.4,5.3,6.5,9.5,8.5c5.7,2.9,10.9,3.9,15.4,3.9c9.7,0,16.1-4.7,16.4-5
	C1535.1,1585.6,1535.5,1584.3,1535.1,1583.1z M1510.4,1523.6c1.9,3.7,5,12.5-0.7,23.7c-3.9,7.9-13.3,10.6-17.8,11.4
	C1490.4,1551.9,1488.3,1532.5,1510.4,1523.6z M1504.9,1582.2c-7.2-3.5-10-11.5-11.1-16.3c0-0.5,0-1,0-1.5c0.5-0.1,1.1-0.2,1.7-0.4
	c8-1.3,24.8-1.4,33,18.8C1524.9,1584.7,1516.1,1587.9,1504.9,1582.2z"/>
<path class="st3" d="M855.1,1712.4H494.4c-1.7,0-3-1.3-3-3c0-1.7,1.3-3,3-3h360.7c1.7,0,3,1.3,3,3
	C858.1,1711.1,856.8,1712.4,855.1,1712.4z"/>
<path class="st3" d="M1249.8,1712.4h-238.7c-1.7,0-3-1.3-3-3c0-1.7,1.3-3,3-3h238.7c1.7,0,3,1.3,3,3
	C1252.8,1711.1,1251.4,1712.4,1249.8,1712.4z"/>
<path class="st3" d="M917.1,1712.4h-36c-1.7,0-3-1.3-3-3c0-1.7,1.3-3,3-3h36c1.7,0,3,1.3,3,3
	C920.1,1711.1,918.8,1712.4,917.1,1712.4z"/>
<path class="st2" d="M1132.2,413.4c2.5-7.1-3.1-15.6-12.5-18.9c-9.5-3.4-19.2-0.4-21.7,6.7c-2.5,7.1,3.1,15.6,12.5,18.9
	C1119.9,423.4,1129.7,420.4,1132.2,413.4z"/>
<path class="st3" d="M1120.7,391.6c-5.2-1.9-10.7-2.1-15.4-0.7c-5,1.5-8.7,4.8-10.2,9.1c-1.6,4.3-0.8,9.1,2.1,13.5
	c2.7,4.1,7.1,7.4,12.3,9.3c2.9,1.1,6,1.6,8.9,1.6c2.2,0,4.4-0.3,6.5-0.9c5-1.5,8.7-4.8,10.2-9.1
	C1138.2,405.8,1131.7,395.6,1120.7,391.6z M1102.2,410.3c-1.8-2.8-2.4-5.7-1.5-8.2c0.9-2.5,3.1-4.4,6.3-5.4c1.5-0.5,3.1-0.7,4.7-0.7
	c2.2,0,4.6,0.4,6.9,1.2c4.2,1.5,7.5,4.2,9.4,7.1c-9.4-3.3-19-0.3-21.5,6.7c-0.4,1-0.5,2-0.6,3.1
	C1104.5,413.1,1103.2,411.7,1102.2,410.3z"/>
<path class="st2" d="M1177.1,429.1c2.5-7.1-3.1-15.6-12.5-18.9c-9.5-3.4-19.2-0.4-21.7,6.7c-2.5,7.1,3.1,15.6,12.5,18.9
	C1164.8,439.2,1174.5,436.2,1177.1,429.1z"/>
<path class="st3" d="M1121,388.3c-5.4,0-9.4-1.2-9.7-1.3c-1.6-0.5-2.5-2.2-2-3.7c0.5-1.6,2.2-2.5,3.7-2c0.1,0,8.2,2.4,15.9-0.2
	c1.6-0.5,3.3,0.3,3.8,1.9s-0.3,3.3-1.9,3.8C1127.5,387.9,1124,388.3,1121,388.3z"/>
<path class="st3" d="M1175.2,407.1c-0.1,0-0.1,0-0.2,0c-11.8-0.9-16.7-10.2-16.9-10.6c-0.8-1.5-0.2-3.3,1.3-4c1.5-0.8,3.3-0.2,4,1.3
	c0.2,0.3,3.7,6.8,12.1,7.4c1.7,0.1,2.9,1.6,2.8,3.2C1178.1,405.9,1176.7,407.1,1175.2,407.1z"/>
<path class="st3" d="M1165.6,407.4c-11-4-22.5-0.2-25.6,8.4c-0.1,0.2-0.1,0.5-0.2,0.7c-0.9,1.6-8.5,14.9-1.4,22.9
	c1.5,1.7,2.9,3,4.1,4.1c3,2.7,3.2,3.2,2.7,4.9c-0.4,1.6-1.9,3.1-4,4.1c-3.1,1.4-8.3,2.1-13.6-0.4c-1.5-0.7-3.3-0.1-4,1.5
	c-0.7,1.5-0.1,3.3,1.5,4c3.2,1.5,6.6,2.2,9.9,2.2c3.1,0,6.1-0.6,8.7-1.9c3.8-1.8,6.4-4.6,7.3-7.9c1.4-5.4-1.4-8-4.5-10.8
	c-1.1-1-2.4-2.2-3.7-3.7c-1.6-1.8-1.7-4.4-1.3-7.1c2.6,4.4,7.1,8.2,12.8,10.2c3,1.1,6,1.6,8.8,1.6c7.8,0,14.5-3.7,16.8-10
	C1183.1,421.6,1176.6,411.4,1165.6,407.4z M1145.6,417.9c1.4-3.8,5.8-6,11.1-6c2.2,0,4.5,0.4,6.8,1.2c4.2,1.5,7.5,4.2,9.4,7.1
	c-9.4-3.3-19-0.3-21.5,6.7c-0.4,1-0.5,2-0.6,3.1C1146.5,426.6,1144.2,421.8,1145.6,417.9z"/>
<path class="st3" d="M1111,453.4c-10.6-6-22-5.2-26,1.8c-2,3.6-1.8,8.1,0.8,12.7c2.3,4.1,6.2,7.8,11,10.6c4.7,2.7,9.7,4,14,4
	c5.3,0,9.8-2,12-5.9C1126.8,469.6,1121.6,459.3,1111,453.4z"/>
<path class="st3" d="M1032.8,373.8c1.7,0.1,3.1-1.1,3.2-2.8s-1.1-3.1-2.8-3.2c-0.3,0-6.7-0.4-11.9,4.2c-3.8,3.4-6,8.4-6.4,15
	c-0.1,1.7,1.2,3.1,2.8,3.2c0.1,0,0.1,0,0.2,0c1.6,0,2.9-1.2,3-2.8c0.3-5.2,1.9-8.4,3.9-10.4l3.3,7.5c0.5,1.1,1.6,1.8,2.7,1.8
	c0.4,0,0.8-0.1,1.2-0.3c1.5-0.7,2.2-2.4,1.5-4l-3.5-7.9C1031.5,373.8,1032.5,373.8,1032.8,373.8z"/>
<path class="st2" d="M1456.9,576.4c0,0,2,13.3-0.5,26.9c-1.7,9-1.3,18.3,7.3,16.3c8.6-2,4.2-10.7,5.3-19.7c1-7.7,8.4-7.4,17,3.8
	c5.5,7.2,10.7,4.3,15.3-0.6c2-2,3.2-4.2,6.8-6.2c6.2-3.4,9.8,3.9,16.5,2.6c7-1.4,7.8-4.6,12.2-5.2c6-0.8,9.4,5.6,14.2,1
	c4.8-4.6-2.2-10.3-1.7-19.1c0,0-5.3,9-28.3,11.2C1467.4,593,1456.9,576.4,1456.9,576.4z"/>
<path class="st3" d="M1461.6,622.9c-2.8,0-4.6-1.1-5.7-2.2c-3.2-3.1-4-9-2.4-18c2.4-13,0.5-25.8,0.5-25.9c-0.2-1.4,0.6-2.8,1.9-3.3
	c1.3-0.5,2.8,0,3.6,1.2c0.2,0.3,11.3,14.9,61.4,9.9c20.9-2.1,26-9.8,26.1-9.8c0.7-1.2,2.1-1.7,3.5-1.3c1.3,0.4,2.2,1.7,2.1,3.1
	c-0.2,3.2,0.8,5.9,1.8,8.6c1.4,3.8,3.1,8.5-1.1,12.5c-4.2,4-8.3,2.2-11,1c-1.7-0.8-3.2-1.4-4.8-1.2c-1.3,0.2-2.1,0.7-3.5,1.6
	c-1.9,1.2-4.2,2.7-8.5,3.6c-4.1,0.8-7.2-0.7-9.8-2c-2.7-1.4-4-1.9-5.9-0.9c-2.2,1.2-3.3,2.4-4.5,3.8c-0.5,0.6-1,1.2-1.6,1.8
	c-2.4,2.6-6.2,6-11,5.8c-3.2-0.2-6.2-2-8.9-5.5c-5-6.5-8.9-8.3-10.3-7.9c-0.9,0.2-1.2,2.1-1.3,2.6c-0.3,2.5-0.2,5,0,7.5
	c0.4,5.7,0.8,12.8-7.6,14.7C1463.4,622.8,1462.4,622.9,1461.6,622.9z M1460.6,583.4c0.3,5.3,0.2,12.8-1.2,20.5
	c-1.4,7.5-0.6,11.4,0.6,12.5c0.6,0.6,1.6,0.7,3.1,0.3c3-0.7,3.4-1.8,3-8.5c-0.2-2.6-0.4-5.6,0-8.6c0.5-4,2.6-6.8,5.7-7.6
	c4.8-1.3,10.7,2.3,16.7,10c1.6,2,3,3.1,4.4,3.2c1.7,0.1,3.8-1.3,6.4-4c0.5-0.5,1-1,1.4-1.6c1.4-1.6,3-3.5,6.2-5.2
	c4.7-2.6,8.6-0.6,11.4,0.8c2.4,1.2,3.9,1.9,5.9,1.5c3.3-0.6,4.9-1.7,6.4-2.7s3.2-2.1,5.9-2.5c3.4-0.5,6,0.7,8.1,1.7
	c2.7,1.2,3.2,1.3,4.4,0.1c1.1-1.1,1-2-0.5-6c-0.5-1.4-1.1-2.9-1.5-4.5c-4.4,3-12.2,6.6-25.7,7.9c-22.7,2.3-40.7,1-53.6-3.8
	C1464.8,585.7,1462.5,584.5,1460.6,583.4z"/>
<path class="st2" d="M1449.6,641.6c0,0-4.8,8.7-5.3,16.5c-0.4,6,0.8,14.8-2.8,16.8c-3.7,2-5.3-5-10.2-4.7c-3.4,0.2-6.2,6-9.8,5.7
	c-3.7-0.3-6.7-3.7-6.7-3.7l18.3-16.3L1449.6,641.6z"/>
<path class="st3" d="M1421.8,679c-0.2,0-0.4,0-0.6,0c-4.7-0.4-8.2-4.2-8.6-4.6c-0.5-0.6-0.8-1.4-0.8-2.2s0.4-1.5,1-2.1l18.3-16.3
	l16.5-14.4c1.1-1,2.7-1,3.9-0.1c1.1,0.9,1.4,2.5,0.7,3.8c-0.1,0.2-4.5,8.2-5,15.2c-0.1,1.4-0.1,3-0.1,4.6c0,6,0,12.3-4.3,14.6
	c-3.8,2.1-6.7-0.8-8.3-2.3c-1.3-1.3-2.2-2.1-3.1-2c-0.6,0-1.9,1.2-2.7,2C1426.9,677,1424.7,679,1421.8,679z M1419.4,672.2
	c0.7,0.4,1.5,0.7,2.3,0.8c0.6,0.1,2.1-1.2,3-2.1c1.7-1.6,3.7-3.4,6.4-3.6c3.7-0.3,6.1,2.1,7.7,3.7c0.4,0.4,1,1,1.3,1.2
	c1.1-1.1,1.1-6.8,1.1-9.3c0-1.7,0-3.4,0.1-5c0.1-2,0.5-4,1-6l-7.2,6.3L1419.4,672.2z"/>
<path class="st3" d="M1156.4,1665.1c-17.4,0-31.5-14.1-31.5-31.5c0-4.2,0.8-8.4,2.5-12.3c4.9-11.7,16.3-19.2,29-19.2
	c17.4,0,31.5,14.1,31.5,31.5c0,9.7-4.4,18.7-12,24.7C1170.4,1662.8,1163.6,1665.1,1156.4,1665.1z M1156.4,1608.1
	c-10.3,0-19.5,6.1-23.5,15.6c-1.3,3.1-2,6.5-2,9.9c0,14.1,11.4,25.5,25.5,25.5c5.8,0,11.3-1.9,15.8-5.5c6.2-4.9,9.7-12.2,9.7-20
	C1181.9,1619.6,1170.5,1608.1,1156.4,1608.1z"/>
<path class="st1" d="M1156.4,1665.1c-17.4,0-31.5-14.1-31.5-31.5c0-4.2,0.8-8.4,2.5-12.3l5.5,2.3c-1.3,3.1-2,6.5-2,9.9
	c0,14.1,11.4,25.5,25.5,25.5c5.8,0,11.3-1.9,15.8-5.5l3.7,4.7C1170.4,1662.8,1163.6,1665.1,1156.4,1665.1z"/>
<path class="st3" d="M1121.8,1643.6c-10,0-18.7-6.7-21.2-16.4c-0.5-1.8-0.7-3.6-0.7-5.5c0-12.1,9.8-21.9,21.9-21.9
	c7.3,0,14,3.6,18.1,9.6c0.9,1.4,0.6,3.2-0.8,4.2c-1.4,0.9-3.2,0.6-4.2-0.8c-3-4.4-7.9-7-13.1-7c-8.7,0-15.9,7.1-15.9,15.9
	c0,1.4,0.2,2.7,0.5,4c1.8,7,8.1,11.9,15.3,11.9c1.7,0,3,1.3,3,3C1124.7,1642.3,1123.4,1643.6,1121.8,1643.6z"/>
<path class="st1" d="M1121.8,1643.6c-10,0-18.7-6.7-21.2-16.4l5.8-1.5c1.8,7,8.1,11.9,15.3,11.9c2.1,0,4.2-0.4,6.2-1.2l2.3,5.5
	C1127.6,1643.1,1124.7,1643.6,1121.8,1643.6z"/>
<path class="st3" d="M716.9,1665.1c-6.1,0-11.9-1.7-17-5c-9.1-5.8-14.5-15.7-14.5-26.5c0-17.4,14.1-31.5,31.5-31.5
	c13.3,0,25.2,8.4,29.7,20.9c1.2,3.4,1.8,7,1.8,10.6C748.4,1651,734.3,1665.1,716.9,1665.1z M716.9,1608.1
	c-14.1,0-25.5,11.4-25.5,25.5c0,8.7,4.4,16.7,11.7,21.5c4.1,2.6,8.9,4,13.8,4c14.1,0,25.5-11.4,25.5-25.5c0-2.9-0.5-5.8-1.5-8.6
	C737.3,1614.9,727.7,1608.1,716.9,1608.1z"/>
<path class="st1" d="M716.9,1665.1c-6.1,0-11.9-1.7-17-5l3.2-5c4.1,2.6,8.9,4,13.8,4c14.1,0,25.5-11.4,25.5-25.5
	c0-2.9-0.5-5.8-1.5-8.6l5.7-2c1.2,3.4,1.8,7,1.8,10.6C748.4,1651,734.3,1665.1,716.9,1665.1z"/>
<path class="st3" d="M751.6,1643.6c-1.7,0-3-1.3-3-3c0-1.7,1.3-3,3-3c7.4,0,13.9-5.3,15.5-12.5c0.2-1.1,0.4-2.2,0.4-3.4
	c0-8.7-7.1-15.9-15.9-15.9c-5.3,0-10.2,2.6-13.1,7c-0.9,1.4-2.8,1.7-4.2,0.8c-1.4-0.9-1.7-2.8-0.8-4.2c4.1-6,10.8-9.6,18.1-9.6
	c12.1,0,21.9,9.8,21.9,21.9c0,1.6-0.2,3.1-0.5,4.6C770.8,1636.4,761.8,1643.6,751.6,1643.6z"/>
<path class="st1" d="M751.6,1643.6c-2.9,0-5.8-0.6-8.5-1.7l2.3-5.5c2,0.8,4,1.2,6.2,1.2c7.4,0,13.9-5.3,15.5-12.5l5.9,1.3
	C770.8,1636.4,761.8,1643.6,751.6,1643.6z"/>
<path class="st3" d="M1163.6,1522.7c-2.3-17.6-6.6-33.3-7.2-35.5l-31-300.5c0.1-0.3,0.1-0.6,0-0.9l-15.5-148.8v-0.2
	c0-0.2-0.1-0.4-0.1-0.6c0,0,0-0.1-0.1-0.1c-0.1-0.1-0.1-0.3-0.2-0.4c0-0.1-0.1-0.1-0.1-0.2c-0.1-0.1-0.1-0.2-0.2-0.3
	c-0.1-0.1-0.1-0.1-0.2-0.2s-0.2-0.2-0.3-0.2c0,0-0.1,0-0.1-0.1c0,0-0.1-0.1-0.2-0.1c-0.1-0.1-0.2-0.1-0.3-0.2
	c-0.1,0-0.2-0.1-0.3-0.1c-0.1,0-0.2-0.1-0.3-0.1s-0.2,0-0.3-0.1c-0.1,0-0.2,0-0.3,0s-0.2,0-0.3,0h-0.1c-0.1,0-0.2,0-0.2,0
	c-0.1,0-0.1,0-0.2,0l-30.3,7.4l-34.2,2.5h-0.1c-1.1,0.1-2.1,0.8-2.5,1.8c-0.9,2.3,0.9,4.3,3,4.2h0.2c2.3-0.1,26.1-0.9,38.9,25.3
	c13,26.7,23.8,59.8,30.5,82.9c4.8,16.4,8.1,33.2,9.8,50.3c-0.1,0.4,6.9,40.7-26.6,72.5c-6.9,6.6-13.5,11.6-13.9,21.1
	c-0.5,12.4,8.7,28.8,16.9,43.2c6.4,11.3,14.4,25.4,11.2,28.7c-4.6,4.8-16.9-2.2-25.8-7.3c-5.5-3.1-10.3-5.9-13.8-6.4
	c-5.4-0.8-11.1,1.1-15.2,5.1c-4.2,4-6.2,9.4-5.7,15.1c0.8,8.3,8.7,15.8,18.7,25.2c4.6,4.3,9.8,9.3,14.9,14.8c1.4,1.5,2.7,3,4.1,4.5
	c14.6,15.9,29.8,32.3,31.1,52.7c1.3,20.8-8.7,25.8-9.2,26.1c-0.1,0-0.1,0.1-0.2,0.1c-21.8,5.6-47.7,8.2-77.5,7.6
	c-29.7-0.5-38.6-6.4-40.5-8l-39.2-332.7c6.1-1.2,10.8-4,14.2-8.5c8.3-11,5.7-28.8,4.1-39.5c-0.3-2.1-0.6-3.9-0.7-5.2
	c-0.3-3.2,0.3-5.7,1.9-7.5c3.9-4.6,13.8-5.4,22.6-6.1c4-0.3,7.7-0.6,11.1-1.2c5.6-1,9.6-5.2,9.8-10.2c0.2-3.4-1.3-11.7-18.2-16.3
	c-19.4-5.4-52.1-3.8-60.6-3.2c-0.1,0-0.2,0-0.4,0c-12.8,0-24.5-2.5-34.8-7.2c-1.3-0.6-2.9-0.3-3.8,0.9c-1.1,1.6-0.5,3.7,1.2,4.5
	c8.9,4.1,18.8,6.6,29.6,7.5c-0.1,0.3-0.1,0.6-0.2,0.9l-12.1,114.2c0,0,0,0,0,0.1l-0.1,0.8c-0.4,2.3-2.3,10.6-12,17.8
	c-3,2.2-5.8,3.7-8.6,5.1c-7.1,3.7-13.9,7.3-13.3,20.7c0.1,1.7,0.2,3.5,0.3,5.4c0.5,9.5,1.4,27.2-2.1,30.1c-0.1,0.1-0.3,0.3-0.9,0.1
	c-4.1-0.9-12-11.3-18.4-19.8c-6.3-8.3-12.2-16.1-17.2-19.5c-5.2-3.5-11.6-3.8-17.2-0.7c-7,3.8-11.3,11.9-11.1,20.6
	c0.3,12,13.9,38.4,40.5,78.3c16.7,25,34.5,67.5,34.2,101.6c0,0.6,0.1,1.1,0.4,1.5l-5.9,56c-30.2,12.3-71.4,13-122.7,2.1
	c-32.2-6.9-38.1-15.3-38.5-16.1l40.4-518.9c0.1-1.7-1.1-3.1-2.8-3.2c-1.6-0.1-3.1,1.1-3.2,2.8l-40.7,522.4c0,0.2,0,0.5,0,0.7
	c-1.6,10.1-6.2,42.6-2.8,64.5c1.7,11.1,10.1,26,40.5,33.6c19.5,4.9,45.3,8,69,8c17.6,0,33.9-1.7,45.5-5.8
	c21.7-7.6,21-76.5,20.8-87.3c0.1-0.3,0.2-0.6,0.3-0.9l43.8-413.6c0-0.2,0.1-0.7,0.8-0.7c0.7,0,0.8,0.5,0.8,0.7l50,424.8
	c0.1,3.2,1.1,42.8,9.7,66.8c3.4,9.4,11.2,16.3,23.3,20.5c10.9,3.8,21.8,4.2,26,4.2c49.9,0,91.9-9.5,112.1-25.3
	C1164.1,1564.8,1166.9,1548.4,1163.6,1522.7z M865.7,1576.6c-23.3,8.1-73.1,7.1-111-2.4c-15-3.7-33.5-11.8-36.1-28.7
	c-2.9-19,0.6-47.5,2.4-59.7c0.8,0.6,1.8,1.3,3,2c7.7,4.8,19.5,8.9,35.1,12.2c51,10.9,92.5,10.4,123.5-1.4
	C882.8,1528.1,878.7,1572,865.7,1576.6z M1151.6,1566.6c-7.2,5.6-36.4,24-108.5,24c-3,0-13.7-0.3-24-3.9
	c-10.3-3.6-16.9-9.2-19.7-16.8c-6.5-18.1-8.5-46.7-9.1-59c1,0.5,2,1,3.3,1.4c8.5,3.2,20.8,5,36.7,5.3c52.2,0.9,93-7.5,121.2-25.1
	C1156.9,1512.9,1165,1556.6,1151.6,1566.6z"/>
<path class="st3" d="M816.1,1584.9c0,0,32.2,1.6,29.2,28.2l3.1-28.5L816.1,1584.9z"/>
<path class="st3" d="M845.4,1616.1c-0.1,0-0.2,0-0.3,0c-1.6-0.2-2.8-1.7-2.7-3.3v-0.1c0.7-6.2-0.7-11.3-4.1-15.3
	c-7.5-8.8-22.2-9.6-22.3-9.6c-1.6-0.1-2.9-1.4-2.9-3.1c0-1.6,1.4-2.9,3-2.9l32.3-0.2c0.8,0,1.7,0.4,2.2,1s0.8,1.5,0.8,2.3l-3.1,28.4
	c0,0,0,0,0,0.1C848.2,1615,846.9,1616.1,845.4,1616.1z M835.8,1587.7c2.6,1.5,5,3.4,7,5.8c0.5,0.6,1,1.2,1.4,1.9l0.8-7.8
	L835.8,1587.7z"/>
<path class="st3" d="M1262,723.8c-4-7.9-10.7-20.6-19.4-35.6c-14.6-25.2-36.6-59.8-58.7-81.9c-25.5-25.5-82.2-63.1-103.3-74.2
	c-2.9-1.6-4.1-5.1-2.6-8.1l13.5-27c0.7-1.5,0.1-3.3-1.3-4c-1.5-0.7-3.3-0.1-4,1.3l-13.5,27c-2.9,5.8-0.6,13,5.2,16.1
	c11.3,6,33,19.7,54.5,35c-3.1,4.2-13.6,17.4-31.4,28.6c-28.5,17.9-61.1,22.2-96.9,12.8c-31.6-8.3-55-27.5-69.7-57.2
	c-8.9-18-11.6-34.6-12.4-40.5c8-2,15.7-3.9,22.9-5.7c23.5-5.7,40.5-9.8,46.5-14.4c11.7-9,32.7-72.3,35-79.5c0.5-1.6-0.3-3.3-1.9-3.8
	s-3.3,0.3-3.8,1.9c-9,27.5-25.2,70.6-33,76.5c-5,3.8-23.2,8.3-44.3,13.4c-23.7,5.7-53.1,12.9-80.3,22.9
	c-59.2,21.7-126.2,72.2-179.3,134.9c-6.6,7.8-12.8,15.2-18.6,22c-31.7,37.8-50.8,60.6-68.9,73.3c-3.1,2.2-7.8,2.5-14.2,1.2
	c-17.7-3.8-47.3-21.5-83.4-49.9c-29.3-23.1-52.1-44.7-54.4-48.1c-0.3-1.2-0.8-3.6-1.4-6.4c-5.4-25.9-9.8-39.8-17.6-38.8
	c-7.5,1-7,13.5-6.4,26.8c0.1,3.4,0.3,7.7,0.2,10.2c-3.2-1.6-9.5-5.8-14.7-9.2c-22.3-14.6-32.5-20.5-36.4-14.8
	c-2.2,3.3-1.2,7.1,1.7,11.3c-9.9-6.3-15.5-7.8-18.4-4c-3.9,5.1,2.7,13.9,19,28.9c-7-4.3-11.1-6-13.7-5.5c-1.1,0.2-2.1,0.9-2.7,1.8
	c-5.4,8.1,9,20.2,26.9,33.2c-13.3-3.4-20.5-4.6-23.7-2.7c-1,0.6-1.8,1.6-2,2.7c-0.9,3.7,2.2,7.5,20.9,16.1c10.9,5,23.6,10,30.2,12.6
	c2.6,1,4.8,2.5,6.7,4.5c1.6,1.7,3.8,4.1,6.5,7c34,37,137.1,149.2,197.7,149.2c0.2,0,0.5,0,0.8,0c24.2-0.4,50.3-12.9,77.7-37.1
	c16.8-14.9,28.7-29.5,32.5-34.4c9.4,9.5,19.3,18.5,29.1,25.9c0,0,0.1,0.1,0.2,0.1c0.1,0,0.1,0.1,0.2,0.1c0.1,0.1,0.2,0.1,0.3,0.1
	c0.1,0,0.1,0.1,0.2,0.1c0.1,0,0.2,0.1,0.3,0.1c0.1,0,0.1,0,0.2,0c0.2,0,0.3,0,0.5,0c0.2,0,0.4,0,0.6-0.1c0.1,0,0.1,0,0.2-0.1
	c0.1,0,0.3-0.1,0.4-0.1c0.1,0,0.2-0.1,0.2-0.1c0.1-0.1,0.2-0.1,0.3-0.2c0.1-0.1,0.1-0.1,0.2-0.2c0.1-0.1,0.1-0.1,0.2-0.2l12.2-13.7
	l-43.9,129.3c-0.5,1.2-2.5,6.4-0.2,13.2c3.1,8.8,11.9,16.5,26.2,23c0.4,0.2,0.8,0.3,1.2,0.3c0.5,0,1.1-0.1,1.5-0.4
	c0.8-0.5,1.4-1.4,1.5-2.3l2.1-26.3c25.5,6.7,72.4,23.9,156.4,67c34.7,17.8,74.2,22.5,106,22.5c6.8,0,13.3-0.2,19.3-0.6
	c29.1-1.7,52.3-6.7,60.6-8.7l0.9,7.8c0.2,1.5,1.5,2.7,3,2.7c0.1,0,0.2,0,0.3,0c13.1-1.3,25.5-7.1,28.5-13.1c0.6-0.6,0.9-1.5,0.8-2.4
	c0,0,0-0.2-0.1-0.6c0-0.2,0-0.4-0.1-0.6c-1-8-6.8-55-10.7-111.2c-2-29.6-3.2-56.8-3.4-81.4l56,46.8c0.6,0.5,1.2,0.7,1.9,0.7
	c0.7,0,1.5-0.3,2-0.8c0.3-0.3,30.7-28.6,56-70.1c24.7-40.6,29.2-72.3,29.9-77.6C1269.9,739.7,1268.9,737.3,1262,723.8z M617.9,877.6
	c-24.4,0.3-60.2-19.8-106.3-60c-37.5-32.7-71.4-69.6-87.7-87.3c-2.7-3-4.9-5.4-6.5-7.1c-2.5-2.6-5.5-4.7-8.9-6
	c-25.1-9.7-40.1-16.9-45.3-20.7c5.3,0.4,15.8,3.2,20.8,4.5c2.7,0.7,4.9,1.3,6.7,1.7c2.3,0.5,4.9,1.1,6.1-1.2c1.3-2.5-1-4.2-2.6-5.5
	c-1.3-1-3.1-2.2-5.2-3.7c-5.8-4.2-14.7-10.5-21.3-16.4c-6.6-6-8.2-9.2-8.5-10.6c4.4,1.5,15.8,9.3,22.2,13.6
	c12,8.2,14.3,9.6,16.7,8.9c1-0.3,1.7-1,2.1-1.9c0.9-2.3-0.9-3.9-3.5-6.3c-1.9-1.7-4.5-4-7.5-6.6c-6.7-5.8-15-13.1-21.8-19.8
	c-8.4-8.4-10.2-12.1-10.6-13.4c5.4,0.6,23.8,14.5,30.9,19.9c9.8,7.4,10.7,8.1,12.7,7.6c0.9-0.3,1.7-1,2-1.9c1.2-3-1.3-5.1-9.6-12
	c-4.7-4-10.7-8.9-14.7-13.4c-4.1-4.5-4.7-6.7-4.7-7.6c4.5,0.4,19.8,10.4,28.2,15.9c15.3,10,18.5,11.9,21.3,10.5
	c3.2-1.6,3-6.3,2.6-16.7c-0.2-5.6-0.8-18.4,1.2-20.5c1.7,0.9,5.2,6.7,10.9,34c0.7,3.4,1.2,5.8,1.6,7.1c1.2,4.1,28.1,28.2,50.4,46.1
	c24.4,19.6,58.9,44.9,84.2,53.6c12,4.1,20.7,4.2,26.5,0c14.4-10.1,29.1-26.1,49.7-50.3c4.1,6.3,16.2,24.8,32.5,46.2
	c3.8,5,7.9,10.3,12.4,15.9c0.1,0.4,0.3,0.8,0.6,1.1l1.2,1.5c2.6,3.3,8.8,12.1,9.3,23.2c0.5,10.6-2.9,24.5-9.8,35.3l-11.4,12.2
	c-0.1,0.1-0.1,0.1-0.1,0.2C665.7,863.4,642,877.3,617.9,877.6z M1234.4,815.6c-21.2,34.8-46.1,60.2-53.1,67l-57.9-48.4
	c-0.1-39.1,2.1-71,6.6-94c0.3-1.6-0.7-3.2-2.4-3.5c-1.6-0.3-3.2,0.7-3.5,2.4c-3.6,18.1-6.9,48.1-6.7,96.3c0,0.2,0,0.4,0,0.6
	c0.1,24.4,1.1,53.5,3.5,88c3.3,48.3,8.1,89.9,10,105.8c-7.8-1-20.4,3-24.9,4.5c-1.6,0.4-27.8,7.3-62.8,9.3
	c-33.1,1.9-81.2-0.2-122.1-21.3c-126.5-64.9-170.3-72.1-184.3-71.7l46.9-138.2l41.9-47.1c1.1-1.2,1-3.1-0.2-4.2
	c-1.2-1.1-3.1-1-4.2,0.2l-62.5,70.2c-26.9-20.9-53.6-53-71.5-76.6c-17.9-23.6-30.7-43.4-33.2-47.4c5-6,10.4-12.4,16.2-19.3
	c5.8-6.9,11.9-14.2,18.5-22c52.4-62,118.5-111.7,176.7-133.1c16.7-6.1,34.3-11.2,50.8-15.5c0.9,6.8,3.8,23.2,12.8,41.4
	c10.6,21.6,32,49.6,73.6,60.5c13.2,3.5,25.4,4.9,36.7,4.9c28.4,0,50.3-9.3,65.1-18.6c18.7-11.8,29.5-25.4,32.9-30
	c16.3,11.8,32,24.3,42.4,34.7c40.4,40.4,80.7,122.6,83.6,129.9C1262.8,744.9,1258.3,776.3,1234.4,815.6z"/>
<path class="st3" d="M1483.2,686.1l-8.3-32.7c-0.3-1.1-1.2-2-2.4-2.2s-2.3,0.3-3,1.3c-0.2,0.3-5.4,8.1-2.9,17
	c3.3,11.8-0.8,24.4-5.7,31.6c-0.4,0.5-0.8,1-1.2,1.5l-1.5,1.9c-0.1,0.2-0.2,0.3-0.3,0.5c-8.1,10.6-19,25-30.6,40.5
	c-0.2,0.1-0.3,0.3-0.5,0.4c-0.2,0.2-20.7,24.1-56.2,41.6c-35.1,17.3-45.7,35.6-55.9,53.2c-0.9,1.6-1.9,3.3-2.9,4.9l-0.4,0.7
	c-11.9,20.2-31.9,54.1-69.6,42.4c-0.3-0.1-0.6-0.1-0.9-0.1c-20.8-9.4-33.5-25.2-33.7-25.4c-1-1.3-2.9-1.5-4.2-0.5s-1.5,2.9-0.5,4.2
	c1.1,1.4,27.9,34.6,69.4,34.6c19.4,0,38.2-6.9,55.9-20.5c14.6-11.2,28.7-27,43.1-48.3c19.5-28.8,68.9-94.3,92.4-125
	c0.8-0.9,1.6-1.9,2.4-3l11.6-14.5l3.5-0.5c0.8-0.1,1.6-0.6,2.1-1.3C1483.2,687.8,1483.4,686.9,1483.2,686.1z"/>
<path class="st3" d="M537,892.5c-0.7,0-1.5-0.3-2.1-0.8l-87.2-83.6c-1.2-1.1-1.2-3-0.1-4.2c1.1-1.2,3-1.2,4.2-0.1l87.2,83.6
	c1.2,1.1,1.2,3,0.1,4.2C538.5,892.2,537.8,892.5,537,892.5z"/>
<path class="st3" d="M1234.3,393.6l-1.4-3.4c0,0,0-0.1-0.1-0.1c-8.2-17.2-11.2-29.5-15-45.1c-1.2-4.9-2.4-9.9-3.9-15.6v-0.1
	c-6.1-19.8-15.4-49.7-70.8-69.9c-41.3-15.1-89.4-7.9-143,21.2c-15,8.1-29.9,10.2-44.3,12.2c-16.7,2.3-34,4.7-50.5,16.5
	c-17.8,12.8-30.6,35.7-34.1,61.4c-3.8,28.3,3.8,56.7,21,78c15.4,18.7,38.1,30.9,65.5,35.4c20.6,3.4,36.5,1.2,37.2,1.1
	c1.1-0.1,2-0.9,2.4-1.8l26-64.5c0-0.1,0-0.1,0.1-0.2c0.2,0,0.3,0,0.5,0c1.2,0,2.3-0.7,2.8-1.8c0.6-1.5-0.1-3.3-1.6-3.9
	c-0.1-0.1-13.6-5.9-15.9-17.8c-2.3-11.8,2.1-30.7,14.4-34.9c3.1-1.1,6.1-1.3,8.9-0.7c1.1,0.4,2.3,0.8,3.6,1.3
	c0.4,0.2,0.9,0.5,1.3,0.8c3.8,2.7,6.2,7.4,6.3,12.5c0.1,5.9,0.3,18.2,13.1,18.9c11.1,0.6,15.6-11,19.3-22.9c2.4-7.7,6.2-11.1,9-12.5
	c2.4-1.2,5-1.5,7.2-0.8c7.4,2.5,14.3,6.8,22.3,11.9c11.5,7.3,24.6,15.6,43.3,20.7c18,4.9,31.2,4.2,38,3.2
	c-9.2,33.7-21.8,59.6-37.6,77c-11.5,12.7-24.6,20.5-38.5,23.2c-0.1,0-0.2,0-0.3,0.1c-3.2,0.6-6.3,0.9-9.6,0.9c-0.2,0-0.5,0-0.7,0
	c-32.7,0-58-22-58.3-22.3c-1.2-1.1-3.1-1-4.2,0.3c-1.1,1.2-1,3.1,0.3,4.2c0.8,0.7,16.1,14,38.6,20.4l-4.3,10.2
	c-0.5,1.3-0.1,2.7,0.9,3.5c30.7,23.7,58,34,79.6,34.1c24.2,0.2,67.3-13.3,82.5-50.9C1260,454.2,1245.8,420.6,1234.3,393.6z"/>
<path class="st2" d="M1217.9,497.1c-35,38-78.6,38-90.5,34.2c33.8,14.8,89.8,5,110.8-37.6c10.1-20.6,8.2-44.4,4-62.2
	C1240.4,449.3,1237.3,476.2,1217.9,497.1z"/>
<path class="st2" d="M1145.2,265.9c0,0,4.6,45.1,63.5,63.5C1202.5,309.6,1192,284.3,1145.2,265.9z"/>
<path class="st2" d="M951.4,311.3c-1.2-2.2-3.3-3.7-6-4.2c-2.7-0.5-5.6,0-8.2,1.4c-5.5,3-8,9-5.5,13.4c1.5,2.8,4.6,4.3,8.1,4.3
	c2,0,4.2-0.5,6.2-1.6C951.3,321.8,953.8,315.8,951.4,311.3z"/>
<path class="st2" d="M894.4,399c-4.6,0-8.4-3.7-8.5-8.3c-0.7-40.5,24-60,25.1-60.9c3.7-2.9,9.1-2.2,11.9,1.5c2.9,3.7,2.2,9-1.5,11.9
	c-0.9,0.7-19.1,15.6-18.5,47.1c0.1,4.7-3.7,8.6-8.3,8.7C894.5,399,894.5,399,894.4,399z"/>
</svg>
